<svg xmlns="http://www.w3.org/2000/svg" width="560" height="250"><rect width="100%" height="100%" fill="white"></rect><g transform="translate(60,20)"><g transform="translate(0,200)" fill="none" font-size="10" font-family="sans-serif" text-anchor="middle"><path class="domain" stroke="currentColor" d="M0.5,6V0.5H400.5V6"></path><g class="tick" opacity="1" transform="translate(0.5,0)"><line stroke="currentColor" y2="6"></line><text fill="currentColor" y="9" dy="0.71em">Wed 25</text></g><g class="tick" opacity="1" transform="translate(80.5,0)"><line stroke="currentColor" y2="6"></line><text fill="currentColor" y="9" dy="0.71em">Fri 27</text></g><g class="tick" opacity="1" transform="translate(160.5,0)"><line stroke="currentColor" y2="6"></line><text fill="currentColor" y="9" dy="0.71em">Oct 29</text></g><g class="tick" opacity="1" transform="translate(240.5,0)"><line stroke="currentColor" y2="6"></line><text fill="currentColor" y="9" dy="0.71em">Tue 31</text></g><g class="tick" opacity="1" transform="translate(280.5,0)"><line stroke="currentColor" y2="6"></line><text fill="currentColor" y="9" dy="0.71em">November</text></g><g class="tick" opacity="1" transform="translate(360.5,0)"><line stroke="currentColor" y2="6"></line><text fill="currentColor" y="9" dy="0.71em">Fri 03</text></g></g><g fill="none" font-size="10" font-family="sans-serif" text-anchor="end"><path class="domain" stroke="currentColor" d="M-6,200.5H0.5V0.5H-6"></path><g class="tick" opacity="1" transform="translate(0,200.5)"><line stroke="currentColor" x2="-6"></line><text fill="currentColor" x="-9" dy="0.32em">0</text></g><g class="tick" opacity="1" transform="translate(0,180.5)"><line stroke="currentColor" x2="-6"></line><text fill="currentColor" x="-9" dy="0.32em">200</text></g><g class="tick" opacity="1" transform="translate(0,160.5)"><line stroke="currentColor" x2="-6"></line><text fill="currentColor" x="-9" dy="0.32em">400</text></g><g class="tick" opacity="1" transform="translate(0,140.5)"><line stroke="currentColor" x2="-6"></line><text fill="currentColor" x="-9" dy="0.32em">600</text></g><g class="tick" opacity="1" transform="translate(0,120.5)"><line stroke="currentColor" x2="-6"></line><text fill="currentColor" x="-9" dy="0.32em">800</text></g><g class="tick" opacity="1" transform="translate(0,100.5)"><line stroke="currentColor" x2="-6"></line><text fill="currentColor" x="-9" dy="0.32em">1,000</text></g><g class="tick" opacity="1" transform="translate(0,80.5)"><line stroke="currentColor" x2="-6"></line><text fill="currentColor" x="-9" dy="0.32em">1,200</text></g><g class="tick" opacity="1" transform="translate(0,60.50000000000001)"><line stroke="currentColor" x2="-6"></line><text fill="currentColor" x="-9" dy="0.32em">1,400</text></g><g class="tick" opacity="1" transform="translate(0,40.49999999999999)"><line stroke="currentColor" x2="-6"></line><text fill="currentColor" x="-9" dy="0.32em">1,600</text></g><g class="tick" opacity="1" transform="translate(0,20.499999999999996)"><line stroke="currentColor" x2="-6"></line><text fill="currentColor" x="-9" dy="0.32em">1,800</text></g><g class="tick" opacity="1" transform="translate(0,0.5)"><line stroke="currentColor" x2="-6"></line><text fill="currentColor" x="-9" dy="0.32em">2,000</text></g></g><text text-anchor="middle" style="font-size: 12px" transform="rotate(-90)" y="-40" x="-100">[jobs/s]</text><text text-anchor="middle" style="font-size: 16px" y="0" x="200">bun vs dedicated vs noop</text><path class="line" fill="none" stroke="#e41a1c" stroke-width="1.5" d="M0.624,198.021L40.594,198.06L80.623,198.065L120.618,198.06L160.671,197.997L200.654,198.033L240.632,197.495L280.642,197.527L320.602,197.571L360.607,197.578"></path><path class="line" fill="none" stroke="#377eb8" stroke-width="1.5" d="M0.598,88.959L40.569,95.251L80.597,159.054L120.592,166.522L160.645,132.435L200.628,168.079L240.612,127.829L280.622,128.192L320.582,127.685L360.586,127.935"></path><path class="line" fill="none" stroke="#4daf4a" stroke-width="1.5" d="M0.561,141.466L40.53,90.283L80.534,86.638L120.524,115.905L160.599,143.673L200.556,111.05L240.572,139.769L280.582,74.33L320.541,86.109L360.548,108.439"></path><rect class="dot" x="400" y="5" width="15" height="15" style="fill: #e41a1c;"></rect><rect class="dot" x="400" y="25" width="15" height="15" style="fill: #377eb8;"></rect><rect class="dot" x="400" y="45" width="15" height="15" style="fill: #4daf4a;"></rect><text class="label" x="418" y="12.5" style="fill: #e41a1c; alignment-baseline: middle;" text-anchor="left">bun</text><text class="label" x="418" y="32.5" style="fill: #377eb8; alignment-baseline: middle;" text-anchor="left">dedicated</text><text class="label" x="418" y="52.5" style="fill: #4daf4a; alignment-baseline: middle;" text-anchor="left">noop</text></g></svg>