<svg xmlns="http://www.w3.org/2000/svg" width="560" height="250"><rect width="100%" height="100%" fill="white"></rect><g transform="translate(60,20)"><g transform="translate(0,200)" fill="none" font-size="10" font-family="sans-serif" text-anchor="middle"><path class="domain" stroke="currentColor" d="M0.5,6V0.5H400.5V6"></path><g class="tick" opacity="1" transform="translate(44.94444444444444,0)"><line stroke="currentColor" y2="6"></line><text fill="currentColor" y="9" dy="0.71em">Sat 05</text></g><g class="tick" opacity="1" transform="translate(133.83333333333331,0)"><line stroke="currentColor" y2="6"></line><text fill="currentColor" y="9" dy="0.71em">Mon 07</text></g><g class="tick" opacity="1" transform="translate(222.72222222222223,0)"><line stroke="currentColor" y2="6"></line><text fill="currentColor" y="9" dy="0.71em">Wed 09</text></g><g class="tick" opacity="1" transform="translate(311.61111111111114,0)"><line stroke="currentColor" y2="6"></line><text fill="currentColor" y="9" dy="0.71em">Fri 11</text></g><g class="tick" opacity="1" transform="translate(400.5,0)"><line stroke="currentColor" y2="6"></line><text fill="currentColor" y="9" dy="0.71em">Oct 13</text></g></g><g fill="none" font-size="10" font-family="sans-serif" text-anchor="end"><path class="domain" stroke="currentColor" d="M-6,200.5H0.5V0.5H-6"></path><g class="tick" opacity="1" transform="translate(0,200.5)"><line stroke="currentColor" x2="-6"></line><text fill="currentColor" x="-9" dy="0.32em">0</text></g><g class="tick" opacity="1" transform="translate(0,180.5)"><line stroke="currentColor" x2="-6"></line><text fill="currentColor" x="-9" dy="0.32em">20</text></g><g class="tick" opacity="1" transform="translate(0,160.5)"><line stroke="currentColor" x2="-6"></line><text fill="currentColor" x="-9" dy="0.32em">40</text></g><g class="tick" opacity="1" transform="translate(0,140.5)"><line stroke="currentColor" x2="-6"></line><text fill="currentColor" x="-9" dy="0.32em">60</text></g><g class="tick" opacity="1" transform="translate(0,120.5)"><line stroke="currentColor" x2="-6"></line><text fill="currentColor" x="-9" dy="0.32em">80</text></g><g class="tick" opacity="1" transform="translate(0,100.5)"><line stroke="currentColor" x2="-6"></line><text fill="currentColor" x="-9" dy="0.32em">100</text></g><g class="tick" opacity="1" transform="translate(0,80.5)"><line stroke="currentColor" x2="-6"></line><text fill="currentColor" x="-9" dy="0.32em">120</text></g><g class="tick" opacity="1" transform="translate(0,60.50000000000001)"><line stroke="currentColor" x2="-6"></line><text fill="currentColor" x="-9" dy="0.32em">140</text></g><g class="tick" opacity="1" transform="translate(0,40.49999999999999)"><line stroke="currentColor" x2="-6"></line><text fill="currentColor" x="-9" dy="0.32em">160</text></g><g class="tick" opacity="1" transform="translate(0,20.499999999999996)"><line stroke="currentColor" x2="-6"></line><text fill="currentColor" x="-9" dy="0.32em">180</text></g><g class="tick" opacity="1" transform="translate(0,0.5)"><line stroke="currentColor" x2="-6"></line><text fill="currentColor" x="-9" dy="0.32em">200</text></g></g><text text-anchor="middle" style="font-size: 12px" transform="rotate(-90)" y="-40" x="-100">[jobs/s]</text><text text-anchor="middle" style="font-size: 16px" y="0" x="200">flow throughput benchmark</text><path class="line" fill="none" stroke="#e41a1c" stroke-width="1.5" d="M0.915,183.873L45.346,181.627L89.886,182.667L134.27,183.882L178.658,183.911L223.136,186.154L267.574,183.979L312.025,186.508L356.437,183.557L383.155,184.811"></path><path class="line" fill="none" stroke="#377eb8" stroke-width="1.5" d="M0.831,119.923L45.275,107.544L89.791,118.567L134.208,110.969L178.594,115.655L223.057,118.567L267.492,117.219L311.933,109.387L356.368,114.266L383.068,115.655"></path><path class="line" fill="none" stroke="#4daf4a" stroke-width="1.5" d="M0.827,71.267L45.272,83.775L89.796,77.751L134.205,71.267L178.6,68.421L223.052,72.057L267.489,77.571L311.932,75L356.369,89.233L383.053,77.93"></path><rect class="dot" x="400" y="5" width="15" height="15" style="fill: #e41a1c;"></rect><rect class="dot" x="400" y="25" width="15" height="15" style="fill: #377eb8;"></rect><rect class="dot" x="400" y="45" width="15" height="15" style="fill: #4daf4a;"></rect><text class="label" x="418" y="12.5" style="fill: #e41a1c; alignment-baseline: middle;" text-anchor="left">1 worker</text><text class="label" x="418" y="32.5" style="fill: #377eb8; alignment-baseline: middle;" text-anchor="left">4 workers</text><text class="label" x="418" y="52.5" style="fill: #4daf4a; alignment-baseline: middle;" text-anchor="left">8 workers</text></g></svg>