<svg xmlns="http://www.w3.org/2000/svg" width="560" height="250"><rect width="100%" height="100%" fill="white"></rect><g transform="translate(60,20)"><g transform="translate(0,200)" fill="none" font-size="10" font-family="sans-serif" text-anchor="middle"><path class="domain" stroke="currentColor" d="M0.5,6V0.5H400.5V6"></path><g class="tick" opacity="1" transform="translate(0.5,0)"><line stroke="currentColor" y2="6"></line><text fill="currentColor" y="9" dy="0.71em">Tue 09</text></g><g class="tick" opacity="1" transform="translate(80.5,0)"><line stroke="currentColor" y2="6"></line><text fill="currentColor" y="9" dy="0.71em">Thu 11</text></g><g class="tick" opacity="1" transform="translate(160.5,0)"><line stroke="currentColor" y2="6"></line><text fill="currentColor" y="9" dy="0.71em">Sat 13</text></g><g class="tick" opacity="1" transform="translate(240.5,0)"><line stroke="currentColor" y2="6"></line><text fill="currentColor" y="9" dy="0.71em">Mon 15</text></g><g class="tick" opacity="1" transform="translate(320.5,0)"><line stroke="currentColor" y2="6"></line><text fill="currentColor" y="9" dy="0.71em">Wed 17</text></g><g class="tick" opacity="1" transform="translate(400.5,0)"><line stroke="currentColor" y2="6"></line><text fill="currentColor" y="9" dy="0.71em">Fri 19</text></g></g><g fill="none" font-size="10" font-family="sans-serif" text-anchor="end"><path class="domain" stroke="currentColor" d="M-6,200.5H0.5V0.5H-6"></path><g class="tick" opacity="1" transform="translate(0,200.5)"><line stroke="currentColor" x2="-6"></line><text fill="currentColor" x="-9" dy="0.32em">0</text></g><g class="tick" opacity="1" transform="translate(0,186.21428571428572)"><line stroke="currentColor" x2="-6"></line><text fill="currentColor" x="-9" dy="0.32em">50</text></g><g class="tick" opacity="1" transform="translate(0,171.92857142857144)"><line stroke="currentColor" x2="-6"></line><text fill="currentColor" x="-9" dy="0.32em">100</text></g><g class="tick" opacity="1" transform="translate(0,157.64285714285714)"><line stroke="currentColor" x2="-6"></line><text fill="currentColor" x="-9" dy="0.32em">150</text></g><g class="tick" opacity="1" transform="translate(0,143.35714285714286)"><line stroke="currentColor" x2="-6"></line><text fill="currentColor" x="-9" dy="0.32em">200</text></g><g class="tick" opacity="1" transform="translate(0,129.07142857142856)"><line stroke="currentColor" x2="-6"></line><text fill="currentColor" x="-9" dy="0.32em">250</text></g><g class="tick" opacity="1" transform="translate(0,114.78571428571428)"><line stroke="currentColor" x2="-6"></line><text fill="currentColor" x="-9" dy="0.32em">300</text></g><g class="tick" opacity="1" transform="translate(0,100.5)"><line stroke="currentColor" x2="-6"></line><text fill="currentColor" x="-9" dy="0.32em">350</text></g><g class="tick" opacity="1" transform="translate(0,86.21428571428572)"><line stroke="currentColor" x2="-6"></line><text fill="currentColor" x="-9" dy="0.32em">400</text></g><g class="tick" opacity="1" transform="translate(0,71.92857142857142)"><line stroke="currentColor" x2="-6"></line><text fill="currentColor" x="-9" dy="0.32em">450</text></g><g class="tick" opacity="1" transform="translate(0,57.64285714285714)"><line stroke="currentColor" x2="-6"></line><text fill="currentColor" x="-9" dy="0.32em">500</text></g><g class="tick" opacity="1" transform="translate(0,43.35714285714286)"><line stroke="currentColor" x2="-6"></line><text fill="currentColor" x="-9" dy="0.32em">550</text></g><g class="tick" opacity="1" transform="translate(0,29.07142857142858)"><line stroke="currentColor" x2="-6"></line><text fill="currentColor" x="-9" dy="0.32em">600</text></g><g class="tick" opacity="1" transform="translate(0,14.78571428571428)"><line stroke="currentColor" x2="-6"></line><text fill="currentColor" x="-9" dy="0.32em">650</text></g><g class="tick" opacity="1" transform="translate(0,0.5)"><line stroke="currentColor" x2="-6"></line><text fill="currentColor" x="-9" dy="0.32em">700</text></g></g><text text-anchor="middle" style="font-size: 12px" transform="rotate(-90)" y="-40" x="-100">[jobs/s]</text><text text-anchor="middle" style="font-size: 16px" y="0" x="200">go throughput benchmark</text><path class="line" fill="none" stroke="#e41a1c" stroke-width="1.5" d="M0.898,145.229L40.872,159.433L80.899,147.905L120.889,157.999L160.834,154.424L200.94,147.246L240.933,144.365L280.847,148.38L320.906,145.113L360.876,146.675"></path><path class="line" fill="none" stroke="#377eb8" stroke-width="1.5" d="M0.911,105.429L40.88,113.494L80.894,103.74L120.86,117.875L160.834,110.589L200.937,123.05L240.962,105.891L280.901,141.667L320.889,98.316L360.856,93.576"></path><path class="line" fill="none" stroke="#4daf4a" stroke-width="1.5" d="M0.869,71.829L40.847,94.395L80.884,98.377L120.867,88.006L160.816,99.225L200.914,88.741L240.936,98.862L280.839,90.468L320.871,113.359L360.841,110.016"></path><rect class="dot" x="400" y="5" width="15" height="15" style="fill: #e41a1c;"></rect><rect class="dot" x="400" y="25" width="15" height="15" style="fill: #377eb8;"></rect><rect class="dot" x="400" y="45" width="15" height="15" style="fill: #4daf4a;"></rect><text class="label" x="418" y="12.5" style="fill: #e41a1c; alignment-baseline: middle;" text-anchor="left">1 worker</text><text class="label" x="418" y="32.5" style="fill: #377eb8; alignment-baseline: middle;" text-anchor="left">4 workers</text><text class="label" x="418" y="52.5" style="fill: #4daf4a; alignment-baseline: middle;" text-anchor="left">8 workers</text></g></svg>