<svg xmlns="http://www.w3.org/2000/svg" width="560" height="250"><rect width="100%" height="100%" fill="white"></rect><g transform="translate(60,20)"><g transform="translate(0,200)" fill="none" font-size="10" font-family="sans-serif" text-anchor="middle"><path class="domain" stroke="currentColor" d="M0.5,6V0.5H400.5V6"></path><g class="tick" opacity="1" transform="translate(0.5,0)"><line stroke="currentColor" y2="6"></line><text fill="currentColor" y="9" dy="0.71em">Mon 03</text></g><g class="tick" opacity="1" transform="translate(80.5,0)"><line stroke="currentColor" y2="6"></line><text fill="currentColor" y="9" dy="0.71em">Wed 05</text></g><g class="tick" opacity="1" transform="translate(160.5,0)"><line stroke="currentColor" y2="6"></line><text fill="currentColor" y="9" dy="0.71em">Fri 07</text></g><g class="tick" opacity="1" transform="translate(240.5,0)"><line stroke="currentColor" y2="6"></line><text fill="currentColor" y="9" dy="0.71em">Nov 09</text></g><g class="tick" opacity="1" transform="translate(320.5,0)"><line stroke="currentColor" y2="6"></line><text fill="currentColor" y="9" dy="0.71em">Tue 11</text></g><g class="tick" opacity="1" transform="translate(400.5,0)"><line stroke="currentColor" y2="6"></line><text fill="currentColor" y="9" dy="0.71em">Thu 13</text></g></g><g fill="none" font-size="10" font-family="sans-serif" text-anchor="end"><path class="domain" stroke="currentColor" d="M-6,200.5H0.5V0.5H-6"></path><g class="tick" opacity="1" transform="translate(0,200.5)"><line stroke="currentColor" x2="-6"></line><text fill="currentColor" x="-9" dy="0.32em">0</text></g><g class="tick" opacity="1" transform="translate(0,178.27777777777777)"><line stroke="currentColor" x2="-6"></line><text fill="currentColor" x="-9" dy="0.32em">100</text></g><g class="tick" opacity="1" transform="translate(0,156.05555555555557)"><line stroke="currentColor" x2="-6"></line><text fill="currentColor" x="-9" dy="0.32em">200</text></g><g class="tick" opacity="1" transform="translate(0,133.83333333333334)"><line stroke="currentColor" x2="-6"></line><text fill="currentColor" x="-9" dy="0.32em">300</text></g><g class="tick" opacity="1" transform="translate(0,111.61111111111111)"><line stroke="currentColor" x2="-6"></line><text fill="currentColor" x="-9" dy="0.32em">400</text></g><g class="tick" opacity="1" transform="translate(0,89.38888888888889)"><line stroke="currentColor" x2="-6"></line><text fill="currentColor" x="-9" dy="0.32em">500</text></g><g class="tick" opacity="1" transform="translate(0,67.16666666666667)"><line stroke="currentColor" x2="-6"></line><text fill="currentColor" x="-9" dy="0.32em">600</text></g><g class="tick" opacity="1" transform="translate(0,44.94444444444444)"><line stroke="currentColor" x2="-6"></line><text fill="currentColor" x="-9" dy="0.32em">700</text></g><g class="tick" opacity="1" transform="translate(0,22.722222222222232)"><line stroke="currentColor" x2="-6"></line><text fill="currentColor" x="-9" dy="0.32em">800</text></g><g class="tick" opacity="1" transform="translate(0,0.5)"><line stroke="currentColor" x2="-6"></line><text fill="currentColor" x="-9" dy="0.32em">900</text></g></g><text text-anchor="middle" style="font-size: 12px" transform="rotate(-90)" y="-40" x="-100">[jobs/s]</text><text text-anchor="middle" style="font-size: 16px" y="0" x="200">go throughput benchmark</text><path class="line" fill="none" stroke="#e41a1c" stroke-width="1.5" d="M1.014,161.912L40.922,155.029L80.928,171.65L120.928,160.409L160.934,171.008L200.889,163.781L241.03,170.768L281,163.76L320.99,166.047L360.974,166.553"></path><path class="line" fill="none" stroke="#377eb8" stroke-width="1.5" d="M1.003,144.062L40.934,134.829L80.999,135.873L120.939,115.899L161.024,162.563L200.879,99.576L241.042,136.857L280.996,115.66L320.982,116.823L360.971,141.149"></path><path class="line" fill="none" stroke="#4daf4a" stroke-width="1.5" d="M0.974,106.779L40.925,135.796L80.949,117.568L120.89,79.172L160.94,106.044L200.863,93.953L240.991,115.382L280.999,128.369L320.944,83.643L360.93,111.224"></path><rect class="dot" x="400" y="5" width="15" height="15" style="fill: #e41a1c;"></rect><rect class="dot" x="400" y="25" width="15" height="15" style="fill: #377eb8;"></rect><rect class="dot" x="400" y="45" width="15" height="15" style="fill: #4daf4a;"></rect><text class="label" x="418" y="12.5" style="fill: #e41a1c; alignment-baseline: middle;" text-anchor="left">1 worker</text><text class="label" x="418" y="32.5" style="fill: #377eb8; alignment-baseline: middle;" text-anchor="left">4 workers</text><text class="label" x="418" y="52.5" style="fill: #4daf4a; alignment-baseline: middle;" text-anchor="left">8 workers</text></g></svg>