<svg xmlns="http://www.w3.org/2000/svg" width="560" height="250"><rect width="100%" height="100%" fill="white"></rect><g transform="translate(60,20)"><g transform="translate(0,200)" fill="none" font-size="10" font-family="sans-serif" text-anchor="middle"><path class="domain" stroke="currentColor" d="M0.5,6V0.5H400.5V6"></path><g class="tick" opacity="1" transform="translate(0.5,0)"><line stroke="currentColor" y2="6"></line><text fill="currentColor" y="9" dy="0.71em">Sat 03</text></g><g class="tick" opacity="1" transform="translate(80.5,0)"><line stroke="currentColor" y2="6"></line><text fill="currentColor" y="9" dy="0.71em">Mon 05</text></g><g class="tick" opacity="1" transform="translate(160.5,0)"><line stroke="currentColor" y2="6"></line><text fill="currentColor" y="9" dy="0.71em">Wed 07</text></g><g class="tick" opacity="1" transform="translate(240.5,0)"><line stroke="currentColor" y2="6"></line><text fill="currentColor" y="9" dy="0.71em">Fri 09</text></g><g class="tick" opacity="1" transform="translate(320.5,0)"><line stroke="currentColor" y2="6"></line><text fill="currentColor" y="9" dy="0.71em">Feb 11</text></g><g class="tick" opacity="1" transform="translate(400.5,0)"><line stroke="currentColor" y2="6"></line><text fill="currentColor" y="9" dy="0.71em">Tue 13</text></g></g><g fill="none" font-size="10" font-family="sans-serif" text-anchor="end"><path class="domain" stroke="currentColor" d="M-6,200.5H0.5V0.5H-6"></path><g class="tick" opacity="1" transform="translate(0,200.5)"><line stroke="currentColor" x2="-6"></line><text fill="currentColor" x="-9" dy="0.32em">0</text></g><g class="tick" opacity="1" transform="translate(0,180.5)"><line stroke="currentColor" x2="-6"></line><text fill="currentColor" x="-9" dy="0.32em">10</text></g><g class="tick" opacity="1" transform="translate(0,160.5)"><line stroke="currentColor" x2="-6"></line><text fill="currentColor" x="-9" dy="0.32em">20</text></g><g class="tick" opacity="1" transform="translate(0,140.5)"><line stroke="currentColor" x2="-6"></line><text fill="currentColor" x="-9" dy="0.32em">30</text></g><g class="tick" opacity="1" transform="translate(0,120.5)"><line stroke="currentColor" x2="-6"></line><text fill="currentColor" x="-9" dy="0.32em">40</text></g><g class="tick" opacity="1" transform="translate(0,100.5)"><line stroke="currentColor" x2="-6"></line><text fill="currentColor" x="-9" dy="0.32em">50</text></g><g class="tick" opacity="1" transform="translate(0,80.5)"><line stroke="currentColor" x2="-6"></line><text fill="currentColor" x="-9" dy="0.32em">60</text></g><g class="tick" opacity="1" transform="translate(0,60.50000000000001)"><line stroke="currentColor" x2="-6"></line><text fill="currentColor" x="-9" dy="0.32em">70</text></g><g class="tick" opacity="1" transform="translate(0,40.49999999999999)"><line stroke="currentColor" x2="-6"></line><text fill="currentColor" x="-9" dy="0.32em">80</text></g><g class="tick" opacity="1" transform="translate(0,20.499999999999996)"><line stroke="currentColor" x2="-6"></line><text fill="currentColor" x="-9" dy="0.32em">90</text></g><g class="tick" opacity="1" transform="translate(0,0.5)"><line stroke="currentColor" x2="-6"></line><text fill="currentColor" x="-9" dy="0.32em">100</text></g></g><text text-anchor="middle" style="font-size: 12px" transform="rotate(-90)" y="-40" x="-100">[jobs/s]</text><text text-anchor="middle" style="font-size: 16px" y="0" x="200">go vs python vs deno vs bun vs bash</text><path class="line" fill="none" stroke="#e41a1c" stroke-width="1.5" d="M0.704,81.573L40.755,79.591L80.764,80.182L120.73,77.135L160.693,76.375L200.701,81.559L240.714,83L280.742,70.667L320.778,73.113L360.738,83.775"></path><path class="line" fill="none" stroke="#377eb8" stroke-width="1.5" d="M0.699,165.852L40.75,165.499L80.759,165.539L120.725,165.71L160.689,165.157L200.697,167.009L240.709,168.486L280.738,165.728L320.774,163.605L360.733,165.967"></path><path class="line" fill="none" stroke="#4daf4a" stroke-width="1.5" d="M0.668,173.213L40.719,172.389L80.728,173.524L120.694,173.699L160.66,172.657L200.666,174.403L240.678,174.996L280.708,171.133L320.745,173.574L360.703,174.12"></path><path class="line" fill="none" stroke="#984ea3" stroke-width="1.5" d="M0.685,171.872L40.736,171.366L80.745,171.759L120.711,171.696L160.675,167.83L200.682,169.909L240.694,169.084L280.724,168.348L320.761,169.176L360.719,169.363"></path><path class="line" fill="none" stroke="#ff7f00" stroke-width="1.5" d="M0.711,134.836L40.763,136.737L80.771,133.713L120.737,134.585L160.701,133.757L200.709,137.387L240.722,140.313L280.749,132.364L320.786,133.489L360.746,141.914"></path><rect class="dot" x="400" y="5" width="15" height="15" style="fill: #e41a1c;"></rect><rect class="dot" x="400" y="25" width="15" height="15" style="fill: #377eb8;"></rect><rect class="dot" x="400" y="45" width="15" height="15" style="fill: #4daf4a;"></rect><rect class="dot" x="400" y="65" width="15" height="15" style="fill: #984ea3;"></rect><rect class="dot" x="400" y="85" width="15" height="15" style="fill: #ff7f00;"></rect><text class="label" x="418" y="12.5" style="fill: #e41a1c; alignment-baseline: middle;" text-anchor="left">go</text><text class="label" x="418" y="32.5" style="fill: #377eb8; alignment-baseline: middle;" text-anchor="left">python</text><text class="label" x="418" y="52.5" style="fill: #4daf4a; alignment-baseline: middle;" text-anchor="left">deno</text><text class="label" x="418" y="72.5" style="fill: #984ea3; alignment-baseline: middle;" text-anchor="left">bun</text><text class="label" x="418" y="92.5" style="fill: #ff7f00; alignment-baseline: middle;" text-anchor="left">bash</text></g></svg>