<svg xmlns="http://www.w3.org/2000/svg" width="560" height="250"><rect width="100%" height="100%" fill="white"></rect><g transform="translate(60,20)"><g transform="translate(0,200)" fill="none" font-size="10" font-family="sans-serif" text-anchor="middle"><path class="domain" stroke="currentColor" d="M0.5,6V0.5H400.5V6"></path><g class="tick" opacity="1" transform="translate(40.5,0)"><line stroke="currentColor" y2="6"></line><text fill="currentColor" y="9" dy="0.71em">Mon 05</text></g><g class="tick" opacity="1" transform="translate(120.5,0)"><line stroke="currentColor" y2="6"></line><text fill="currentColor" y="9" dy="0.71em">Wed 07</text></g><g class="tick" opacity="1" transform="translate(200.5,0)"><line stroke="currentColor" y2="6"></line><text fill="currentColor" y="9" dy="0.71em">Fri 09</text></g><g class="tick" opacity="1" transform="translate(280.5,0)"><line stroke="currentColor" y2="6"></line><text fill="currentColor" y="9" dy="0.71em">May 11</text></g><g class="tick" opacity="1" transform="translate(360.5,0)"><line stroke="currentColor" y2="6"></line><text fill="currentColor" y="9" dy="0.71em">Tue 13</text></g></g><g fill="none" font-size="10" font-family="sans-serif" text-anchor="end"><path class="domain" stroke="currentColor" d="M-6,200.5H0.5V0.5H-6"></path><g class="tick" opacity="1" transform="translate(0,200.5)"><line stroke="currentColor" x2="-6"></line><text fill="currentColor" x="-9" dy="0.32em">0</text></g><g class="tick" opacity="1" transform="translate(0,187.16666666666666)"><line stroke="currentColor" x2="-6"></line><text fill="currentColor" x="-9" dy="0.32em">20</text></g><g class="tick" opacity="1" transform="translate(0,173.83333333333334)"><line stroke="currentColor" x2="-6"></line><text fill="currentColor" x="-9" dy="0.32em">40</text></g><g class="tick" opacity="1" transform="translate(0,160.5)"><line stroke="currentColor" x2="-6"></line><text fill="currentColor" x="-9" dy="0.32em">60</text></g><g class="tick" opacity="1" transform="translate(0,147.16666666666669)"><line stroke="currentColor" x2="-6"></line><text fill="currentColor" x="-9" dy="0.32em">80</text></g><g class="tick" opacity="1" transform="translate(0,133.83333333333334)"><line stroke="currentColor" x2="-6"></line><text fill="currentColor" x="-9" dy="0.32em">100</text></g><g class="tick" opacity="1" transform="translate(0,120.5)"><line stroke="currentColor" x2="-6"></line><text fill="currentColor" x="-9" dy="0.32em">120</text></g><g class="tick" opacity="1" transform="translate(0,107.16666666666667)"><line stroke="currentColor" x2="-6"></line><text fill="currentColor" x="-9" dy="0.32em">140</text></g><g class="tick" opacity="1" transform="translate(0,93.83333333333333)"><line stroke="currentColor" x2="-6"></line><text fill="currentColor" x="-9" dy="0.32em">160</text></g><g class="tick" opacity="1" transform="translate(0,80.5)"><line stroke="currentColor" x2="-6"></line><text fill="currentColor" x="-9" dy="0.32em">180</text></g><g class="tick" opacity="1" transform="translate(0,67.16666666666667)"><line stroke="currentColor" x2="-6"></line><text fill="currentColor" x="-9" dy="0.32em">200</text></g><g class="tick" opacity="1" transform="translate(0,53.83333333333334)"><line stroke="currentColor" x2="-6"></line><text fill="currentColor" x="-9" dy="0.32em">220</text></g><g class="tick" opacity="1" transform="translate(0,40.49999999999999)"><line stroke="currentColor" x2="-6"></line><text fill="currentColor" x="-9" dy="0.32em">240</text></g><g class="tick" opacity="1" transform="translate(0,27.16666666666666)"><line stroke="currentColor" x2="-6"></line><text fill="currentColor" x="-9" dy="0.32em">260</text></g><g class="tick" opacity="1" transform="translate(0,13.83333333333333)"><line stroke="currentColor" x2="-6"></line><text fill="currentColor" x="-9" dy="0.32em">280</text></g><g class="tick" opacity="1" transform="translate(0,0.5)"><line stroke="currentColor" x2="-6"></line><text fill="currentColor" x="-9" dy="0.32em">300</text></g></g><text text-anchor="middle" style="font-size: 12px" transform="rotate(-90)" y="-40" x="-100">[jobs/s]</text><text text-anchor="middle" style="font-size: 16px" y="0" x="200">go vs python vs deno vs bun vs bash vs nativets</text><path class="line" fill="none" stroke="#e41a1c" stroke-width="1.5" d="M1.152,160.138L41.086,163.635L81.031,158.441L121.077,159.696L160.963,131.356L201.044,160.328L240.899,111.577L280.977,88.676L320.958,74.557L361.031,163.078"></path><path class="line" fill="none" stroke="#377eb8" stroke-width="1.5" d="M1.135,189.519L41.067,191.057L81.014,190.078L121.06,189.398L160.953,183.406L201.026,190.948L240.891,181.126L280.971,176.488L320.952,176.87L361.012,191.197"></path><path class="line" fill="none" stroke="#4daf4a" stroke-width="1.5" d="M1.109,186.412L41.037,187.197L80.988,186.97L121.034,189.069L160.936,177.678L200.997,188.11L240.877,179.563L280.959,169.87L320.941,169.027L360.981,187.753"></path><path class="line" fill="none" stroke="#984ea3" stroke-width="1.5" d="M1.119,183.541L41.049,186.27L80.998,183.269L121.045,184.612L160.943,173.342L201.009,186.256L240.882,167.397L280.964,159.62L320.945,161.38L360.994,186.834"></path><path class="line" fill="none" stroke="#ff7f00" stroke-width="1.5" d="M1.174,169.521L41.106,167.024L81.049,162.608L121.096,163.485L160.973,134.192L201.065,167.886L240.906,111.6L280.987,134.068L320.965,94.331L361.051,165.575"></path><path class="line" fill="none" stroke="#ffff33" stroke-width="1.5" d="M1.198,174.385L41.129,172.282L81.077,177.678L121.115,168.591L160.984,145.292L201.095,179.89L240.916,134.95L280.996,128.668L320.973,125.19L361.074,173.682"></path><rect class="dot" x="400" y="5" width="15" height="15" style="fill: #e41a1c;"></rect><rect class="dot" x="400" y="25" width="15" height="15" style="fill: #377eb8;"></rect><rect class="dot" x="400" y="45" width="15" height="15" style="fill: #4daf4a;"></rect><rect class="dot" x="400" y="65" width="15" height="15" style="fill: #984ea3;"></rect><rect class="dot" x="400" y="85" width="15" height="15" style="fill: #ff7f00;"></rect><rect class="dot" x="400" y="105" width="15" height="15" style="fill: #ffff33;"></rect><text class="label" x="418" y="12.5" style="fill: #e41a1c; alignment-baseline: middle;" text-anchor="left">go</text><text class="label" x="418" y="32.5" style="fill: #377eb8; alignment-baseline: middle;" text-anchor="left">python</text><text class="label" x="418" y="52.5" style="fill: #4daf4a; alignment-baseline: middle;" text-anchor="left">deno</text><text class="label" x="418" y="72.5" style="fill: #984ea3; alignment-baseline: middle;" text-anchor="left">bun</text><text class="label" x="418" y="92.5" style="fill: #ff7f00; alignment-baseline: middle;" text-anchor="left">bash</text><text class="label" x="418" y="112.5" style="fill: #ffff33; alignment-baseline: middle;" text-anchor="left">nativets</text></g></svg>