<svg xmlns="http://www.w3.org/2000/svg" width="560" height="250"><rect width="100%" height="100%" fill="white"></rect><g transform="translate(60,20)"><g transform="translate(0,200)" fill="none" font-size="10" font-family="sans-serif" text-anchor="middle"><path class="domain" stroke="currentColor" d="M0.5,6V0.5H400.5V6"></path><g class="tick" opacity="1" transform="translate(52.11290322580645,0)"><line stroke="currentColor" y2="6"></line><text fill="currentColor" y="9" dy="0.71em">May 19</text></g><g class="tick" opacity="1" transform="translate(142.43548387096774,0)"><line stroke="currentColor" y2="6"></line><text fill="currentColor" y="9" dy="0.71em">May 26</text></g><g class="tick" opacity="1" transform="translate(232.75806451612905,0)"><line stroke="currentColor" y2="6"></line><text fill="currentColor" y="9" dy="0.71em">Jun 02</text></g><g class="tick" opacity="1" transform="translate(323.0806451612903,0)"><line stroke="currentColor" y2="6"></line><text fill="currentColor" y="9" dy="0.71em">Jun 09</text></g></g><g fill="none" font-size="10" font-family="sans-serif" text-anchor="end"><path class="domain" stroke="currentColor" d="M-6,200.5H0.5V0.5H-6"></path><g class="tick" opacity="1" transform="translate(0,200.5)"><line stroke="currentColor" x2="-6"></line><text fill="currentColor" x="-9" dy="0.32em">0</text></g><g class="tick" opacity="1" transform="translate(0,175.5)"><line stroke="currentColor" x2="-6"></line><text fill="currentColor" x="-9" dy="0.32em">50</text></g><g class="tick" opacity="1" transform="translate(0,150.5)"><line stroke="currentColor" x2="-6"></line><text fill="currentColor" x="-9" dy="0.32em">100</text></g><g class="tick" opacity="1" transform="translate(0,125.5)"><line stroke="currentColor" x2="-6"></line><text fill="currentColor" x="-9" dy="0.32em">150</text></g><g class="tick" opacity="1" transform="translate(0,100.5)"><line stroke="currentColor" x2="-6"></line><text fill="currentColor" x="-9" dy="0.32em">200</text></g><g class="tick" opacity="1" transform="translate(0,75.5)"><line stroke="currentColor" x2="-6"></line><text fill="currentColor" x="-9" dy="0.32em">250</text></g><g class="tick" opacity="1" transform="translate(0,50.5)"><line stroke="currentColor" x2="-6"></line><text fill="currentColor" x="-9" dy="0.32em">300</text></g><g class="tick" opacity="1" transform="translate(0,25.5)"><line stroke="currentColor" x2="-6"></line><text fill="currentColor" x="-9" dy="0.32em">350</text></g><g class="tick" opacity="1" transform="translate(0,0.5)"><line stroke="currentColor" x2="-6"></line><text fill="currentColor" x="-9" dy="0.32em">400</text></g></g><text text-anchor="middle" style="font-size: 12px" transform="rotate(-90)" y="-40" x="-100">[jobs/s]</text><text text-anchor="middle" style="font-size: 16px" y="0" x="200">go vs python vs deno vs bun vs bash vs nativets</text><path class="line" fill="none" stroke="#e41a1c" stroke-width="1.5" d="M51.863,86.955L64.75,80.682L77.652,94.292L90.552,87.006L103.462,113.457L129.258,96.061L383.597,169.009"></path><path class="line" fill="none" stroke="#377eb8" stroke-width="1.5" d="M13.131,186.751L26.033,187.428L38.944,186.786L51.861,190.191L64.749,190.317L77.65,188.161L90.55,188.809L103.46,188.418L129.256,188.554L383.592,191.973"></path><path class="line" fill="none" stroke="#4daf4a" stroke-width="1.5" d="M13.124,191.452L26.027,188.696L38.937,191.244L51.852,191.767L64.74,191.559L77.643,190.581L90.542,191.845L103.452,190.182L129.248,191.236L383.583,190.604"></path><path class="line" fill="none" stroke="#984ea3" stroke-width="1.5" d="M13.128,188.742L26.03,187.905L38.941,188.763L51.857,191.742L64.744,191.316L77.646,189.683L90.546,190.792L103.456,190.204L129.253,190.631L383.587,191.497"></path><path class="line" fill="none" stroke="#ff7f00" stroke-width="1.5" d="M13.136,143.452L26.039,149.882L38.948,140.519L51.866,141.606L64.753,136.861L77.654,138.662L90.555,141.968L103.466,158.052L129.261,143.687L383.602,167.528"></path><path class="line" fill="none" stroke="#ffff33" stroke-width="1.5" d="M13.143,176.969L26.046,179.777L38.955,178.334L51.875,183.45L64.761,182.161L77.663,181.83L90.562,179.37L103.476,185.605L129.269,182.218L383.609,177.863"></path><rect class="dot" x="400" y="5" width="15" height="15" style="fill: #e41a1c;"></rect><rect class="dot" x="400" y="25" width="15" height="15" style="fill: #377eb8;"></rect><rect class="dot" x="400" y="45" width="15" height="15" style="fill: #4daf4a;"></rect><rect class="dot" x="400" y="65" width="15" height="15" style="fill: #984ea3;"></rect><rect class="dot" x="400" y="85" width="15" height="15" style="fill: #ff7f00;"></rect><rect class="dot" x="400" y="105" width="15" height="15" style="fill: #ffff33;"></rect><text class="label" x="418" y="12.5" style="fill: #e41a1c; alignment-baseline: middle;" text-anchor="left">go</text><text class="label" x="418" y="32.5" style="fill: #377eb8; alignment-baseline: middle;" text-anchor="left">python</text><text class="label" x="418" y="52.5" style="fill: #4daf4a; alignment-baseline: middle;" text-anchor="left">deno</text><text class="label" x="418" y="72.5" style="fill: #984ea3; alignment-baseline: middle;" text-anchor="left">bun</text><text class="label" x="418" y="92.5" style="fill: #ff7f00; alignment-baseline: middle;" text-anchor="left">bash</text><text class="label" x="418" y="112.5" style="fill: #ffff33; alignment-baseline: middle;" text-anchor="left">nativets</text></g></svg>