<svg xmlns="http://www.w3.org/2000/svg" width="560" height="250"><rect width="100%" height="100%" fill="white"></rect><g transform="translate(60,20)"><g transform="translate(0,200)" fill="none" font-size="10" font-family="sans-serif" text-anchor="middle"><path class="domain" stroke="currentColor" d="M0.5,6V0.5H400.5V6"></path><g class="tick" opacity="1" transform="translate(0.5,0)"><line stroke="currentColor" y2="6"></line><text fill="currentColor" y="9" dy="0.71em">Oct 27</text></g><g class="tick" opacity="1" transform="translate(80.5,0)"><line stroke="currentColor" y2="6"></line><text fill="currentColor" y="9" dy="0.71em">Tue 29</text></g><g class="tick" opacity="1" transform="translate(160.5,0)"><line stroke="currentColor" y2="6"></line><text fill="currentColor" y="9" dy="0.71em">Thu 31</text></g><g class="tick" opacity="1" transform="translate(200.5,0)"><line stroke="currentColor" y2="6"></line><text fill="currentColor" y="9" dy="0.71em">November</text></g><g class="tick" opacity="1" transform="translate(280.5,0)"><line stroke="currentColor" y2="6"></line><text fill="currentColor" y="9" dy="0.71em">Nov 03</text></g><g class="tick" opacity="1" transform="translate(360.5,0)"><line stroke="currentColor" y2="6"></line><text fill="currentColor" y="9" dy="0.71em">Tue 05</text></g></g><g fill="none" font-size="10" font-family="sans-serif" text-anchor="end"><path class="domain" stroke="currentColor" d="M-6,200.5H0.5V0.5H-6"></path><g class="tick" opacity="1" transform="translate(0,200.5)"><line stroke="currentColor" x2="-6"></line><text fill="currentColor" x="-9" dy="0.32em">0</text></g><g class="tick" opacity="1" transform="translate(0,180.5)"><line stroke="currentColor" x2="-6"></line><text fill="currentColor" x="-9" dy="0.32em">20</text></g><g class="tick" opacity="1" transform="translate(0,160.5)"><line stroke="currentColor" x2="-6"></line><text fill="currentColor" x="-9" dy="0.32em">40</text></g><g class="tick" opacity="1" transform="translate(0,140.5)"><line stroke="currentColor" x2="-6"></line><text fill="currentColor" x="-9" dy="0.32em">60</text></g><g class="tick" opacity="1" transform="translate(0,120.5)"><line stroke="currentColor" x2="-6"></line><text fill="currentColor" x="-9" dy="0.32em">80</text></g><g class="tick" opacity="1" transform="translate(0,100.5)"><line stroke="currentColor" x2="-6"></line><text fill="currentColor" x="-9" dy="0.32em">100</text></g><g class="tick" opacity="1" transform="translate(0,80.5)"><line stroke="currentColor" x2="-6"></line><text fill="currentColor" x="-9" dy="0.32em">120</text></g><g class="tick" opacity="1" transform="translate(0,60.50000000000001)"><line stroke="currentColor" x2="-6"></line><text fill="currentColor" x="-9" dy="0.32em">140</text></g><g class="tick" opacity="1" transform="translate(0,40.49999999999999)"><line stroke="currentColor" x2="-6"></line><text fill="currentColor" x="-9" dy="0.32em">160</text></g><g class="tick" opacity="1" transform="translate(0,20.499999999999996)"><line stroke="currentColor" x2="-6"></line><text fill="currentColor" x="-9" dy="0.32em">180</text></g><g class="tick" opacity="1" transform="translate(0,0.5)"><line stroke="currentColor" x2="-6"></line><text fill="currentColor" x="-9" dy="0.32em">200</text></g></g><text text-anchor="middle" style="font-size: 12px" transform="rotate(-90)" y="-40" x="-100">[jobs/s]</text><text text-anchor="middle" style="font-size: 16px" y="0" x="200">go vs python vs deno vs bun vs bash vs nativets</text><path class="line" fill="none" stroke="#e41a1c" stroke-width="1.5" d="M0.928,71.292L40.924,86.286L80.882,68.386L120.899,105.15L160.874,77.81L200.998,120.417L240.858,102.936L281.044,129.438L320.919,117.526L360.893,125.819"></path><path class="line" fill="none" stroke="#377eb8" stroke-width="1.5" d="M0.919,173.118L40.915,180.002L80.874,177.215L120.888,178.844L160.865,175.674L200.985,176.609L240.848,176.883L281.029,178.877L320.907,176.039L360.879,180.495"></path><path class="line" fill="none" stroke="#4daf4a" stroke-width="1.5" d="M0.902,180.88L40.892,183.289L80.855,181.881L120.867,183.99L160.848,181.586L200.967,180.326L240.829,181.891L281.008,184.593L320.889,181.775L360.855,183.466"></path><path class="line" fill="none" stroke="#984ea3" stroke-width="1.5" d="M0.91,169.575L40.902,175.262L80.863,167.215L120.876,173.792L160.855,167.717L200.975,169.653L240.837,169.071L281.017,175.181L320.897,168.197L360.867,178.3"></path><path class="line" fill="none" stroke="#ff7f00" stroke-width="1.5" d="M0.939,112.675L40.936,111.151L80.894,115.938L120.913,125.253L160.886,117.81L201.01,116.29L240.871,119.543L281.056,116.402L320.932,118.17L360.912,149.356"></path><path class="line" fill="none" stroke="#ffff33" stroke-width="1.5" d="M0.958,151.37L40.957,157.047L80.915,155.346L120.936,160.686L160.909,158.324L201.033,159.665L240.894,160.527L281.083,165.186L320.955,159.69L360.939,165.243"></path><rect class="dot" x="400" y="5" width="15" height="15" style="fill: #e41a1c;"></rect><rect class="dot" x="400" y="25" width="15" height="15" style="fill: #377eb8;"></rect><rect class="dot" x="400" y="45" width="15" height="15" style="fill: #4daf4a;"></rect><rect class="dot" x="400" y="65" width="15" height="15" style="fill: #984ea3;"></rect><rect class="dot" x="400" y="85" width="15" height="15" style="fill: #ff7f00;"></rect><rect class="dot" x="400" y="105" width="15" height="15" style="fill: #ffff33;"></rect><text class="label" x="418" y="12.5" style="fill: #e41a1c; alignment-baseline: middle;" text-anchor="left">go</text><text class="label" x="418" y="32.5" style="fill: #377eb8; alignment-baseline: middle;" text-anchor="left">python</text><text class="label" x="418" y="52.5" style="fill: #4daf4a; alignment-baseline: middle;" text-anchor="left">deno</text><text class="label" x="418" y="72.5" style="fill: #984ea3; alignment-baseline: middle;" text-anchor="left">bun</text><text class="label" x="418" y="92.5" style="fill: #ff7f00; alignment-baseline: middle;" text-anchor="left">bash</text><text class="label" x="418" y="112.5" style="fill: #ffff33; alignment-baseline: middle;" text-anchor="left">nativets</text></g></svg>