<svg xmlns="http://www.w3.org/2000/svg" width="560" height="250"><rect width="100%" height="100%" fill="white"></rect><g transform="translate(60,20)"><g transform="translate(0,200)" fill="none" font-size="10" font-family="sans-serif" text-anchor="middle"><path class="domain" stroke="currentColor" d="M0.5,6V0.5H400.5V6"></path><g class="tick" opacity="1" transform="translate(40.5,0)"><line stroke="currentColor" y2="6"></line><text fill="currentColor" y="9" dy="0.71em">Tue 07</text></g><g class="tick" opacity="1" transform="translate(120.5,0)"><line stroke="currentColor" y2="6"></line><text fill="currentColor" y="9" dy="0.71em">Thu 09</text></g><g class="tick" opacity="1" transform="translate(200.5,0)"><line stroke="currentColor" y2="6"></line><text fill="currentColor" y="9" dy="0.71em">Sat 11</text></g><g class="tick" opacity="1" transform="translate(280.5,0)"><line stroke="currentColor" y2="6"></line><text fill="currentColor" y="9" dy="0.71em">Mon 13</text></g><g class="tick" opacity="1" transform="translate(360.5,0)"><line stroke="currentColor" y2="6"></line><text fill="currentColor" y="9" dy="0.71em">Wed 15</text></g></g><g fill="none" font-size="10" font-family="sans-serif" text-anchor="end"><path class="domain" stroke="currentColor" d="M-6,200.5H0.5V0.5H-6"></path><g class="tick" opacity="1" transform="translate(0,200.5)"><line stroke="currentColor" x2="-6"></line><text fill="currentColor" x="-9" dy="0.32em">0</text></g><g class="tick" opacity="1" transform="translate(0,171.92857142857144)"><line stroke="currentColor" x2="-6"></line><text fill="currentColor" x="-9" dy="0.32em">50</text></g><g class="tick" opacity="1" transform="translate(0,143.35714285714286)"><line stroke="currentColor" x2="-6"></line><text fill="currentColor" x="-9" dy="0.32em">100</text></g><g class="tick" opacity="1" transform="translate(0,114.78571428571428)"><line stroke="currentColor" x2="-6"></line><text fill="currentColor" x="-9" dy="0.32em">150</text></g><g class="tick" opacity="1" transform="translate(0,86.21428571428572)"><line stroke="currentColor" x2="-6"></line><text fill="currentColor" x="-9" dy="0.32em">200</text></g><g class="tick" opacity="1" transform="translate(0,57.64285714285714)"><line stroke="currentColor" x2="-6"></line><text fill="currentColor" x="-9" dy="0.32em">250</text></g><g class="tick" opacity="1" transform="translate(0,29.07142857142858)"><line stroke="currentColor" x2="-6"></line><text fill="currentColor" x="-9" dy="0.32em">300</text></g><g class="tick" opacity="1" transform="translate(0,0.5)"><line stroke="currentColor" x2="-6"></line><text fill="currentColor" x="-9" dy="0.32em">350</text></g></g><text text-anchor="middle" style="font-size: 12px" transform="rotate(-90)" y="-40" x="-100">[jobs/s]</text><text text-anchor="middle" style="font-size: 16px" y="0" x="200">go vs python vs deno vs bun vs bash vs nativets</text><path class="line" fill="none" stroke="#e41a1c" stroke-width="1.5" d="M0.8,134.273L40.785,137.908L80.72,136.789L120.748,157.617L160.763,144.744L200.763,133.528L240.817,139.897L280.809,133.123L320.777,155.71L360.707,73.044"></path><path class="line" fill="none" stroke="#377eb8" stroke-width="1.5" d="M0.79,190.27L40.775,190.638L80.71,190.242L120.734,190.329L160.752,190.731L200.753,193.672L240.806,191.599L280.8,189.893L320.764,192.325L360.702,186.802"></path><path class="line" fill="none" stroke="#4daf4a" stroke-width="1.5" d="M0.759,191.443L40.744,191.508L80.679,192.121L120.704,191.795L160.721,191.737L200.712,191.378L240.774,191.16L280.771,190.804L320.728,192.381L360.68,188.796"></path><path class="line" fill="none" stroke="#984ea3" stroke-width="1.5" d="M0.776,191.525L40.76,191.483L80.695,191.551L120.719,190.928L160.736,190.991L200.731,192.941L240.79,191.246L280.786,190.597L320.746,192.155L360.692,188.31"></path><path class="line" fill="none" stroke="#ff7f00" stroke-width="1.5" d="M0.812,152.146L40.798,155.586L80.733,157.48L120.761,156.142L160.776,157.235L200.777,159.551L240.84,176.155L280.823,158.61L320.796,169.941L360.717,137.593"></path><path class="line" fill="none" stroke="#ffff33" stroke-width="1.5" d="M0.834,175.713L40.82,176.37L80.755,175.923L120.783,175.256L160.8,177.361L200.799,175.667L240.863,176.327L280.844,174.428L320.83,184.324L360.738,175.437"></path><rect class="dot" x="400" y="5" width="15" height="15" style="fill: #e41a1c;"></rect><rect class="dot" x="400" y="25" width="15" height="15" style="fill: #377eb8;"></rect><rect class="dot" x="400" y="45" width="15" height="15" style="fill: #4daf4a;"></rect><rect class="dot" x="400" y="65" width="15" height="15" style="fill: #984ea3;"></rect><rect class="dot" x="400" y="85" width="15" height="15" style="fill: #ff7f00;"></rect><rect class="dot" x="400" y="105" width="15" height="15" style="fill: #ffff33;"></rect><text class="label" x="418" y="12.5" style="fill: #e41a1c; alignment-baseline: middle;" text-anchor="left">go</text><text class="label" x="418" y="32.5" style="fill: #377eb8; alignment-baseline: middle;" text-anchor="left">python</text><text class="label" x="418" y="52.5" style="fill: #4daf4a; alignment-baseline: middle;" text-anchor="left">deno</text><text class="label" x="418" y="72.5" style="fill: #984ea3; alignment-baseline: middle;" text-anchor="left">bun</text><text class="label" x="418" y="92.5" style="fill: #ff7f00; alignment-baseline: middle;" text-anchor="left">bash</text><text class="label" x="418" y="112.5" style="fill: #ffff33; alignment-baseline: middle;" text-anchor="left">nativets</text></g></svg>