<svg xmlns="http://www.w3.org/2000/svg" width="560" height="250"><rect width="100%" height="100%" fill="white"></rect><g transform="translate(60,20)"><g transform="translate(0,200)" fill="none" font-size="10" font-family="sans-serif" text-anchor="middle"><path class="domain" stroke="currentColor" d="M0.5,6V0.5H400.5V6"></path><g class="tick" opacity="1" transform="translate(0.5,0)"><line stroke="currentColor" y2="6"></line><text fill="currentColor" y="9" dy="0.71em">December</text></g><g class="tick" opacity="1" transform="translate(62.03846153846154,0)"><line stroke="currentColor" y2="6"></line><text fill="currentColor" y="9" dy="0.71em">Dec 03</text></g><g class="tick" opacity="1" transform="translate(123.57692307692308,0)"><line stroke="currentColor" y2="6"></line><text fill="currentColor" y="9" dy="0.71em">Tue 05</text></g><g class="tick" opacity="1" transform="translate(185.1153846153846,0)"><line stroke="currentColor" y2="6"></line><text fill="currentColor" y="9" dy="0.71em">Thu 07</text></g><g class="tick" opacity="1" transform="translate(246.65384615384616,0)"><line stroke="currentColor" y2="6"></line><text fill="currentColor" y="9" dy="0.71em">Sat 09</text></g><g class="tick" opacity="1" transform="translate(308.19230769230774,0)"><line stroke="currentColor" y2="6"></line><text fill="currentColor" y="9" dy="0.71em">Mon 11</text></g><g class="tick" opacity="1" transform="translate(369.7307692307692,0)"><line stroke="currentColor" y2="6"></line><text fill="currentColor" y="9" dy="0.71em">Wed 13</text></g></g><g fill="none" font-size="10" font-family="sans-serif" text-anchor="end"><path class="domain" stroke="currentColor" d="M-6,200.5H0.5V0.5H-6"></path><g class="tick" opacity="1" transform="translate(0,200.5)"><line stroke="currentColor" x2="-6"></line><text fill="currentColor" x="-9" dy="0.32em">0</text></g><g class="tick" opacity="1" transform="translate(0,180.5)"><line stroke="currentColor" x2="-6"></line><text fill="currentColor" x="-9" dy="0.32em">10</text></g><g class="tick" opacity="1" transform="translate(0,160.5)"><line stroke="currentColor" x2="-6"></line><text fill="currentColor" x="-9" dy="0.32em">20</text></g><g class="tick" opacity="1" transform="translate(0,140.5)"><line stroke="currentColor" x2="-6"></line><text fill="currentColor" x="-9" dy="0.32em">30</text></g><g class="tick" opacity="1" transform="translate(0,120.5)"><line stroke="currentColor" x2="-6"></line><text fill="currentColor" x="-9" dy="0.32em">40</text></g><g class="tick" opacity="1" transform="translate(0,100.5)"><line stroke="currentColor" x2="-6"></line><text fill="currentColor" x="-9" dy="0.32em">50</text></g><g class="tick" opacity="1" transform="translate(0,80.5)"><line stroke="currentColor" x2="-6"></line><text fill="currentColor" x="-9" dy="0.32em">60</text></g><g class="tick" opacity="1" transform="translate(0,60.50000000000001)"><line stroke="currentColor" x2="-6"></line><text fill="currentColor" x="-9" dy="0.32em">70</text></g><g class="tick" opacity="1" transform="translate(0,40.49999999999999)"><line stroke="currentColor" x2="-6"></line><text fill="currentColor" x="-9" dy="0.32em">80</text></g><g class="tick" opacity="1" transform="translate(0,20.499999999999996)"><line stroke="currentColor" x2="-6"></line><text fill="currentColor" x="-9" dy="0.32em">90</text></g><g class="tick" opacity="1" transform="translate(0,0.5)"><line stroke="currentColor" x2="-6"></line><text fill="currentColor" x="-9" dy="0.32em">100</text></g></g><text text-anchor="middle" style="font-size: 12px" transform="rotate(-90)" y="-40" x="-100">[jobs/s]</text><text text-anchor="middle" style="font-size: 16px" y="0" x="200">go vs python vs deno vs bun vs bash</text><path class="line" fill="none" stroke="#e41a1c" stroke-width="1.5" d="M0.57,80.268L62.102,83.775L92.844,79.504L123.608,79.358L185.137,80.654L215.918,80.139L246.693,83.137L277.503,79.475L308.252,82.242L369.754,81.587"></path><path class="line" fill="none" stroke="#377eb8" stroke-width="1.5" d="M0.567,165.305L62.099,165.771L92.841,166.018L123.604,165.134L185.134,166.193L215.914,166.5L246.69,166.368L277.5,163.801L308.248,166.507L369.751,166.157"></path><path class="line" fill="none" stroke="#4daf4a" stroke-width="1.5" d="M0.543,173.354L62.075,174.135L92.817,174.302L123.58,173.517L185.109,174.223L215.89,174.262L246.666,174.125L277.476,174.46L308.224,174.606L369.727,173.362"></path><path class="line" fill="none" stroke="#984ea3" stroke-width="1.5" d="M0.556,170.722L62.088,171.367L92.83,171.315L123.593,171.116L185.123,171.601L215.903,171.806L246.679,171.235L277.489,171.644L308.237,171.479L369.74,171.632"></path><path class="line" fill="none" stroke="#ff7f00" stroke-width="1.5" d="M0.576,133.338L62.108,134.426L92.85,133.928L123.613,134.198L185.143,133.81L215.923,134.198L246.699,134.658L277.509,134.469L308.257,133.98L369.76,133.784"></path><rect class="dot" x="400" y="5" width="15" height="15" style="fill: #e41a1c;"></rect><rect class="dot" x="400" y="25" width="15" height="15" style="fill: #377eb8;"></rect><rect class="dot" x="400" y="45" width="15" height="15" style="fill: #4daf4a;"></rect><rect class="dot" x="400" y="65" width="15" height="15" style="fill: #984ea3;"></rect><rect class="dot" x="400" y="85" width="15" height="15" style="fill: #ff7f00;"></rect><text class="label" x="418" y="12.5" style="fill: #e41a1c; alignment-baseline: middle;" text-anchor="left">go</text><text class="label" x="418" y="32.5" style="fill: #377eb8; alignment-baseline: middle;" text-anchor="left">python</text><text class="label" x="418" y="52.5" style="fill: #4daf4a; alignment-baseline: middle;" text-anchor="left">deno</text><text class="label" x="418" y="72.5" style="fill: #984ea3; alignment-baseline: middle;" text-anchor="left">bun</text><text class="label" x="418" y="92.5" style="fill: #ff7f00; alignment-baseline: middle;" text-anchor="left">bash</text></g></svg>