<svg xmlns="http://www.w3.org/2000/svg" width="560" height="250"><rect width="100%" height="100%" fill="white"></rect><g transform="translate(60,20)"><g transform="translate(0,200)" fill="none" font-size="10" font-family="sans-serif" text-anchor="middle"><path class="domain" stroke="currentColor" d="M0.5,6V0.5H400.5V6"></path><g class="tick" opacity="1" transform="translate(36.86363636363637,0)"><line stroke="currentColor" y2="6"></line><text fill="currentColor" y="9" dy="0.71em">Tue 23</text></g><g class="tick" opacity="1" transform="translate(109.59090909090908,0)"><line stroke="currentColor" y2="6"></line><text fill="currentColor" y="9" dy="0.71em">Thu 25</text></g><g class="tick" opacity="1" transform="translate(182.3181818181818,0)"><line stroke="currentColor" y2="6"></line><text fill="currentColor" y="9" dy="0.71em">Sat 27</text></g><g class="tick" opacity="1" transform="translate(255.04545454545453,0)"><line stroke="currentColor" y2="6"></line><text fill="currentColor" y="9" dy="0.71em">Mon 29</text></g><g class="tick" opacity="1" transform="translate(327.7727272727273,0)"><line stroke="currentColor" y2="6"></line><text fill="currentColor" y="9" dy="0.71em">October</text></g><g class="tick" opacity="1" transform="translate(400.5,0)"><line stroke="currentColor" y2="6"></line><text fill="currentColor" y="9" dy="0.71em">Fri 03</text></g></g><g fill="none" font-size="10" font-family="sans-serif" text-anchor="end"><path class="domain" stroke="currentColor" d="M-6,200.5H0.5V0.5H-6"></path><g class="tick" opacity="1" transform="translate(0,200.5)"><line stroke="currentColor" x2="-6"></line><text fill="currentColor" x="-9" dy="0.32em">0</text></g><g class="tick" opacity="1" transform="translate(0,183.83333333333331)"><line stroke="currentColor" x2="-6"></line><text fill="currentColor" x="-9" dy="0.32em">50</text></g><g class="tick" opacity="1" transform="translate(0,167.16666666666669)"><line stroke="currentColor" x2="-6"></line><text fill="currentColor" x="-9" dy="0.32em">100</text></g><g class="tick" opacity="1" transform="translate(0,150.5)"><line stroke="currentColor" x2="-6"></line><text fill="currentColor" x="-9" dy="0.32em">150</text></g><g class="tick" opacity="1" transform="translate(0,133.83333333333334)"><line stroke="currentColor" x2="-6"></line><text fill="currentColor" x="-9" dy="0.32em">200</text></g><g class="tick" opacity="1" transform="translate(0,117.16666666666666)"><line stroke="currentColor" x2="-6"></line><text fill="currentColor" x="-9" dy="0.32em">250</text></g><g class="tick" opacity="1" transform="translate(0,100.5)"><line stroke="currentColor" x2="-6"></line><text fill="currentColor" x="-9" dy="0.32em">300</text></g><g class="tick" opacity="1" transform="translate(0,83.83333333333333)"><line stroke="currentColor" x2="-6"></line><text fill="currentColor" x="-9" dy="0.32em">350</text></g><g class="tick" opacity="1" transform="translate(0,67.16666666666667)"><line stroke="currentColor" x2="-6"></line><text fill="currentColor" x="-9" dy="0.32em">400</text></g><g class="tick" opacity="1" transform="translate(0,50.5)"><line stroke="currentColor" x2="-6"></line><text fill="currentColor" x="-9" dy="0.32em">450</text></g><g class="tick" opacity="1" transform="translate(0,33.83333333333333)"><line stroke="currentColor" x2="-6"></line><text fill="currentColor" x="-9" dy="0.32em">500</text></g><g class="tick" opacity="1" transform="translate(0,17.166666666666675)"><line stroke="currentColor" x2="-6"></line><text fill="currentColor" x="-9" dy="0.32em">550</text></g><g class="tick" opacity="1" transform="translate(0,0.5)"><line stroke="currentColor" x2="-6"></line><text fill="currentColor" x="-9" dy="0.32em">600</text></g></g><text text-anchor="middle" style="font-size: 12px" transform="rotate(-90)" y="-40" x="-100">[jobs/s]</text><text text-anchor="middle" style="font-size: 16px" y="0" x="200">nativets throughput benchmark</text><path class="line" fill="none" stroke="#e41a1c" stroke-width="1.5" d="M0.898,166.89L37.186,165.454L73.579,166.161L146.272,166.19L182.635,170.929L219.086,163.642L255.406,164.71L291.749,165.169L328.192,163.552L364.421,169.319"></path><path class="line" fill="none" stroke="#377eb8" stroke-width="1.5" d="M0.904,107.694L37.216,116.569L73.614,138.662L146.303,134.385L182.666,126.718L219.106,102.743L255.426,112.759L291.751,104.182L328.18,80.747L364.452,104.173"></path><path class="line" fill="none" stroke="#4daf4a" stroke-width="1.5" d="M0.893,97.99L37.153,69.639L73.557,84.925L146.258,85.203L182.643,119.251L219.083,97.886L255.385,76.855L291.736,82.353L328.195,77.391L364.428,78.56"></path><rect class="dot" x="400" y="5" width="15" height="15" style="fill: #e41a1c;"></rect><rect class="dot" x="400" y="25" width="15" height="15" style="fill: #377eb8;"></rect><rect class="dot" x="400" y="45" width="15" height="15" style="fill: #4daf4a;"></rect><text class="label" x="418" y="12.5" style="fill: #e41a1c; alignment-baseline: middle;" text-anchor="left">1 worker</text><text class="label" x="418" y="32.5" style="fill: #377eb8; alignment-baseline: middle;" text-anchor="left">4 workers</text><text class="label" x="418" y="52.5" style="fill: #4daf4a; alignment-baseline: middle;" text-anchor="left">8 workers</text></g></svg>