<svg xmlns="http://www.w3.org/2000/svg" width="560" height="250"><rect width="100%" height="100%" fill="white"></rect><g transform="translate(60,20)"><g transform="translate(0,200)" fill="none" font-size="10" font-family="sans-serif" text-anchor="middle"><path class="domain" stroke="currentColor" d="M0.5,6V0.5H400.5V6"></path><g class="tick" opacity="1" transform="translate(40.5,0)"><line stroke="currentColor" y2="6"></line><text fill="currentColor" y="9" dy="0.71em">Thu 09</text></g><g class="tick" opacity="1" transform="translate(120.5,0)"><line stroke="currentColor" y2="6"></line><text fill="currentColor" y="9" dy="0.71em">Sat 11</text></g><g class="tick" opacity="1" transform="translate(200.5,0)"><line stroke="currentColor" y2="6"></line><text fill="currentColor" y="9" dy="0.71em">Mon 13</text></g><g class="tick" opacity="1" transform="translate(280.5,0)"><line stroke="currentColor" y2="6"></line><text fill="currentColor" y="9" dy="0.71em">Wed 15</text></g><g class="tick" opacity="1" transform="translate(360.5,0)"><line stroke="currentColor" y2="6"></line><text fill="currentColor" y="9" dy="0.71em">Fri 17</text></g></g><g fill="none" font-size="10" font-family="sans-serif" text-anchor="end"><path class="domain" stroke="currentColor" d="M-6,200.5H0.5V0.5H-6"></path><g class="tick" opacity="1" transform="translate(0,200.5)"><line stroke="currentColor" x2="-6"></line><text fill="currentColor" x="-9" dy="0.32em">0</text></g><g class="tick" opacity="1" transform="translate(0,186.21428571428572)"><line stroke="currentColor" x2="-6"></line><text fill="currentColor" x="-9" dy="0.32em">500</text></g><g class="tick" opacity="1" transform="translate(0,171.92857142857144)"><line stroke="currentColor" x2="-6"></line><text fill="currentColor" x="-9" dy="0.32em">1,000</text></g><g class="tick" opacity="1" transform="translate(0,157.64285714285714)"><line stroke="currentColor" x2="-6"></line><text fill="currentColor" x="-9" dy="0.32em">1,500</text></g><g class="tick" opacity="1" transform="translate(0,143.35714285714286)"><line stroke="currentColor" x2="-6"></line><text fill="currentColor" x="-9" dy="0.32em">2,000</text></g><g class="tick" opacity="1" transform="translate(0,129.07142857142856)"><line stroke="currentColor" x2="-6"></line><text fill="currentColor" x="-9" dy="0.32em">2,500</text></g><g class="tick" opacity="1" transform="translate(0,114.78571428571428)"><line stroke="currentColor" x2="-6"></line><text fill="currentColor" x="-9" dy="0.32em">3,000</text></g><g class="tick" opacity="1" transform="translate(0,100.5)"><line stroke="currentColor" x2="-6"></line><text fill="currentColor" x="-9" dy="0.32em">3,500</text></g><g class="tick" opacity="1" transform="translate(0,86.21428571428572)"><line stroke="currentColor" x2="-6"></line><text fill="currentColor" x="-9" dy="0.32em">4,000</text></g><g class="tick" opacity="1" transform="translate(0,71.92857142857142)"><line stroke="currentColor" x2="-6"></line><text fill="currentColor" x="-9" dy="0.32em">4,500</text></g><g class="tick" opacity="1" transform="translate(0,57.64285714285714)"><line stroke="currentColor" x2="-6"></line><text fill="currentColor" x="-9" dy="0.32em">5,000</text></g><g class="tick" opacity="1" transform="translate(0,43.35714285714286)"><line stroke="currentColor" x2="-6"></line><text fill="currentColor" x="-9" dy="0.32em">5,500</text></g><g class="tick" opacity="1" transform="translate(0,29.07142857142858)"><line stroke="currentColor" x2="-6"></line><text fill="currentColor" x="-9" dy="0.32em">6,000</text></g><g class="tick" opacity="1" transform="translate(0,14.78571428571428)"><line stroke="currentColor" x2="-6"></line><text fill="currentColor" x="-9" dy="0.32em">6,500</text></g><g class="tick" opacity="1" transform="translate(0,0.5)"><line stroke="currentColor" x2="-6"></line><text fill="currentColor" x="-9" dy="0.32em">7,000</text></g></g><text text-anchor="middle" style="font-size: 12px" transform="rotate(-90)" y="-40" x="-100">[jobs/s]</text><text text-anchor="middle" style="font-size: 16px" y="0" x="200">noop throughput benchmark</text><path class="line" fill="none" stroke="#e41a1c" stroke-width="1.5" d="M1.378,173.564L41.168,171.695L81.359,165.316L121.31,169.556L161.469,169.682L201.469,161.203L241.503,169.594L281.495,169.556L321.522,162.54L361.484,169.86"></path><path class="line" fill="none" stroke="#377eb8" stroke-width="1.5" d="M1.352,116.879L41.159,129.727L81.342,129.415L121.309,131.41L161.455,119.126L201.477,125.341L241.499,129.936L281.493,126.349L321.535,128.474L361.489,137.295"></path><path class="line" fill="none" stroke="#4daf4a" stroke-width="1.5" d="M1.343,87.576L41.136,79.519L81.331,90.344L121.281,80.41L161.444,93.559L201.459,77.282L241.475,74.681L281.474,92.875L321.511,97.059L361.459,98.515"></path><rect class="dot" x="400" y="5" width="15" height="15" style="fill: #e41a1c;"></rect><rect class="dot" x="400" y="25" width="15" height="15" style="fill: #377eb8;"></rect><rect class="dot" x="400" y="45" width="15" height="15" style="fill: #4daf4a;"></rect><text class="label" x="418" y="12.5" style="fill: #e41a1c; alignment-baseline: middle;" text-anchor="left">1 worker</text><text class="label" x="418" y="32.5" style="fill: #377eb8; alignment-baseline: middle;" text-anchor="left">4 workers</text><text class="label" x="418" y="52.5" style="fill: #4daf4a; alignment-baseline: middle;" text-anchor="left">8 workers</text></g></svg>