<svg xmlns="http://www.w3.org/2000/svg" width="560" height="250"><rect width="100%" height="100%" fill="white"></rect><g transform="translate(60,20)"><g transform="translate(0,200)" fill="none" font-size="10" font-family="sans-serif" text-anchor="middle"><path class="domain" stroke="currentColor" d="M0.5,6V0.5H400.5V6"></path><g class="tick" opacity="1" transform="translate(0.5,0)"><line stroke="currentColor" y2="6"></line><text fill="currentColor" y="9" dy="0.71em">Tue 13</text></g><g class="tick" opacity="1" transform="translate(80.5,0)"><line stroke="currentColor" y2="6"></line><text fill="currentColor" y="9" dy="0.71em">Thu 15</text></g><g class="tick" opacity="1" transform="translate(160.5,0)"><line stroke="currentColor" y2="6"></line><text fill="currentColor" y="9" dy="0.71em">Sat 17</text></g><g class="tick" opacity="1" transform="translate(240.5,0)"><line stroke="currentColor" y2="6"></line><text fill="currentColor" y="9" dy="0.71em">Mon 19</text></g><g class="tick" opacity="1" transform="translate(320.5,0)"><line stroke="currentColor" y2="6"></line><text fill="currentColor" y="9" dy="0.71em">Wed 21</text></g><g class="tick" opacity="1" transform="translate(400.5,0)"><line stroke="currentColor" y2="6"></line><text fill="currentColor" y="9" dy="0.71em">Fri 23</text></g></g><g fill="none" font-size="10" font-family="sans-serif" text-anchor="end"><path class="domain" stroke="currentColor" d="M-6,200.5H0.5V0.5H-6"></path><g class="tick" opacity="1" transform="translate(0,200.5)"><line stroke="currentColor" x2="-6"></line><text fill="currentColor" x="-9" dy="0.32em">0</text></g><g class="tick" opacity="1" transform="translate(0,183.83333333333331)"><line stroke="currentColor" x2="-6"></line><text fill="currentColor" x="-9" dy="0.32em">500</text></g><g class="tick" opacity="1" transform="translate(0,167.16666666666669)"><line stroke="currentColor" x2="-6"></line><text fill="currentColor" x="-9" dy="0.32em">1,000</text></g><g class="tick" opacity="1" transform="translate(0,150.5)"><line stroke="currentColor" x2="-6"></line><text fill="currentColor" x="-9" dy="0.32em">1,500</text></g><g class="tick" opacity="1" transform="translate(0,133.83333333333334)"><line stroke="currentColor" x2="-6"></line><text fill="currentColor" x="-9" dy="0.32em">2,000</text></g><g class="tick" opacity="1" transform="translate(0,117.16666666666666)"><line stroke="currentColor" x2="-6"></line><text fill="currentColor" x="-9" dy="0.32em">2,500</text></g><g class="tick" opacity="1" transform="translate(0,100.5)"><line stroke="currentColor" x2="-6"></line><text fill="currentColor" x="-9" dy="0.32em">3,000</text></g><g class="tick" opacity="1" transform="translate(0,83.83333333333333)"><line stroke="currentColor" x2="-6"></line><text fill="currentColor" x="-9" dy="0.32em">3,500</text></g><g class="tick" opacity="1" transform="translate(0,67.16666666666667)"><line stroke="currentColor" x2="-6"></line><text fill="currentColor" x="-9" dy="0.32em">4,000</text></g><g class="tick" opacity="1" transform="translate(0,50.5)"><line stroke="currentColor" x2="-6"></line><text fill="currentColor" x="-9" dy="0.32em">4,500</text></g><g class="tick" opacity="1" transform="translate(0,33.83333333333333)"><line stroke="currentColor" x2="-6"></line><text fill="currentColor" x="-9" dy="0.32em">5,000</text></g><g class="tick" opacity="1" transform="translate(0,17.166666666666675)"><line stroke="currentColor" x2="-6"></line><text fill="currentColor" x="-9" dy="0.32em">5,500</text></g><g class="tick" opacity="1" transform="translate(0,0.5)"><line stroke="currentColor" x2="-6"></line><text fill="currentColor" x="-9" dy="0.32em">6,000</text></g></g><text text-anchor="middle" style="font-size: 12px" transform="rotate(-90)" y="-40" x="-100">[jobs/s]</text><text text-anchor="middle" style="font-size: 16px" y="0" x="200">noop throughput benchmark</text><path class="line" fill="none" stroke="#e41a1c" stroke-width="1.5" d="M0.92,162.933L41.038,166.368L80.933,160.862L121.024,163.787L160.979,171.492L201.096,161.11L241.074,162.727L280.979,160.227L321.017,149.082L361.054,165.385"></path><path class="line" fill="none" stroke="#377eb8" stroke-width="1.5" d="M0.912,132.879L41.029,106.246L80.939,121.391L121.019,113.536L160.969,119.041L201.091,108.679L241.091,134.114L280.978,110.312L321.02,99.971L361.048,113.901"></path><path class="line" fill="none" stroke="#4daf4a" stroke-width="1.5" d="M0.884,85.11L41.015,86.587L80.929,69.505L120.998,69.032L160.944,70.803L201.079,73.833L241.052,67.431L280.977,100.623L321.012,75.339L361.027,67.011"></path><rect class="dot" x="400" y="5" width="15" height="15" style="fill: #e41a1c;"></rect><rect class="dot" x="400" y="25" width="15" height="15" style="fill: #377eb8;"></rect><rect class="dot" x="400" y="45" width="15" height="15" style="fill: #4daf4a;"></rect><text class="label" x="418" y="12.5" style="fill: #e41a1c; alignment-baseline: middle;" text-anchor="left">1 worker</text><text class="label" x="418" y="32.5" style="fill: #377eb8; alignment-baseline: middle;" text-anchor="left">4 workers</text><text class="label" x="418" y="52.5" style="fill: #4daf4a; alignment-baseline: middle;" text-anchor="left">8 workers</text></g></svg>