<svg xmlns="http://www.w3.org/2000/svg" width="560" height="250"><rect width="100%" height="100%" fill="white"></rect><g transform="translate(60,20)"><g transform="translate(0,200)" fill="none" font-size="10" font-family="sans-serif" text-anchor="middle"><path class="domain" stroke="currentColor" d="M0.5,6V0.5H400.5V6"></path><g class="tick" opacity="1" transform="translate(40.5,0)"><line stroke="currentColor" y2="6"></line><text fill="currentColor" y="9" dy="0.71em">Wed 17</text></g><g class="tick" opacity="1" transform="translate(120.5,0)"><line stroke="currentColor" y2="6"></line><text fill="currentColor" y="9" dy="0.71em">Fri 19</text></g><g class="tick" opacity="1" transform="translate(200.5,0)"><line stroke="currentColor" y2="6"></line><text fill="currentColor" y="9" dy="0.71em">Jun 21</text></g><g class="tick" opacity="1" transform="translate(280.5,0)"><line stroke="currentColor" y2="6"></line><text fill="currentColor" y="9" dy="0.71em">Tue 23</text></g><g class="tick" opacity="1" transform="translate(360.5,0)"><line stroke="currentColor" y2="6"></line><text fill="currentColor" y="9" dy="0.71em">Thu 25</text></g></g><g fill="none" font-size="10" font-family="sans-serif" text-anchor="end"><path class="domain" stroke="currentColor" d="M-6,200.5H0.5V0.5H-6"></path><g class="tick" opacity="1" transform="translate(0,200.5)"><line stroke="currentColor" x2="-6"></line><text fill="currentColor" x="-9" dy="0.32em">0</text></g><g class="tick" opacity="1" transform="translate(0,185.1153846153846)"><line stroke="currentColor" x2="-6"></line><text fill="currentColor" x="-9" dy="0.32em">500</text></g><g class="tick" opacity="1" transform="translate(0,169.73076923076923)"><line stroke="currentColor" x2="-6"></line><text fill="currentColor" x="-9" dy="0.32em">1,000</text></g><g class="tick" opacity="1" transform="translate(0,154.34615384615384)"><line stroke="currentColor" x2="-6"></line><text fill="currentColor" x="-9" dy="0.32em">1,500</text></g><g class="tick" opacity="1" transform="translate(0,138.96153846153845)"><line stroke="currentColor" x2="-6"></line><text fill="currentColor" x="-9" dy="0.32em">2,000</text></g><g class="tick" opacity="1" transform="translate(0,123.57692307692308)"><line stroke="currentColor" x2="-6"></line><text fill="currentColor" x="-9" dy="0.32em">2,500</text></g><g class="tick" opacity="1" transform="translate(0,108.1923076923077)"><line stroke="currentColor" x2="-6"></line><text fill="currentColor" x="-9" dy="0.32em">3,000</text></g><g class="tick" opacity="1" transform="translate(0,92.8076923076923)"><line stroke="currentColor" x2="-6"></line><text fill="currentColor" x="-9" dy="0.32em">3,500</text></g><g class="tick" opacity="1" transform="translate(0,77.42307692307692)"><line stroke="currentColor" x2="-6"></line><text fill="currentColor" x="-9" dy="0.32em">4,000</text></g><g class="tick" opacity="1" transform="translate(0,62.03846153846154)"><line stroke="currentColor" x2="-6"></line><text fill="currentColor" x="-9" dy="0.32em">4,500</text></g><g class="tick" opacity="1" transform="translate(0,46.653846153846146)"><line stroke="currentColor" x2="-6"></line><text fill="currentColor" x="-9" dy="0.32em">5,000</text></g><g class="tick" opacity="1" transform="translate(0,31.26923076923077)"><line stroke="currentColor" x2="-6"></line><text fill="currentColor" x="-9" dy="0.32em">5,500</text></g><g class="tick" opacity="1" transform="translate(0,15.884615384615374)"><line stroke="currentColor" x2="-6"></line><text fill="currentColor" x="-9" dy="0.32em">6,000</text></g><g class="tick" opacity="1" transform="translate(0,0.5)"><line stroke="currentColor" x2="-6"></line><text fill="currentColor" x="-9" dy="0.32em">6,500</text></g></g><text text-anchor="middle" style="font-size: 12px" transform="rotate(-90)" y="-40" x="-100">[jobs/s]</text><text text-anchor="middle" style="font-size: 16px" y="0" x="200">noop throughput benchmark</text><path class="line" fill="none" stroke="#e41a1c" stroke-width="1.5" d="M2.237,162.487L42.104,159.047L82.086,165.659L122.24,158.509L161.95,156.261L202.175,171.536L242.15,157.025L281.783,155.819L321.753,165.527L361.885,165.972"></path><path class="line" fill="none" stroke="#377eb8" stroke-width="1.5" d="M2.236,118.326L42.105,125.105L82.084,123.357L122.247,121.208L161.945,117.511L202.162,120.943L242.161,125.786L281.792,119.926L321.758,131.684L361.87,123.91"></path><path class="line" fill="none" stroke="#4daf4a" stroke-width="1.5" d="M2.218,81.334L42.086,83.93L82.061,77.118L122.225,82.48L161.925,70.91L202.157,105.236L242.143,87.335L281.782,92.868L321.745,107.965L361.861,104.475"></path><rect class="dot" x="400" y="5" width="15" height="15" style="fill: #e41a1c;"></rect><rect class="dot" x="400" y="25" width="15" height="15" style="fill: #377eb8;"></rect><rect class="dot" x="400" y="45" width="15" height="15" style="fill: #4daf4a;"></rect><text class="label" x="418" y="12.5" style="fill: #e41a1c; alignment-baseline: middle;" text-anchor="left">1 worker</text><text class="label" x="418" y="32.5" style="fill: #377eb8; alignment-baseline: middle;" text-anchor="left">4 workers</text><text class="label" x="418" y="52.5" style="fill: #4daf4a; alignment-baseline: middle;" text-anchor="left">8 workers</text></g></svg>