<svg xmlns="http://www.w3.org/2000/svg" width="560" height="250"><rect width="100%" height="100%" fill="white"></rect><g transform="translate(60,20)"><g transform="translate(0,200)" fill="none" font-size="10" font-family="sans-serif" text-anchor="middle"><path class="domain" stroke="currentColor" d="M0.5,6V0.5H400.5V6"></path><g class="tick" opacity="1" transform="translate(0.5,0)"><line stroke="currentColor" y2="6"></line><text fill="currentColor" y="9" dy="0.71em">Mar 29</text></g><g class="tick" opacity="1" transform="translate(80.5,0)"><line stroke="currentColor" y2="6"></line><text fill="currentColor" y="9" dy="0.71em">Tue 31</text></g><g class="tick" opacity="1" transform="translate(120.5,0)"><line stroke="currentColor" y2="6"></line><text fill="currentColor" y="9" dy="0.71em">April</text></g><g class="tick" opacity="1" transform="translate(200.5,0)"><line stroke="currentColor" y2="6"></line><text fill="currentColor" y="9" dy="0.71em">Fri 03</text></g><g class="tick" opacity="1" transform="translate(280.5,0)"><line stroke="currentColor" y2="6"></line><text fill="currentColor" y="9" dy="0.71em">Apr 05</text></g><g class="tick" opacity="1" transform="translate(360.5,0)"><line stroke="currentColor" y2="6"></line><text fill="currentColor" y="9" dy="0.71em">Tue 07</text></g></g><g fill="none" font-size="10" font-family="sans-serif" text-anchor="end"><path class="domain" stroke="currentColor" d="M-6,200.5H0.5V0.5H-6"></path><g class="tick" opacity="1" transform="translate(0,200.5)"><line stroke="currentColor" x2="-6"></line><text fill="currentColor" x="-9" dy="0.32em">0</text></g><g class="tick" opacity="1" transform="translate(0,186.21428571428572)"><line stroke="currentColor" x2="-6"></line><text fill="currentColor" x="-9" dy="0.32em">500</text></g><g class="tick" opacity="1" transform="translate(0,171.92857142857144)"><line stroke="currentColor" x2="-6"></line><text fill="currentColor" x="-9" dy="0.32em">1,000</text></g><g class="tick" opacity="1" transform="translate(0,157.64285714285714)"><line stroke="currentColor" x2="-6"></line><text fill="currentColor" x="-9" dy="0.32em">1,500</text></g><g class="tick" opacity="1" transform="translate(0,143.35714285714286)"><line stroke="currentColor" x2="-6"></line><text fill="currentColor" x="-9" dy="0.32em">2,000</text></g><g class="tick" opacity="1" transform="translate(0,129.07142857142856)"><line stroke="currentColor" x2="-6"></line><text fill="currentColor" x="-9" dy="0.32em">2,500</text></g><g class="tick" opacity="1" transform="translate(0,114.78571428571428)"><line stroke="currentColor" x2="-6"></line><text fill="currentColor" x="-9" dy="0.32em">3,000</text></g><g class="tick" opacity="1" transform="translate(0,100.5)"><line stroke="currentColor" x2="-6"></line><text fill="currentColor" x="-9" dy="0.32em">3,500</text></g><g class="tick" opacity="1" transform="translate(0,86.21428571428572)"><line stroke="currentColor" x2="-6"></line><text fill="currentColor" x="-9" dy="0.32em">4,000</text></g><g class="tick" opacity="1" transform="translate(0,71.92857142857142)"><line stroke="currentColor" x2="-6"></line><text fill="currentColor" x="-9" dy="0.32em">4,500</text></g><g class="tick" opacity="1" transform="translate(0,57.64285714285714)"><line stroke="currentColor" x2="-6"></line><text fill="currentColor" x="-9" dy="0.32em">5,000</text></g><g class="tick" opacity="1" transform="translate(0,43.35714285714286)"><line stroke="currentColor" x2="-6"></line><text fill="currentColor" x="-9" dy="0.32em">5,500</text></g><g class="tick" opacity="1" transform="translate(0,29.07142857142858)"><line stroke="currentColor" x2="-6"></line><text fill="currentColor" x="-9" dy="0.32em">6,000</text></g><g class="tick" opacity="1" transform="translate(0,14.78571428571428)"><line stroke="currentColor" x2="-6"></line><text fill="currentColor" x="-9" dy="0.32em">6,500</text></g><g class="tick" opacity="1" transform="translate(0,0.5)"><line stroke="currentColor" x2="-6"></line><text fill="currentColor" x="-9" dy="0.32em">7,000</text></g></g><text text-anchor="middle" style="font-size: 12px" transform="rotate(-90)" y="-40" x="-100">[jobs/s]</text><text text-anchor="middle" style="font-size: 16px" y="0" x="200">noop throughput benchmark</text><path class="line" fill="none" stroke="#e41a1c" stroke-width="1.5" d="M1.398,168.134L41.379,163.32L81.345,172.967L121.473,168.331L161.273,172.395L201.335,172.986L241.257,171.08L281.416,170.552L321.389,168.857L361.352,163.465"></path><path class="line" fill="none" stroke="#377eb8" stroke-width="1.5" d="M1.384,118.56L41.371,116.276L81.343,136.069L121.473,128.703L161.26,122.254L201.316,111.869L241.269,136.16L281.398,111.999L321.384,123.239L361.355,124.026"></path><path class="line" fill="none" stroke="#4daf4a" stroke-width="1.5" d="M1.365,71.553L41.367,95.555L81.31,82.826L121.444,86.595L161.246,90.892L201.306,96.284L241.229,94.716L281.382,83.037L321.367,87.758L361.339,81.654"></path><rect class="dot" x="400" y="5" width="15" height="15" style="fill: #e41a1c;"></rect><rect class="dot" x="400" y="25" width="15" height="15" style="fill: #377eb8;"></rect><rect class="dot" x="400" y="45" width="15" height="15" style="fill: #4daf4a;"></rect><text class="label" x="418" y="12.5" style="fill: #e41a1c; alignment-baseline: middle;" text-anchor="left">1 worker</text><text class="label" x="418" y="32.5" style="fill: #377eb8; alignment-baseline: middle;" text-anchor="left">4 workers</text><text class="label" x="418" y="52.5" style="fill: #4daf4a; alignment-baseline: middle;" text-anchor="left">8 workers</text></g></svg>