<svg xmlns="http://www.w3.org/2000/svg" width="560" height="250"><rect width="100%" height="100%" fill="white"></rect><g transform="translate(60,20)"><g transform="translate(0,200)" fill="none" font-size="10" font-family="sans-serif" text-anchor="middle"><path class="domain" stroke="currentColor" d="M0.5,6V0.5H400.5V6"></path><g class="tick" opacity="1" transform="translate(40.5,0)"><line stroke="currentColor" y2="6"></line><text fill="currentColor" y="9" dy="0.71em">Fri 19</text></g><g class="tick" opacity="1" transform="translate(120.5,0)"><line stroke="currentColor" y2="6"></line><text fill="currentColor" y="9" dy="0.71em">Jul 21</text></g><g class="tick" opacity="1" transform="translate(200.5,0)"><line stroke="currentColor" y2="6"></line><text fill="currentColor" y="9" dy="0.71em">Tue 23</text></g><g class="tick" opacity="1" transform="translate(280.5,0)"><line stroke="currentColor" y2="6"></line><text fill="currentColor" y="9" dy="0.71em">Thu 25</text></g><g class="tick" opacity="1" transform="translate(360.5,0)"><line stroke="currentColor" y2="6"></line><text fill="currentColor" y="9" dy="0.71em">Sat 27</text></g></g><g fill="none" font-size="10" font-family="sans-serif" text-anchor="end"><path class="domain" stroke="currentColor" d="M-6,200.5H0.5V0.5H-6"></path><g class="tick" opacity="1" transform="translate(0,200.5)"><line stroke="currentColor" x2="-6"></line><text fill="currentColor" x="-9" dy="0.32em">0</text></g><g class="tick" opacity="1" transform="translate(0,171.92857142857144)"><line stroke="currentColor" x2="-6"></line><text fill="currentColor" x="-9" dy="0.32em">50</text></g><g class="tick" opacity="1" transform="translate(0,143.35714285714286)"><line stroke="currentColor" x2="-6"></line><text fill="currentColor" x="-9" dy="0.32em">100</text></g><g class="tick" opacity="1" transform="translate(0,114.78571428571428)"><line stroke="currentColor" x2="-6"></line><text fill="currentColor" x="-9" dy="0.32em">150</text></g><g class="tick" opacity="1" transform="translate(0,86.21428571428572)"><line stroke="currentColor" x2="-6"></line><text fill="currentColor" x="-9" dy="0.32em">200</text></g><g class="tick" opacity="1" transform="translate(0,57.64285714285714)"><line stroke="currentColor" x2="-6"></line><text fill="currentColor" x="-9" dy="0.32em">250</text></g><g class="tick" opacity="1" transform="translate(0,29.07142857142858)"><line stroke="currentColor" x2="-6"></line><text fill="currentColor" x="-9" dy="0.32em">300</text></g><g class="tick" opacity="1" transform="translate(0,0.5)"><line stroke="currentColor" x2="-6"></line><text fill="currentColor" x="-9" dy="0.32em">350</text></g></g><text text-anchor="middle" style="font-size: 12px" transform="rotate(-90)" y="-40" x="-100">[jobs/s]</text><text text-anchor="middle" style="font-size: 16px" y="0" x="200">python throughput benchmark</text><path class="line" fill="none" stroke="#e41a1c" stroke-width="1.5" d="M0.753,187.306L40.746,185.739L80.752,190.175L120.815,188.487L160.794,188.853L200.755,187.804L240.788,188.374L280.757,188.41L320.747,188.538L360.749,186.478"></path><path class="line" fill="none" stroke="#377eb8" stroke-width="1.5" d="M0.677,120.169L40.666,121.356L80.667,125.479L120.746,125.381L160.714,124.534L200.68,124.454L240.71,131.037L280.676,128.41L320.669,127.318L360.684,137.233"></path><path class="line" fill="none" stroke="#4daf4a" stroke-width="1.5" d="M0.675,88.697L40.666,81.002L80.661,83.525L120.738,72.959L160.704,81.101L200.676,78.574L240.692,81.936L280.676,75.992L320.661,78.678L360.672,113.236"></path><rect class="dot" x="400" y="5" width="15" height="15" style="fill: #e41a1c;"></rect><rect class="dot" x="400" y="25" width="15" height="15" style="fill: #377eb8;"></rect><rect class="dot" x="400" y="45" width="15" height="15" style="fill: #4daf4a;"></rect><text class="label" x="418" y="12.5" style="fill: #e41a1c; alignment-baseline: middle;" text-anchor="left">1 worker</text><text class="label" x="418" y="32.5" style="fill: #377eb8; alignment-baseline: middle;" text-anchor="left">4 workers</text><text class="label" x="418" y="52.5" style="fill: #4daf4a; alignment-baseline: middle;" text-anchor="left">8 workers</text></g></svg>