<svg xmlns="http://www.w3.org/2000/svg" width="490" height="250"><rect width="100%" height="100%" fill="white"></rect><g transform="translate(60,20)"><g transform="translate(0,200)" fill="none" font-size="10" font-family="sans-serif" text-anchor="middle"><path class="domain" stroke="currentColor" d="M0.5,6V0.5H400.5V6"></path><g class="tick" opacity="1" transform="translate(41.316326530612244,0)"><line stroke="currentColor" y2="6"></line><text fill="currentColor" y="9" dy="0.71em">December</text></g><g class="tick" opacity="1" transform="translate(125.67006802721089,0)"><line stroke="currentColor" y2="6"></line><text fill="currentColor" y="9" dy="0.71em">2026</text></g><g class="tick" opacity="1" transform="translate(210.02380952380955,0)"><line stroke="currentColor" y2="6"></line><text fill="currentColor" y="9" dy="0.71em">February</text></g><g class="tick" opacity="1" transform="translate(286.2142857142857,0)"><line stroke="currentColor" y2="6"></line><text fill="currentColor" y="9" dy="0.71em">March</text></g><g class="tick" opacity="1" transform="translate(370.56802721088434,0)"><line stroke="currentColor" y2="6"></line><text fill="currentColor" y="9" dy="0.71em">April</text></g></g><g fill="none" font-size="10" font-family="sans-serif" text-anchor="end"><path class="domain" stroke="currentColor" d="M-6,200.5H0.5V0.5H-6"></path><g class="tick" opacity="1" transform="translate(0,200.5)"><line stroke="currentColor" x2="-6"></line><text fill="currentColor" x="-9" dy="0.32em">0</text></g><g class="tick" opacity="1" transform="translate(0,175.5)"><line stroke="currentColor" x2="-6"></line><text fill="currentColor" x="-9" dy="0.32em">200</text></g><g class="tick" opacity="1" transform="translate(0,150.5)"><line stroke="currentColor" x2="-6"></line><text fill="currentColor" x="-9" dy="0.32em">400</text></g><g class="tick" opacity="1" transform="translate(0,125.5)"><line stroke="currentColor" x2="-6"></line><text fill="currentColor" x="-9" dy="0.32em">600</text></g><g class="tick" opacity="1" transform="translate(0,100.5)"><line stroke="currentColor" x2="-6"></line><text fill="currentColor" x="-9" dy="0.32em">800</text></g><g class="tick" opacity="1" transform="translate(0,75.5)"><line stroke="currentColor" x2="-6"></line><text fill="currentColor" x="-9" dy="0.32em">1,000</text></g><g class="tick" opacity="1" transform="translate(0,50.5)"><line stroke="currentColor" x2="-6"></line><text fill="currentColor" x="-9" dy="0.32em">1,200</text></g><g class="tick" opacity="1" transform="translate(0,25.5)"><line stroke="currentColor" x2="-6"></line><text fill="currentColor" x="-9" dy="0.32em">1,400</text></g><g class="tick" opacity="1" transform="translate(0,0.5)"><line stroke="currentColor" x2="-6"></line><text fill="currentColor" x="-9" dy="0.32em">1,600</text></g></g><text text-anchor="middle" style="font-size: 12px" transform="rotate(-90)" y="-40" x="-100">[jobs/s]</text><text text-anchor="middle" style="font-size: 16px" y="0" x="200">single dedicated worker throughput benchmark</text><path fill="none" stroke="steelblue" stroke-width="1.5" d="M13.671,85.14L16.392,90.492L19.122,70.323L21.84,103.506L24.554,89.967L372.895,181.251L389.212,89.35L391.919,102.413L394.652,79.336L397.37,69.235"></path></g></svg>