<svg xmlns="http://www.w3.org/2000/svg" width="560" height="250"><rect width="100%" height="100%" fill="white"></rect><g transform="translate(60,20)"><g transform="translate(0,200)" fill="none" font-size="10" font-family="sans-serif" text-anchor="middle"><path class="domain" stroke="currentColor" d="M0.5,6V0.5H400.5V6"></path><g class="tick" opacity="1" transform="translate(0.5,0)"><line stroke="currentColor" y2="6"></line><text fill="currentColor" y="9" dy="0.71em">Mon 21</text></g><g class="tick" opacity="1" transform="translate(89.38888888888889,0)"><line stroke="currentColor" y2="6"></line><text fill="currentColor" y="9" dy="0.71em">Wed 23</text></g><g class="tick" opacity="1" transform="translate(178.27777777777777,0)"><line stroke="currentColor" y2="6"></line><text fill="currentColor" y="9" dy="0.71em">Fri 25</text></g><g class="tick" opacity="1" transform="translate(267.16666666666663,0)"><line stroke="currentColor" y2="6"></line><text fill="currentColor" y="9" dy="0.71em">Sep 27</text></g><g class="tick" opacity="1" transform="translate(356.05555555555554,0)"><line stroke="currentColor" y2="6"></line><text fill="currentColor" y="9" dy="0.71em">Tue 29</text></g></g><g fill="none" font-size="10" font-family="sans-serif" text-anchor="end"><path class="domain" stroke="currentColor" d="M-6,200.5H0.5V0.5H-6"></path><g class="tick" opacity="1" transform="translate(0,200.5)"><line stroke="currentColor" x2="-6"></line><text fill="currentColor" x="-9" dy="0.32em">0</text></g><g class="tick" opacity="1" transform="translate(0,183.83333333333331)"><line stroke="currentColor" x2="-6"></line><text fill="currentColor" x="-9" dy="0.32em">5</text></g><g class="tick" opacity="1" transform="translate(0,167.16666666666669)"><line stroke="currentColor" x2="-6"></line><text fill="currentColor" x="-9" dy="0.32em">10</text></g><g class="tick" opacity="1" transform="translate(0,150.5)"><line stroke="currentColor" x2="-6"></line><text fill="currentColor" x="-9" dy="0.32em">15</text></g><g class="tick" opacity="1" transform="translate(0,133.83333333333334)"><line stroke="currentColor" x2="-6"></line><text fill="currentColor" x="-9" dy="0.32em">20</text></g><g class="tick" opacity="1" transform="translate(0,117.16666666666666)"><line stroke="currentColor" x2="-6"></line><text fill="currentColor" x="-9" dy="0.32em">25</text></g><g class="tick" opacity="1" transform="translate(0,100.5)"><line stroke="currentColor" x2="-6"></line><text fill="currentColor" x="-9" dy="0.32em">30</text></g><g class="tick" opacity="1" transform="translate(0,83.83333333333333)"><line stroke="currentColor" x2="-6"></line><text fill="currentColor" x="-9" dy="0.32em">35</text></g><g class="tick" opacity="1" transform="translate(0,67.16666666666667)"><line stroke="currentColor" x2="-6"></line><text fill="currentColor" x="-9" dy="0.32em">40</text></g><g class="tick" opacity="1" transform="translate(0,50.5)"><line stroke="currentColor" x2="-6"></line><text fill="currentColor" x="-9" dy="0.32em">45</text></g><g class="tick" opacity="1" transform="translate(0,33.83333333333333)"><line stroke="currentColor" x2="-6"></line><text fill="currentColor" x="-9" dy="0.32em">50</text></g><g class="tick" opacity="1" transform="translate(0,17.166666666666675)"><line stroke="currentColor" x2="-6"></line><text fill="currentColor" x="-9" dy="0.32em">55</text></g><g class="tick" opacity="1" transform="translate(0,0.5)"><line stroke="currentColor" x2="-6"></line><text fill="currentColor" x="-9" dy="0.32em">60</text></g></g><text text-anchor="middle" style="font-size: 12px" transform="rotate(-90)" y="-40" x="-100">[jobs/s]</text><text text-anchor="middle" style="font-size: 16px" y="0" x="200">WAC v2 parallel vs flow parallel (2 steps, bun)</text><path class="line" fill="none" stroke="#e41a1c" stroke-width="1.5" d="M1.544,146.028L45.871,139.736L134.81,146.691L179.193,140.62L219.844,151.049L222.101,149.016L223.631,74.252L268.326,160.933L312.75,156.129L357.1,164.908"></path><path class="line" fill="none" stroke="#377eb8" stroke-width="1.5" d="M1.574,118.453L45.899,111.385L134.844,129.132L179.22,110.902L219.873,115.483L222.132,118.508L223.659,107.848L268.364,127.003L312.784,121.228L357.138,136.416"></path><rect class="dot" x="400" y="5" width="15" height="15" style="fill: #e41a1c;"></rect><rect class="dot" x="400" y="25" width="15" height="15" style="fill: #377eb8;"></rect><text class="label" x="418" y="12.5" style="fill: #e41a1c; alignment-baseline: middle;" text-anchor="left">WAC v2 parallel</text><text class="label" x="418" y="32.5" style="fill: #377eb8; alignment-baseline: middle;" text-anchor="left">Flow parallel</text></g></svg>