<svg xmlns="http://www.w3.org/2000/svg" width="560" height="250"><rect width="100%" height="100%" fill="white"></rect><g transform="translate(60,20)"><g transform="translate(0,200)" fill="none" font-size="10" font-family="sans-serif" text-anchor="middle"><path class="domain" stroke="currentColor" d="M0.5,6V0.5H400.5V6"></path><g class="tick" opacity="1" transform="translate(0.5,0)"><line stroke="currentColor" y2="6"></line><text fill="currentColor" y="9" dy="0.71em">Wed 27</text></g><g class="tick" opacity="1" transform="translate(80.5,0)"><line stroke="currentColor" y2="6"></line><text fill="currentColor" y="9" dy="0.71em">Fri 29</text></g><g class="tick" opacity="1" transform="translate(160.5,0)"><line stroke="currentColor" y2="6"></line><text fill="currentColor" y="9" dy="0.71em">May 31</text></g><g class="tick" opacity="1" transform="translate(200.5,0)"><line stroke="currentColor" y2="6"></line><text fill="currentColor" y="9" dy="0.71em">June</text></g><g class="tick" opacity="1" transform="translate(280.5,0)"><line stroke="currentColor" y2="6"></line><text fill="currentColor" y="9" dy="0.71em">Wed 03</text></g><g class="tick" opacity="1" transform="translate(360.5,0)"><line stroke="currentColor" y2="6"></line><text fill="currentColor" y="9" dy="0.71em">Fri 05</text></g></g><g fill="none" font-size="10" font-family="sans-serif" text-anchor="end"><path class="domain" stroke="currentColor" d="M-6,200.5H0.5V0.5H-6"></path><g class="tick" opacity="1" transform="translate(0,200.5)"><line stroke="currentColor" x2="-6"></line><text fill="currentColor" x="-9" dy="0.32em">0</text></g><g class="tick" opacity="1" transform="translate(0,175.5)"><line stroke="currentColor" x2="-6"></line><text fill="currentColor" x="-9" dy="0.32em">10</text></g><g class="tick" opacity="1" transform="translate(0,150.5)"><line stroke="currentColor" x2="-6"></line><text fill="currentColor" x="-9" dy="0.32em">20</text></g><g class="tick" opacity="1" transform="translate(0,125.5)"><line stroke="currentColor" x2="-6"></line><text fill="currentColor" x="-9" dy="0.32em">30</text></g><g class="tick" opacity="1" transform="translate(0,100.5)"><line stroke="currentColor" x2="-6"></line><text fill="currentColor" x="-9" dy="0.32em">40</text></g><g class="tick" opacity="1" transform="translate(0,75.5)"><line stroke="currentColor" x2="-6"></line><text fill="currentColor" x="-9" dy="0.32em">50</text></g><g class="tick" opacity="1" transform="translate(0,50.5)"><line stroke="currentColor" x2="-6"></line><text fill="currentColor" x="-9" dy="0.32em">60</text></g><g class="tick" opacity="1" transform="translate(0,25.5)"><line stroke="currentColor" x2="-6"></line><text fill="currentColor" x="-9" dy="0.32em">70</text></g><g class="tick" opacity="1" transform="translate(0,0.5)"><line stroke="currentColor" x2="-6"></line><text fill="currentColor" x="-9" dy="0.32em">80</text></g></g><text text-anchor="middle" style="font-size: 12px" transform="rotate(-90)" y="-40" x="-100">[jobs/s]</text><text text-anchor="middle" style="font-size: 16px" y="0" x="200">WAC v2 patterns comparison</text><path class="line" fill="none" stroke="#e41a1c" stroke-width="1.5" d="M1.879,169.327L41.68,178.825L81.933,173.475L121.787,172.318L161.96,172.219L202.048,173.737L242.02,173.824L282.184,170.856L322.184,168.226L361.927,168.369"></path><path class="line" fill="none" stroke="#377eb8" stroke-width="1.5" d="M1.887,162.577L41.691,172.541L81.942,166.504L121.795,89.868L161.969,166.32L202.057,113.327L242.03,107.298L282.193,163.89L322.192,91.869L361.935,92.649"></path><path class="line" fill="none" stroke="#4daf4a" stroke-width="1.5" d="M1.898,178.021L41.706,183.843L81.954,179.983L121.805,176.875L161.981,180.598L202.07,180.988L242.042,180.21L282.204,178.997L322.203,177.563L361.946,177.246"></path><path class="line" fill="none" stroke="#984ea3" stroke-width="1.5" d="M1.903,77.739L41.712,101.427L81.961,107.633L121.81,72.462L161.987,93.172L202.076,93.272L242.047,91.219L282.209,83.461L322.208,73.238L361.951,72.553"></path><rect class="dot" x="400" y="5" width="15" height="15" style="fill: #e41a1c;"></rect><rect class="dot" x="400" y="25" width="15" height="15" style="fill: #377eb8;"></rect><rect class="dot" x="400" y="45" width="15" height="15" style="fill: #4daf4a;"></rect><rect class="dot" x="400" y="65" width="15" height="15" style="fill: #984ea3;"></rect><text class="label" x="418" y="12.5" style="fill: #e41a1c; alignment-baseline: middle;" text-anchor="left">sequential 2-task</text><text class="label" x="418" y="32.5" style="fill: #377eb8; alignment-baseline: middle;" text-anchor="left">parallel 2-task</text><text class="label" x="418" y="52.5" style="fill: #4daf4a; alignment-baseline: middle;" text-anchor="left">sequential 3-task</text><text class="label" x="418" y="72.5" style="fill: #984ea3; alignment-baseline: middle;" text-anchor="left">inline 2-step</text></g></svg>