<?xml version="1.0" encoding="UTF-8" standalone="no"?>
<svg
   version="1.0"
   width="736.000000pt"
   height="400.000000pt"
   viewBox="0 0 736.000000 552.000000"
   preserveAspectRatio="xMidYMid meet"
   id="svg12"
   sodipodi:docname="windmill.svg"
   inkscape:export-filename="/home/rfiszel/Downloads/windmill.png"
   inkscape:export-xdpi="31.02663"
   inkscape:export-ydpi="31.02663"
   inkscape:version="1.1.1 (3bf5ae0d25, 2021-09-20, custom)"
   xmlns:inkscape="http://www.inkscape.org/namespaces/inkscape"
   xmlns:sodipodi="http://sodipodi.sourceforge.net/DTD/sodipodi-0.dtd"
   xmlns="http://www.w3.org/2000/svg"
   xmlns:svg="http://www.w3.org/2000/svg">
  <defs
     id="defs16" />
  <sodipodi:namedview
     id="namedview14"
     pagecolor="#ffffff"
     bordercolor="#666666"
     borderopacity="1.0"
     inkscape:pageshadow="2"
     inkscape:pageopacity="0.0"
     inkscape:pagecheckerboard="0"
     inkscape:document-units="pt"
     showgrid="false"
     inkscape:zoom="0.50043491"
     inkscape:cx="235.7949"
     inkscape:cy="399.65237"
     inkscape:window-width="1276"
     inkscape:window-height="1436"
     inkscape:window-x="0"
     inkscape:window-y="0"
     inkscape:window-maximized="1"
     inkscape:current-layer="svg12" />
  <metadata
     id="metadata2">
Created by potrace 1.16, written by Peter Selinger 2001-2019
</metadata>
  <g
     transform="matrix(0.1,0,0,-0.1,-161.07094,556.19731)"
     fill="#000000"
     stroke="none"
     id="g10"
     inkscape:export-filename="/home/rfiszel/Downloads/g10.png"
     inkscape:export-xdpi="31.02663"
     inkscape:export-ydpi="31.02663"
     style="fill:#3b82f6;fill-opacity:1">
    <path
       d="m 2760,4025 -24,-26 447,-447 447,-447 -447,-447 -447,-447 24,-26 24,-26 448,448 448,448 448,-448 448,-448 24,26 24,26 -447,447 -447,447 447,447 447,447 -24,26 -24,26 -448,-448 -448,-448 -448,448 -448,448 z"
       id="path4"
       style="fill:#3b82f6;fill-opacity:1" />
    <path
       d="m 3569,2823 -107,-108 -66,-539 c -39,-315 -63,-543 -58,-548 5,-5 67,-7 138,-6 l 129,3 2,155 c 1,146 2,155 23,172 29,23 91,23 119,1 19,-17 21,-29 23,-173 l 3,-155 138,-3 137,-3 v 28 c 0,15 -20,186 -45,378 -25,193 -53,421 -64,509 l -19,159 -118,118 c -65,66 -121,119 -124,119 -3,0 -53,-48 -111,-107 z"
       id="path6"
       style="fill:#3b82f6;fill-opacity:1" />
    <path
       d="m 3317,1543 c -4,-3 -7,-21 -7,-40 v -33 h 380 380 v 24 c 0,59 21,56 -379,56 -202,0 -371,-3 -374,-7 z"
       id="path8"
       style="fill:#3b82f6;fill-opacity:1" />
  </g>
  <text
     xml:space="preserve"
     style="font-style:normal;font-weight:normal;font-size:93.8588px;line-height:1.25;font-family:sans-serif;fill:#3b82f6;fill-opacity:1;stroke:none;stroke-width:1.17323"
     x="155.21994"
     y="498.40115"
     id="text4751"
     transform="scale(1.0270767,0.97363711)"
     inkscape:export-filename="/home/rfiszel/Downloads/g10.png"
     inkscape:export-xdpi="31.02663"
     inkscape:export-ydpi="31.02663"><tspan
       sodipodi:role="line"
       id="tspan4749"
       style="font-size:93.8588px;stroke-width:1.17323;fill:#3b82f6;fill-opacity:1"
       x="155.21994"
       y="498.40115">WINDMILL</tspan></text>
</svg>
