<svg width="400" height="400" viewBox="0 0 400 400" fill="none" xmlns="http://www.w3.org/2000/svg">
<path d="M0 5.99999C0 2.68629 2.68629 0 6 0H394C397.314 0 400 2.68629 400 6V394C400 397.314 397.314 400 394 400H5.99999C2.68629 400 0 397.314 0 394V5.99999Z" fill="#FBFBFD"/>
<path d="M14 17C14 13.6863 16.6863 11 20 11H165C168.314 11 171 13.6863 171 17V35C171 38.3137 168.314 41 165 41H20C16.6863 41 14 38.3137 14 35V17Z" fill="#CFCFCF"/>
<path d="M43.7012 23.666V24.7207C43.3926 24.541 43.082 24.4062 42.7695 24.3164C42.457 24.2266 42.1387 24.1816 41.8145 24.1816C41.3262 24.1816 40.9609 24.2617 40.7188 24.4219C40.4805 24.5781 40.3613 24.8184 40.3613 25.1426C40.3613 25.4355 40.4512 25.6543 40.6309 25.7988C40.8105 25.9434 41.2578 26.084 41.9727 26.2207L42.4062 26.3027C42.9414 26.4043 43.3457 26.6074 43.6191 26.9121C43.8965 27.2168 44.0352 27.6133 44.0352 28.1016C44.0352 28.75 43.8047 29.2578 43.3438 29.625C42.8828 29.9883 42.2422 30.1699 41.4219 30.1699C41.0977 30.1699 40.7578 30.1348 40.4023 30.0645C40.0469 29.998 39.6621 29.8965 39.248 29.7598V28.6465C39.6504 28.8535 40.0352 29.0098 40.4023 29.1152C40.7695 29.2168 41.1172 29.2676 41.4453 29.2676C41.9219 29.2676 42.291 29.1719 42.5527 28.9805C42.8145 28.7852 42.9453 28.5137 42.9453 28.166C42.9453 27.666 42.4668 27.3203 41.5098 27.1289L41.4629 27.1172L41.0586 27.0352C40.4375 26.9141 39.9844 26.7109 39.6992 26.4258C39.4141 26.1367 39.2715 25.7441 39.2715 25.248C39.2715 24.6191 39.4844 24.1348 39.9102 23.7949C40.3359 23.4512 40.9434 23.2793 41.7324 23.2793C42.084 23.2793 42.4219 23.3125 42.7461 23.3789C43.0703 23.4414 43.3887 23.5371 43.7012 23.666ZM46.373 27.5156V23.4492H47.4512V27.5156C47.4512 28.1055 47.5547 28.5391 47.7617 28.8164C47.9727 29.0938 48.2969 29.2324 48.7344 29.2324C49.2422 29.2324 49.6309 29.0547 49.9004 28.6992C50.1699 28.3398 50.3047 27.8262 50.3047 27.1582V23.4492H51.3887V30H50.3047V29.0156C50.1133 29.3945 49.8516 29.6816 49.5195 29.877C49.1914 30.0723 48.8066 30.1699 48.3652 30.1699C47.6934 30.1699 47.1934 29.9512 46.8652 29.5137C46.5371 29.0723 46.373 28.4062 46.373 27.5156ZM59.2285 24.791C58.998 24.6113 58.7637 24.4805 58.5254 24.3984C58.2871 24.3164 58.0254 24.2754 57.7402 24.2754C57.0684 24.2754 56.5547 24.4863 56.1992 24.9082C55.8438 25.3301 55.666 25.9395 55.666 26.7363V30H54.582V23.4375H55.666V24.7207C55.8457 24.2559 56.1211 23.9004 56.4922 23.6543C56.8672 23.4043 57.3105 23.2793 57.8223 23.2793C58.0879 23.2793 58.3359 23.3125 58.5664 23.3789C58.7969 23.4453 59.0176 23.5488 59.2285 23.6895V24.791ZM65.9199 20.8828V21.7793H64.6953C64.3086 21.7793 64.0391 21.8594 63.8867 22.0195C63.7383 22.1758 63.6641 22.4551 63.6641 22.8574V23.4375H65.9199V24.2754H63.6641V30H62.5859V24.2754H60.834V23.4375H62.5859V22.9805C62.5859 22.2617 62.75 21.7324 63.0781 21.3926C63.4102 21.0527 63.9258 20.8828 64.625 20.8828H65.9199ZM71.0352 26.7012H70.6777C70.0488 26.7012 69.5742 26.8125 69.2539 27.0352C68.9375 27.2539 68.7793 27.582 68.7793 28.0195C68.7793 28.4141 68.8984 28.7207 69.1367 28.9395C69.375 29.1582 69.7051 29.2676 70.127 29.2676C70.7207 29.2676 71.1875 29.0625 71.5273 28.6523C71.8672 28.2383 72.0391 27.668 72.043 26.9414V26.7012H71.0352ZM73.127 26.2559V30H72.043V29.0273C71.8125 29.418 71.5215 29.707 71.1699 29.8945C70.8223 30.0781 70.3984 30.1699 69.8984 30.1699C69.2305 30.1699 68.6973 29.9824 68.2988 29.6074C67.9004 29.2285 67.7012 28.7227 67.7012 28.0898C67.7012 27.3594 67.9453 26.8047 68.4336 26.4258C68.9258 26.0469 69.6465 25.8574 70.5957 25.8574H72.043V25.6875C72.0391 25.1641 71.9062 24.7852 71.6445 24.5508C71.3828 24.3125 70.9648 24.1934 70.3906 24.1934C70.0234 24.1934 69.6523 24.2461 69.2773 24.3516C68.9023 24.457 68.5371 24.6113 68.1816 24.8145V23.7363C68.5801 23.584 68.9609 23.4707 69.3242 23.3965C69.6914 23.3184 70.0469 23.2793 70.3906 23.2793C70.9336 23.2793 71.3965 23.3594 71.7793 23.5195C72.166 23.6797 72.4785 23.9199 72.7168 24.2402C72.8652 24.4355 72.9707 24.6777 73.0332 24.9668C73.0957 25.252 73.127 25.6816 73.127 26.2559ZM80.3691 29.666C80.0801 29.834 79.7812 29.959 79.4727 30.041C79.168 30.127 78.8555 30.1699 78.5352 30.1699C77.5195 30.1699 76.7246 29.8652 76.1504 29.2559C75.5801 28.6465 75.2949 27.8027 75.2949 26.7246C75.2949 25.6465 75.5801 24.8027 76.1504 24.1934C76.7246 23.584 77.5195 23.2793 78.5352 23.2793C78.8516 23.2793 79.1602 23.3203 79.4609 23.4023C79.7617 23.4844 80.0645 23.6113 80.3691 23.7832V24.9141C80.084 24.6602 79.7969 24.4766 79.5078 24.3633C79.2227 24.25 78.8984 24.1934 78.5352 24.1934C77.8594 24.1934 77.3398 24.4121 76.9766 24.8496C76.6133 25.2871 76.4316 25.9121 76.4316 26.7246C76.4316 27.5332 76.6133 28.1582 76.9766 28.5996C77.3438 29.0371 77.8633 29.2559 78.5352 29.2559C78.9102 29.2559 79.2461 29.1992 79.543 29.0859C79.8398 28.9688 80.1152 28.7891 80.3691 28.5469V29.666ZM87.9453 26.1797V26.707H83.2754V26.7422C83.2441 27.6367 83.4141 28.2793 83.7852 28.6699C84.1602 29.0605 84.6875 29.2559 85.3672 29.2559C85.7109 29.2559 86.0703 29.2012 86.4453 29.0918C86.8203 28.9824 87.2207 28.8164 87.6465 28.5938V29.666C87.2363 29.834 86.8398 29.959 86.457 30.041C86.0781 30.127 85.7109 30.1699 85.3555 30.1699C84.3359 30.1699 83.5391 29.8652 82.9648 29.2559C82.3906 28.6426 82.1035 27.7988 82.1035 26.7246C82.1035 25.6777 82.3848 24.8418 82.9473 24.2168C83.5098 23.5918 84.2598 23.2793 85.1973 23.2793C86.0332 23.2793 86.6914 23.5625 87.1719 24.1289C87.6562 24.6953 87.9141 25.3789 87.9453 26.1797ZM86.8672 25.8633C86.8203 25.4102 86.6543 25.0195 86.3691 24.6914C86.0879 24.3594 85.6816 24.1934 85.1504 24.1934C84.6309 24.1934 84.2031 24.3652 83.8672 24.709C83.5312 25.0527 83.3477 25.4395 83.3164 25.8691L86.8672 25.8633ZM89.2109 25.7578H95.4219V26.748H89.2109V25.7578ZM98.041 29.1738V32.4961H96.957V23.4375H98.041V24.2754C98.2207 23.9512 98.459 23.7051 98.7559 23.5371C99.0566 23.3652 99.4023 23.2793 99.793 23.2793C100.586 23.2793 101.207 23.5859 101.656 24.1992C102.109 24.8125 102.336 25.6621 102.336 26.748C102.336 27.8145 102.109 28.6523 101.656 29.2617C101.203 29.8672 100.582 30.1699 99.793 30.1699C99.3945 30.1699 99.0449 30.0859 98.7441 29.918C98.4473 29.7461 98.2129 29.498 98.041 29.1738ZM101.205 26.7246C101.205 25.8887 101.072 25.2578 100.807 24.832C100.545 24.4062 100.154 24.1934 99.6348 24.1934C99.1113 24.1934 98.7148 24.4082 98.4453 24.8379C98.1758 25.2637 98.041 25.8926 98.041 26.7246C98.041 27.5527 98.1758 28.1816 98.4453 28.6113C98.7148 29.041 99.1113 29.2559 99.6348 29.2559C100.154 29.2559 100.545 29.043 100.807 28.6172C101.072 28.1914 101.205 27.5605 101.205 26.7246ZM109.842 24.791C109.611 24.6113 109.377 24.4805 109.139 24.3984C108.9 24.3164 108.639 24.2754 108.354 24.2754C107.682 24.2754 107.168 24.4863 106.812 24.9082C106.457 25.3301 106.279 25.9395 106.279 26.7363V30H105.195V23.4375H106.279V24.7207C106.459 24.2559 106.734 23.9004 107.105 23.6543C107.48 23.4043 107.924 23.2793 108.436 23.2793C108.701 23.2793 108.949 23.3125 109.18 23.3789C109.41 23.4453 109.631 23.5488 109.842 23.6895V24.791ZM112.156 23.4609H114.916V29.1621H117.055V30H111.699V29.1621H113.838V24.2988H112.156V23.4609ZM113.838 20.9121H114.916V22.2715H113.838V20.9121ZM121.496 24.1055C121.629 23.8242 121.797 23.6172 122 23.4844C122.207 23.3477 122.455 23.2793 122.744 23.2793C123.271 23.2793 123.643 23.4844 123.857 23.8945C124.076 24.3008 124.186 25.0684 124.186 26.1973V30H123.201V26.2441C123.201 25.3184 123.148 24.7441 123.043 24.5215C122.941 24.2949 122.754 24.1816 122.48 24.1816C122.168 24.1816 121.953 24.3027 121.836 24.5449C121.723 24.7832 121.666 25.3496 121.666 26.2441V30H120.682V26.2441C120.682 25.3066 120.625 24.7285 120.512 24.5098C120.402 24.291 120.203 24.1816 119.914 24.1816C119.629 24.1816 119.43 24.3027 119.316 24.5449C119.207 24.7832 119.152 25.3496 119.152 26.2441V30H118.174V23.4375H119.152V24C119.281 23.7656 119.441 23.5879 119.633 23.4668C119.828 23.3418 120.049 23.2793 120.295 23.2793C120.592 23.2793 120.838 23.3477 121.033 23.4844C121.232 23.6211 121.387 23.8281 121.496 24.1055ZM128.879 26.7012H128.521C127.893 26.7012 127.418 26.8125 127.098 27.0352C126.781 27.2539 126.623 27.582 126.623 28.0195C126.623 28.4141 126.742 28.7207 126.98 28.9395C127.219 29.1582 127.549 29.2676 127.971 29.2676C128.564 29.2676 129.031 29.0625 129.371 28.6523C129.711 28.2383 129.883 27.668 129.887 26.9414V26.7012H128.879ZM130.971 26.2559V30H129.887V29.0273C129.656 29.418 129.365 29.707 129.014 29.8945C128.666 30.0781 128.242 30.1699 127.742 30.1699C127.074 30.1699 126.541 29.9824 126.143 29.6074C125.744 29.2285 125.545 28.7227 125.545 28.0898C125.545 27.3594 125.789 26.8047 126.277 26.4258C126.77 26.0469 127.49 25.8574 128.439 25.8574H129.887V25.6875C129.883 25.1641 129.75 24.7852 129.488 24.5508C129.227 24.3125 128.809 24.1934 128.234 24.1934C127.867 24.1934 127.496 24.2461 127.121 24.3516C126.746 24.457 126.381 24.6113 126.025 24.8145V23.7363C126.424 23.584 126.805 23.4707 127.168 23.3965C127.535 23.3184 127.891 23.2793 128.234 23.2793C128.777 23.2793 129.24 23.3594 129.623 23.5195C130.01 23.6797 130.322 23.9199 130.561 24.2402C130.709 24.4355 130.814 24.6777 130.877 24.9668C130.939 25.252 130.971 25.6816 130.971 26.2559ZM138.764 24.791C138.533 24.6113 138.299 24.4805 138.061 24.3984C137.822 24.3164 137.561 24.2754 137.275 24.2754C136.604 24.2754 136.09 24.4863 135.734 24.9082C135.379 25.3301 135.201 25.9395 135.201 26.7363V30H134.117V23.4375H135.201V24.7207C135.381 24.2559 135.656 23.9004 136.027 23.6543C136.402 23.4043 136.846 23.2793 137.357 23.2793C137.623 23.2793 137.871 23.3125 138.102 23.3789C138.332 23.4453 138.553 23.5488 138.764 23.6895V24.791ZM144.254 27.8906C144.074 28.3477 143.846 28.9492 143.568 29.6953C143.182 30.7266 142.922 31.3555 142.789 31.582C142.609 31.8867 142.385 32.1152 142.115 32.2676C141.846 32.4199 141.531 32.4961 141.172 32.4961H140.305V31.5938H140.943C141.26 31.5938 141.508 31.502 141.688 31.3184C141.867 31.1348 142.096 30.6602 142.373 29.8945L139.836 23.4375H140.979L142.924 28.5703L144.84 23.4375H145.982L144.254 27.8906Z" fill="black"/>
<g filter="url(#filter0_dd_257_1269)">
<path d="M186 153C186 149.686 188.686 147 192 147H350C353.314 147 356 149.686 356 153V250C356 253.314 353.314 256 350 256H192C188.686 256 186 253.314 186 250V153Z" fill="#FBFBFD"/>
<path d="M192 147.5H350C353.038 147.5 355.5 149.962 355.5 153V250C355.5 253.038 353.038 255.5 350 255.5H192C188.962 255.5 186.5 253.038 186.5 250V153C186.5 150.057 188.811 147.654 191.717 147.507L192 147.5Z" stroke="#E5E7EB"/>
<path d="M197.057 164.273H198.318L201.284 171.517H201.386L204.352 164.273H205.614V173H204.625V166.369H204.54L201.812 173H200.858L198.131 166.369H198.045V173H197.057V164.273ZM207.596 173V166.455H208.602V173H207.596ZM208.108 165.364C207.912 165.364 207.743 165.297 207.6 165.163C207.461 165.03 207.392 164.869 207.392 164.682C207.392 164.494 207.461 164.334 207.6 164.2C207.743 164.067 207.912 164 208.108 164C208.304 164 208.471 164.067 208.61 164.2C208.752 164.334 208.824 164.494 208.824 164.682C208.824 164.869 208.752 165.03 208.61 165.163C208.471 165.297 208.304 165.364 208.108 165.364ZM215.08 167.92L214.177 168.176C214.12 168.026 214.036 167.879 213.925 167.737C213.817 167.592 213.67 167.473 213.482 167.379C213.295 167.286 213.055 167.239 212.762 167.239C212.362 167.239 212.028 167.331 211.761 167.516C211.496 167.697 211.364 167.929 211.364 168.21C211.364 168.46 211.455 168.658 211.637 168.803C211.819 168.947 212.103 169.068 212.489 169.165L213.461 169.403C214.046 169.545 214.482 169.763 214.769 170.055C215.056 170.345 215.2 170.719 215.2 171.176C215.2 171.551 215.092 171.886 214.876 172.182C214.663 172.477 214.364 172.71 213.981 172.881C213.597 173.051 213.151 173.136 212.643 173.136C211.975 173.136 211.423 172.991 210.985 172.702C210.548 172.412 210.271 171.989 210.154 171.432L211.109 171.193C211.2 171.545 211.371 171.81 211.624 171.986C211.88 172.162 212.214 172.25 212.626 172.25C213.094 172.25 213.467 172.151 213.742 171.952C214.021 171.75 214.16 171.509 214.16 171.227C214.16 171 214.08 170.81 213.921 170.656C213.762 170.5 213.518 170.384 213.188 170.307L212.097 170.051C211.498 169.909 211.058 169.689 210.776 169.391C210.498 169.089 210.359 168.713 210.359 168.261C210.359 167.892 210.462 167.565 210.67 167.281C210.88 166.997 211.165 166.774 211.526 166.612C211.89 166.45 212.302 166.369 212.762 166.369C213.41 166.369 213.918 166.511 214.288 166.795C214.66 167.08 214.924 167.455 215.08 167.92ZM219.56 166.455V167.307H216.168V166.455H219.56ZM217.157 164.886H218.162V171.125C218.162 171.409 218.203 171.622 218.286 171.764C218.371 171.903 218.479 171.997 218.61 172.045C218.743 172.091 218.884 172.114 219.032 172.114C219.142 172.114 219.233 172.108 219.304 172.097C219.375 172.082 219.432 172.071 219.475 172.062L219.679 172.966C219.611 172.991 219.516 173.017 219.394 173.043C219.272 173.071 219.117 173.085 218.929 173.085C218.645 173.085 218.367 173.024 218.094 172.902C217.824 172.78 217.6 172.594 217.421 172.344C217.245 172.094 217.157 171.778 217.157 171.398V164.886ZM221.073 173V166.455H222.044V167.443H222.113C222.232 167.119 222.448 166.857 222.76 166.655C223.073 166.453 223.425 166.352 223.817 166.352C223.891 166.352 223.983 166.354 224.094 166.357C224.205 166.359 224.289 166.364 224.346 166.369V167.392C224.311 167.384 224.233 167.371 224.111 167.354C223.992 167.334 223.865 167.324 223.732 167.324C223.414 167.324 223.13 167.391 222.88 167.524C222.632 167.655 222.436 167.837 222.292 168.07C222.15 168.3 222.078 168.562 222.078 168.858V173H221.073ZM227.464 173.153C227.049 173.153 226.673 173.075 226.335 172.919C225.996 172.76 225.728 172.531 225.529 172.233C225.33 171.932 225.231 171.568 225.231 171.142C225.231 170.767 225.305 170.463 225.452 170.23C225.6 169.994 225.798 169.81 226.045 169.676C226.292 169.543 226.565 169.443 226.863 169.378C227.164 169.31 227.467 169.256 227.771 169.216C228.168 169.165 228.491 169.126 228.738 169.101C228.988 169.072 229.17 169.026 229.283 168.96C229.4 168.895 229.458 168.781 229.458 168.619V168.585C229.458 168.165 229.343 167.838 229.113 167.605C228.886 167.372 228.54 167.256 228.077 167.256C227.597 167.256 227.221 167.361 226.948 167.571C226.675 167.781 226.484 168.006 226.373 168.244L225.418 167.903C225.589 167.506 225.816 167.196 226.1 166.974C226.387 166.75 226.7 166.594 227.038 166.506C227.379 166.415 227.714 166.369 228.043 166.369C228.254 166.369 228.495 166.395 228.768 166.446C229.043 166.494 229.309 166.595 229.565 166.749C229.823 166.902 230.038 167.134 230.208 167.443C230.379 167.753 230.464 168.168 230.464 168.688V173H229.458V172.114H229.407C229.339 172.256 229.225 172.408 229.066 172.57C228.907 172.732 228.695 172.869 228.431 172.983C228.167 173.097 227.844 173.153 227.464 173.153ZM227.617 172.25C228.015 172.25 228.35 172.172 228.623 172.016C228.898 171.859 229.106 171.658 229.245 171.411C229.387 171.163 229.458 170.903 229.458 170.631V169.71C229.415 169.761 229.322 169.808 229.177 169.851C229.035 169.891 228.87 169.926 228.683 169.957C228.498 169.986 228.317 170.011 228.141 170.034C227.968 170.054 227.827 170.071 227.719 170.085C227.458 170.119 227.214 170.175 226.987 170.251C226.762 170.325 226.58 170.437 226.441 170.588C226.305 170.736 226.237 170.937 226.237 171.193C226.237 171.543 226.366 171.807 226.624 171.986C226.886 172.162 227.217 172.25 227.617 172.25ZM233.305 164.273V173H232.299V164.273H233.305Z" fill="#4A5568"/>
<path d="M204.42 201.636C204.42 202.557 204.254 203.352 203.922 204.023C203.589 204.693 203.134 205.21 202.554 205.574C201.974 205.938 201.313 206.119 200.568 206.119C199.824 206.119 199.162 205.938 198.582 205.574C198.003 205.21 197.547 204.693 197.214 204.023C196.882 203.352 196.716 202.557 196.716 201.636C196.716 200.716 196.882 199.92 197.214 199.25C197.547 198.58 198.003 198.062 198.582 197.699C199.162 197.335 199.824 197.153 200.568 197.153C201.313 197.153 201.974 197.335 202.554 197.699C203.134 198.062 203.589 198.58 203.922 199.25C204.254 199.92 204.42 200.716 204.42 201.636ZM203.398 201.636C203.398 200.881 203.271 200.243 203.018 199.723C202.768 199.203 202.429 198.81 202 198.543C201.574 198.276 201.097 198.142 200.568 198.142C200.04 198.142 199.561 198.276 199.132 198.543C198.706 198.81 198.366 199.203 198.114 199.723C197.864 200.243 197.739 200.881 197.739 201.636C197.739 202.392 197.864 203.03 198.114 203.55C198.366 204.07 198.706 204.463 199.132 204.73C199.561 204.997 200.04 205.131 200.568 205.131C201.097 205.131 201.574 204.997 202 204.73C202.429 204.463 202.768 204.07 203.018 203.55C203.271 203.03 203.398 202.392 203.398 201.636ZM206.061 208.455V199.455H207.033V200.494H207.152C207.226 200.381 207.328 200.236 207.459 200.06C207.592 199.881 207.783 199.722 208.03 199.582C208.28 199.44 208.618 199.369 209.044 199.369C209.595 199.369 210.081 199.507 210.501 199.783C210.922 200.058 211.25 200.449 211.486 200.955C211.722 201.46 211.839 202.057 211.839 202.744C211.839 203.438 211.722 204.038 211.486 204.547C211.25 205.053 210.923 205.445 210.506 205.723C210.088 205.999 209.607 206.136 209.061 206.136C208.641 206.136 208.304 206.067 208.051 205.928C207.798 205.786 207.604 205.625 207.467 205.446C207.331 205.264 207.226 205.114 207.152 204.994H207.067V208.455H206.061ZM207.05 202.727C207.05 203.222 207.122 203.658 207.267 204.036C207.412 204.411 207.624 204.705 207.902 204.918C208.18 205.128 208.521 205.233 208.925 205.233C209.345 205.233 209.696 205.122 209.977 204.901C210.261 204.676 210.474 204.375 210.616 203.997C210.761 203.616 210.834 203.193 210.834 202.727C210.834 202.267 210.763 201.852 210.621 201.483C210.482 201.111 210.27 200.817 209.986 200.601C209.705 200.382 209.351 200.273 208.925 200.273C208.516 200.273 208.172 200.376 207.893 200.584C207.615 200.788 207.405 201.075 207.263 201.445C207.121 201.811 207.05 202.239 207.05 202.727ZM216.118 206.136C215.487 206.136 214.943 205.997 214.486 205.719C214.031 205.438 213.68 205.045 213.433 204.543C213.189 204.037 213.067 203.449 213.067 202.778C213.067 202.108 213.189 201.517 213.433 201.006C213.68 200.491 214.024 200.091 214.464 199.804C214.908 199.514 215.425 199.369 216.016 199.369C216.357 199.369 216.693 199.426 217.026 199.54C217.358 199.653 217.661 199.838 217.933 200.094C218.206 200.347 218.423 200.682 218.585 201.099C218.747 201.517 218.828 202.031 218.828 202.642V203.068H213.783V202.199H217.805C217.805 201.83 217.732 201.5 217.584 201.21C217.439 200.92 217.232 200.692 216.962 200.524C216.695 200.357 216.379 200.273 216.016 200.273C215.615 200.273 215.268 200.372 214.976 200.571C214.686 200.767 214.463 201.023 214.307 201.338C214.151 201.653 214.072 201.991 214.072 202.352V202.932C214.072 203.426 214.158 203.845 214.328 204.189C214.501 204.53 214.741 204.79 215.048 204.969C215.355 205.145 215.712 205.233 216.118 205.233C216.382 205.233 216.621 205.196 216.834 205.122C217.05 205.045 217.236 204.932 217.392 204.781C217.548 204.628 217.669 204.437 217.754 204.21L218.726 204.483C218.624 204.812 218.452 205.102 218.21 205.352C217.969 205.599 217.67 205.793 217.315 205.932C216.96 206.068 216.561 206.136 216.118 206.136ZM221.364 202.062V206H220.358V199.455H221.33V200.477H221.415C221.568 200.145 221.801 199.878 222.114 199.676C222.426 199.472 222.83 199.369 223.324 199.369C223.767 199.369 224.155 199.46 224.487 199.642C224.82 199.821 225.078 200.094 225.263 200.46C225.447 200.824 225.54 201.284 225.54 201.841V206H224.534V201.909C224.534 201.395 224.401 200.994 224.134 200.707C223.866 200.418 223.5 200.273 223.034 200.273C222.713 200.273 222.426 200.342 222.173 200.482C221.923 200.621 221.726 200.824 221.581 201.091C221.436 201.358 221.364 201.682 221.364 202.062ZM227.872 206H226.764L229.968 197.273H231.059L234.264 206H233.156L230.548 198.653H230.48L227.872 206ZM228.281 202.591H232.747V203.528H228.281V202.591ZM236.68 197.273V206H235.623V197.273H236.68Z" fill="#4A5568"/>
<path d="M197.415 239H196.307L199.511 230.273H200.602L203.807 239H202.699L200.091 231.653H200.023L197.415 239ZM197.824 235.591H202.29V236.528H197.824V235.591ZM206.036 235.062V239H205.03V232.455H206.001V233.477H206.087C206.24 233.145 206.473 232.878 206.786 232.676C207.098 232.472 207.501 232.369 207.996 232.369C208.439 232.369 208.827 232.46 209.159 232.642C209.491 232.821 209.75 233.094 209.935 233.46C210.119 233.824 210.212 234.284 210.212 234.841V239H209.206V234.909C209.206 234.395 209.072 233.994 208.805 233.707C208.538 233.418 208.172 233.273 207.706 233.273C207.385 233.273 207.098 233.342 206.845 233.482C206.595 233.621 206.398 233.824 206.253 234.091C206.108 234.358 206.036 234.682 206.036 235.062ZM214.896 232.455V233.307H211.504V232.455H214.896ZM212.493 230.886H213.498V237.125C213.498 237.409 213.539 237.622 213.622 237.764C213.707 237.903 213.815 237.997 213.946 238.045C214.079 238.091 214.22 238.114 214.368 238.114C214.478 238.114 214.569 238.108 214.64 238.097C214.711 238.082 214.768 238.071 214.811 238.062L215.015 238.966C214.947 238.991 214.852 239.017 214.73 239.043C214.608 239.071 214.453 239.085 214.265 239.085C213.981 239.085 213.703 239.024 213.43 238.902C213.16 238.78 212.936 238.594 212.757 238.344C212.581 238.094 212.493 237.778 212.493 237.398V230.886ZM217.555 235.062V239H216.549V230.273H217.555V233.477H217.64C217.794 233.139 218.024 232.871 218.331 232.672C218.64 232.47 219.052 232.369 219.566 232.369C220.012 232.369 220.403 232.459 220.738 232.638C221.074 232.814 221.333 233.085 221.518 233.452C221.706 233.815 221.799 234.278 221.799 234.841V239H220.794V234.909C220.794 234.389 220.659 233.987 220.389 233.703C220.122 233.416 219.751 233.273 219.277 233.273C218.947 233.273 218.652 233.342 218.39 233.482C218.132 233.621 217.927 233.824 217.777 234.091C217.629 234.358 217.555 234.682 217.555 235.062ZM223.639 239V232.455H224.611V233.443H224.679C224.798 233.119 225.014 232.857 225.327 232.655C225.639 232.453 225.991 232.352 226.384 232.352C226.457 232.352 226.55 232.354 226.661 232.357C226.771 232.359 226.855 232.364 226.912 232.369V233.392C226.878 233.384 226.8 233.371 226.678 233.354C226.558 233.334 226.432 233.324 226.298 233.324C225.98 233.324 225.696 233.391 225.446 233.524C225.199 233.655 225.003 233.837 224.858 234.07C224.716 234.3 224.645 234.562 224.645 234.858V239H223.639ZM230.564 239.136C229.973 239.136 229.455 238.996 229.009 238.714C228.565 238.433 228.219 238.04 227.969 237.534C227.722 237.028 227.598 236.437 227.598 235.761C227.598 235.08 227.722 234.484 227.969 233.976C228.219 233.467 228.565 233.072 229.009 232.791C229.455 232.51 229.973 232.369 230.564 232.369C231.155 232.369 231.672 232.51 232.115 232.791C232.561 233.072 232.908 233.467 233.155 233.976C233.405 234.484 233.53 235.08 233.53 235.761C233.53 236.437 233.405 237.028 233.155 237.534C232.908 238.04 232.561 238.433 232.115 238.714C231.672 238.996 231.155 239.136 230.564 239.136ZM230.564 238.233C231.013 238.233 231.382 238.118 231.672 237.888C231.962 237.658 232.176 237.355 232.315 236.98C232.455 236.605 232.524 236.199 232.524 235.761C232.524 235.324 232.455 234.916 232.315 234.538C232.176 234.161 231.962 233.855 231.672 233.622C231.382 233.389 231.013 233.273 230.564 233.273C230.115 233.273 229.746 233.389 229.456 233.622C229.166 233.855 228.952 234.161 228.812 234.538C228.673 234.916 228.604 235.324 228.604 235.761C228.604 236.199 228.673 236.605 228.812 236.98C228.952 237.355 229.166 237.658 229.456 237.888C229.746 238.118 230.115 238.233 230.564 238.233ZM235.065 241.455V232.455H236.037V233.494H236.156C236.23 233.381 236.332 233.236 236.463 233.06C236.596 232.881 236.787 232.722 237.034 232.582C237.284 232.44 237.622 232.369 238.048 232.369C238.599 232.369 239.085 232.507 239.505 232.783C239.926 233.058 240.254 233.449 240.49 233.955C240.725 234.46 240.843 235.057 240.843 235.744C240.843 236.438 240.725 237.038 240.49 237.547C240.254 238.053 239.927 238.445 239.51 238.723C239.092 238.999 238.61 239.136 238.065 239.136C237.645 239.136 237.308 239.067 237.055 238.928C236.802 238.786 236.608 238.625 236.471 238.446C236.335 238.264 236.23 238.114 236.156 237.994H236.071V241.455H235.065ZM236.054 235.727C236.054 236.222 236.126 236.658 236.271 237.036C236.416 237.411 236.627 237.705 236.906 237.918C237.184 238.128 237.525 238.233 237.929 238.233C238.349 238.233 238.7 238.122 238.981 237.901C239.265 237.676 239.478 237.375 239.62 236.997C239.765 236.616 239.838 236.193 239.838 235.727C239.838 235.267 239.767 234.852 239.625 234.483C239.485 234.111 239.274 233.817 238.99 233.601C238.708 233.382 238.355 233.273 237.929 233.273C237.52 233.273 237.176 233.376 236.897 233.584C236.619 233.788 236.409 234.075 236.267 234.445C236.125 234.811 236.054 235.239 236.054 235.727ZM242.377 239V232.455H243.383V239H242.377ZM242.889 231.364C242.693 231.364 242.524 231.297 242.382 231.163C242.243 231.03 242.173 230.869 242.173 230.682C242.173 230.494 242.243 230.334 242.382 230.2C242.524 230.067 242.693 230 242.889 230C243.085 230 243.252 230.067 243.392 230.2C243.534 230.334 243.605 230.494 243.605 230.682C243.605 230.869 243.534 231.03 243.392 231.163C243.252 231.297 243.085 231.364 242.889 231.364ZM247.884 239.136C247.271 239.136 246.742 238.991 246.299 238.702C245.856 238.412 245.515 238.013 245.276 237.504C245.038 236.996 244.918 236.415 244.918 235.761C244.918 235.097 245.04 234.51 245.285 234.001C245.532 233.49 245.876 233.091 246.316 232.804C246.759 232.514 247.276 232.369 247.867 232.369C248.327 232.369 248.742 232.455 249.112 232.625C249.481 232.795 249.783 233.034 250.019 233.341C250.255 233.648 250.401 234.006 250.458 234.415H249.452C249.376 234.116 249.205 233.852 248.941 233.622C248.68 233.389 248.327 233.273 247.884 233.273C247.492 233.273 247.148 233.375 246.853 233.58C246.56 233.781 246.332 234.067 246.167 234.436C246.005 234.803 245.924 235.233 245.924 235.727C245.924 236.233 246.004 236.673 246.163 237.048C246.325 237.423 246.552 237.714 246.844 237.922C247.14 238.129 247.487 238.233 247.884 238.233C248.146 238.233 248.383 238.188 248.596 238.097C248.809 238.006 248.989 237.875 249.137 237.705C249.285 237.534 249.39 237.33 249.452 237.091H250.458C250.401 237.477 250.261 237.825 250.036 238.135C249.815 238.442 249.521 238.686 249.154 238.868C248.79 239.047 248.367 239.136 247.884 239.136Z" fill="#4A5568"/>
</g>
<path d="M43 153C43 149.686 45.6863 147 49 147H172C175.314 147 178 149.686 178 153V171C178 174.314 175.314 177 172 177H49C45.6863 177 43 174.314 43 171V153Z" fill="#CFCFCF"/>
<path d="M72.3789 162.725C72.3789 161.889 72.2461 161.258 71.9805 160.832C71.7148 160.406 71.3223 160.193 70.8027 160.193C70.2793 160.193 69.8828 160.408 69.6133 160.838C69.3438 161.264 69.209 161.893 69.209 162.725C69.209 163.553 69.3438 164.182 69.6133 164.611C69.8828 165.041 70.2793 165.256 70.8027 165.256C71.3223 165.256 71.7148 165.043 71.9805 164.617C72.2461 164.191 72.3789 163.561 72.3789 162.725ZM69.209 160.275C69.3809 159.955 69.6172 159.709 69.918 159.537C70.2227 159.365 70.5742 159.279 70.9727 159.279C71.7617 159.279 72.3828 159.584 72.8359 160.193C73.2891 160.799 73.5156 161.635 73.5156 162.701C73.5156 163.783 73.2871 164.633 72.8301 165.25C72.377 165.863 71.7539 166.17 70.9609 166.17C70.5703 166.17 70.2246 166.086 69.9238 165.918C69.627 165.746 69.3887 165.498 69.209 165.174V166H68.1309V156.883H69.209V160.275ZM77.8398 160.193C77.293 160.193 76.8789 160.406 76.5977 160.832C76.3164 161.258 76.1758 161.889 76.1758 162.725C76.1758 163.557 76.3164 164.188 76.5977 164.617C76.8789 165.043 77.293 165.256 77.8398 165.256C78.3906 165.256 78.8066 165.043 79.0879 164.617C79.3691 164.188 79.5098 163.557 79.5098 162.725C79.5098 161.889 79.3691 161.258 79.0879 160.832C78.8066 160.406 78.3906 160.193 77.8398 160.193ZM77.8398 159.279C78.75 159.279 79.4453 159.574 79.9258 160.164C80.4102 160.754 80.6523 161.607 80.6523 162.725C80.6523 163.846 80.4121 164.701 79.9316 165.291C79.4512 165.877 78.7539 166.17 77.8398 166.17C76.9297 166.17 76.2344 165.877 75.7539 165.291C75.2734 164.701 75.0332 163.846 75.0332 162.725C75.0332 161.607 75.2734 160.754 75.7539 160.164C76.2344 159.574 76.9297 159.279 77.8398 159.279ZM88.2285 160.791C87.998 160.611 87.7637 160.48 87.5254 160.398C87.2871 160.316 87.0254 160.275 86.7402 160.275C86.0684 160.275 85.5547 160.486 85.1992 160.908C84.8438 161.33 84.666 161.939 84.666 162.736V166H83.582V159.438H84.666V160.721C84.8457 160.256 85.1211 159.9 85.4922 159.654C85.8672 159.404 86.3105 159.279 86.8223 159.279C87.0879 159.279 87.3359 159.312 87.5664 159.379C87.7969 159.445 88.0176 159.549 88.2285 159.689V160.791ZM93.7188 160.275V156.883H94.7969V166H93.7188V165.174C93.5391 165.498 93.2988 165.746 92.998 165.918C92.7012 166.086 92.3574 166.17 91.9668 166.17C91.1738 166.17 90.5488 165.863 90.0918 165.25C89.6387 164.633 89.4121 163.783 89.4121 162.701C89.4121 161.635 89.6406 160.799 90.0977 160.193C90.5547 159.584 91.1777 159.279 91.9668 159.279C92.3613 159.279 92.709 159.365 93.0098 159.537C93.3105 159.705 93.5469 159.951 93.7188 160.275ZM90.5488 162.725C90.5488 163.561 90.6816 164.191 90.9473 164.617C91.2129 165.043 91.6055 165.256 92.125 165.256C92.6445 165.256 93.0391 165.041 93.3086 164.611C93.582 164.182 93.7188 163.553 93.7188 162.725C93.7188 161.893 93.582 161.264 93.3086 160.838C93.0391 160.408 92.6445 160.193 92.125 160.193C91.6055 160.193 91.2129 160.406 90.9473 160.832C90.6816 161.258 90.5488 161.889 90.5488 162.725ZM102.484 162.18V162.707H97.8145V162.742C97.7832 163.637 97.9531 164.279 98.3242 164.67C98.6992 165.061 99.2266 165.256 99.9062 165.256C100.25 165.256 100.609 165.201 100.984 165.092C101.359 164.982 101.76 164.816 102.186 164.594V165.666C101.775 165.834 101.379 165.959 100.996 166.041C100.617 166.127 100.25 166.17 99.8945 166.17C98.875 166.17 98.0781 165.865 97.5039 165.256C96.9297 164.643 96.6426 163.799 96.6426 162.725C96.6426 161.678 96.9238 160.842 97.4863 160.217C98.0488 159.592 98.7988 159.279 99.7363 159.279C100.572 159.279 101.23 159.562 101.711 160.129C102.195 160.695 102.453 161.379 102.484 162.18ZM101.406 161.863C101.359 161.41 101.193 161.02 100.908 160.691C100.627 160.359 100.221 160.193 99.6895 160.193C99.1699 160.193 98.7422 160.365 98.4062 160.709C98.0703 161.053 97.8867 161.439 97.8555 161.869L101.406 161.863ZM109.92 160.791C109.689 160.611 109.455 160.48 109.217 160.398C108.979 160.316 108.717 160.275 108.432 160.275C107.76 160.275 107.246 160.486 106.891 160.908C106.535 161.33 106.357 161.939 106.357 162.736V166H105.273V159.438H106.357V160.721C106.537 160.256 106.812 159.9 107.184 159.654C107.559 159.404 108.002 159.279 108.514 159.279C108.779 159.279 109.027 159.312 109.258 159.379C109.488 159.445 109.709 159.549 109.92 159.689V160.791ZM110.98 161.758H117.191V162.748H110.98V161.758ZM121.826 163.627C121.826 164.111 121.914 164.477 122.09 164.723C122.27 164.969 122.533 165.092 122.881 165.092H124.141V166H122.775C122.131 166 121.631 165.795 121.275 165.385C120.924 164.971 120.748 164.385 120.748 163.627V157.691H119.02V156.848H121.826V163.627ZM126.695 159.461H129.455V165.162H131.594V166H126.238V165.162H128.377V160.299H126.695V159.461ZM128.377 156.912H129.455V158.271H128.377V156.912ZM137.102 162.666C137.102 161.857 136.969 161.244 136.703 160.826C136.441 160.404 136.059 160.193 135.555 160.193C135.027 160.193 134.625 160.404 134.348 160.826C134.07 161.244 133.932 161.857 133.932 162.666C133.932 163.475 134.07 164.092 134.348 164.518C134.629 164.939 135.035 165.15 135.566 165.15C136.062 165.15 136.441 164.938 136.703 164.512C136.969 164.086 137.102 163.471 137.102 162.666ZM138.18 165.578C138.18 166.562 137.947 167.309 137.482 167.816C137.018 168.324 136.334 168.578 135.432 168.578C135.135 168.578 134.824 168.551 134.5 168.496C134.176 168.441 133.852 168.361 133.527 168.256V167.189C133.91 167.369 134.258 167.502 134.57 167.588C134.883 167.674 135.17 167.717 135.432 167.717C136.014 167.717 136.438 167.559 136.703 167.242C136.969 166.926 137.102 166.424 137.102 165.736V165.689V164.957C136.93 165.324 136.695 165.598 136.398 165.777C136.102 165.957 135.74 166.047 135.314 166.047C134.549 166.047 133.938 165.74 133.48 165.127C133.023 164.514 132.795 163.693 132.795 162.666C132.795 161.635 133.023 160.812 133.48 160.199C133.938 159.586 134.549 159.279 135.314 159.279C135.736 159.279 136.094 159.363 136.387 159.531C136.68 159.699 136.918 159.959 137.102 160.311V159.461H138.18V165.578ZM145.463 161.934V166H144.379V161.934C144.379 161.344 144.275 160.91 144.068 160.633C143.861 160.355 143.537 160.217 143.096 160.217C142.592 160.217 142.203 160.396 141.93 160.756C141.66 161.111 141.525 161.623 141.525 162.291V166H140.447V156.883H141.525V160.422C141.717 160.047 141.977 159.764 142.305 159.572C142.633 159.377 143.021 159.279 143.471 159.279C144.139 159.279 144.637 159.5 144.965 159.941C145.297 160.379 145.463 161.043 145.463 161.934ZM150.133 157.574V159.438H152.582V160.275H150.133V163.838C150.133 164.322 150.225 164.66 150.408 164.852C150.592 165.043 150.912 165.139 151.369 165.139H152.582V166H151.264C150.455 166 149.885 165.838 149.553 165.514C149.221 165.189 149.055 164.631 149.055 163.838V160.275H147.303V159.438H149.055V157.574H150.133Z" fill="black"/>
<path d="M45 197C45 193.686 47.6863 191 51 191H153C156.314 191 159 193.686 159 197V215C159 218.314 156.314 221 153 221H51C47.6863 221 45 218.314 45 215V197Z" fill="#CFCFCF"/>
<path d="M74.7012 203.666V204.721C74.3926 204.541 74.082 204.406 73.7695 204.316C73.457 204.227 73.1387 204.182 72.8145 204.182C72.3262 204.182 71.9609 204.262 71.7188 204.422C71.4805 204.578 71.3613 204.818 71.3613 205.143C71.3613 205.436 71.4512 205.654 71.6309 205.799C71.8105 205.943 72.2578 206.084 72.9727 206.221L73.4062 206.303C73.9414 206.404 74.3457 206.607 74.6191 206.912C74.8965 207.217 75.0352 207.613 75.0352 208.102C75.0352 208.75 74.8047 209.258 74.3438 209.625C73.8828 209.988 73.2422 210.17 72.4219 210.17C72.0977 210.17 71.7578 210.135 71.4023 210.064C71.0469 209.998 70.6621 209.896 70.248 209.76V208.646C70.6504 208.854 71.0352 209.01 71.4023 209.115C71.7695 209.217 72.1172 209.268 72.4453 209.268C72.9219 209.268 73.291 209.172 73.5527 208.98C73.8145 208.785 73.9453 208.514 73.9453 208.166C73.9453 207.666 73.4668 207.32 72.5098 207.129L72.4629 207.117L72.0586 207.035C71.4375 206.914 70.9844 206.711 70.6992 206.426C70.4141 206.137 70.2715 205.744 70.2715 205.248C70.2715 204.619 70.4844 204.135 70.9102 203.795C71.3359 203.451 71.9434 203.279 72.7324 203.279C73.084 203.279 73.4219 203.312 73.7461 203.379C74.0703 203.441 74.3887 203.537 74.7012 203.666ZM82.3887 205.934V210H81.3047V205.934C81.3047 205.344 81.2012 204.91 80.9941 204.633C80.7871 204.355 80.4629 204.217 80.0215 204.217C79.5176 204.217 79.1289 204.396 78.8555 204.756C78.5859 205.111 78.4512 205.623 78.4512 206.291V210H77.373V200.883H78.4512V204.422C78.6426 204.047 78.9023 203.764 79.2305 203.572C79.5586 203.377 79.9473 203.279 80.3965 203.279C81.0645 203.279 81.5625 203.5 81.8906 203.941C82.2227 204.379 82.3887 205.043 82.3887 205.934ZM87.5742 206.701H87.2168C86.5879 206.701 86.1133 206.812 85.793 207.035C85.4766 207.254 85.3184 207.582 85.3184 208.02C85.3184 208.414 85.4375 208.721 85.6758 208.939C85.9141 209.158 86.2441 209.268 86.666 209.268C87.2598 209.268 87.7266 209.062 88.0664 208.652C88.4062 208.238 88.5781 207.668 88.582 206.941V206.701H87.5742ZM89.666 206.256V210H88.582V209.027C88.3516 209.418 88.0605 209.707 87.709 209.895C87.3613 210.078 86.9375 210.17 86.4375 210.17C85.7695 210.17 85.2363 209.982 84.8379 209.607C84.4395 209.229 84.2402 208.723 84.2402 208.09C84.2402 207.359 84.4844 206.805 84.9727 206.426C85.4648 206.047 86.1855 205.857 87.1348 205.857H88.582V205.688C88.5781 205.164 88.4453 204.785 88.1836 204.551C87.9219 204.312 87.5039 204.193 86.9297 204.193C86.5625 204.193 86.1914 204.246 85.8164 204.352C85.4414 204.457 85.0762 204.611 84.7207 204.814V203.736C85.1191 203.584 85.5 203.471 85.8633 203.396C86.2305 203.318 86.5859 203.279 86.9297 203.279C87.4727 203.279 87.9355 203.359 88.3184 203.52C88.7051 203.68 89.0176 203.92 89.2559 204.24C89.4043 204.436 89.5098 204.678 89.5723 204.967C89.6348 205.252 89.666 205.682 89.666 206.256ZM95.7188 204.275V200.883H96.7969V210H95.7188V209.174C95.5391 209.498 95.2988 209.746 94.998 209.918C94.7012 210.086 94.3574 210.17 93.9668 210.17C93.1738 210.17 92.5488 209.863 92.0918 209.25C91.6387 208.633 91.4121 207.783 91.4121 206.701C91.4121 205.635 91.6406 204.799 92.0977 204.193C92.5547 203.584 93.1777 203.279 93.9668 203.279C94.3613 203.279 94.709 203.365 95.0098 203.537C95.3105 203.705 95.5469 203.951 95.7188 204.275ZM92.5488 206.725C92.5488 207.561 92.6816 208.191 92.9473 208.617C93.2129 209.043 93.6055 209.256 94.125 209.256C94.6445 209.256 95.0391 209.041 95.3086 208.611C95.582 208.182 95.7188 207.553 95.7188 206.725C95.7188 205.893 95.582 205.264 95.3086 204.838C95.0391 204.408 94.6445 204.193 94.125 204.193C93.6055 204.193 93.2129 204.406 92.9473 204.832C92.6816 205.258 92.5488 205.889 92.5488 206.725ZM101.531 204.193C100.984 204.193 100.57 204.406 100.289 204.832C100.008 205.258 99.8672 205.889 99.8672 206.725C99.8672 207.557 100.008 208.188 100.289 208.617C100.57 209.043 100.984 209.256 101.531 209.256C102.082 209.256 102.498 209.043 102.779 208.617C103.061 208.188 103.201 207.557 103.201 206.725C103.201 205.889 103.061 205.258 102.779 204.832C102.498 204.406 102.082 204.193 101.531 204.193ZM101.531 203.279C102.441 203.279 103.137 203.574 103.617 204.164C104.102 204.754 104.344 205.607 104.344 206.725C104.344 207.846 104.104 208.701 103.623 209.291C103.143 209.877 102.445 210.17 101.531 210.17C100.621 210.17 99.9258 209.877 99.4453 209.291C98.9648 208.701 98.7246 207.846 98.7246 206.725C98.7246 205.607 98.9648 204.754 99.4453 204.164C99.9258 203.574 100.621 203.279 101.531 203.279ZM105.152 203.438H106.219L107.361 208.74L108.299 205.354H109.219L110.168 208.74L111.311 203.438H112.377L110.842 210H109.811L108.762 206.402L107.719 210H106.688L105.152 203.438ZM112.98 205.758H119.191V206.748H112.98V205.758ZM123.826 207.627C123.826 208.111 123.914 208.477 124.09 208.723C124.27 208.969 124.533 209.092 124.881 209.092H126.141V210H124.775C124.131 210 123.631 209.795 123.275 209.385C122.924 208.971 122.748 208.385 122.748 207.627V201.691H121.02V200.848H123.826V207.627ZM131.871 206.666C131.871 205.857 131.738 205.244 131.473 204.826C131.211 204.404 130.828 204.193 130.324 204.193C129.797 204.193 129.395 204.404 129.117 204.826C128.84 205.244 128.701 205.857 128.701 206.666C128.701 207.475 128.84 208.092 129.117 208.518C129.398 208.939 129.805 209.15 130.336 209.15C130.832 209.15 131.211 208.938 131.473 208.512C131.738 208.086 131.871 207.471 131.871 206.666ZM132.949 209.578C132.949 210.562 132.717 211.309 132.252 211.816C131.787 212.324 131.104 212.578 130.201 212.578C129.904 212.578 129.594 212.551 129.27 212.496C128.945 212.441 128.621 212.361 128.297 212.256V211.189C128.68 211.369 129.027 211.502 129.34 211.588C129.652 211.674 129.939 211.717 130.201 211.717C130.783 211.717 131.207 211.559 131.473 211.242C131.738 210.926 131.871 210.424 131.871 209.736V209.689V208.957C131.699 209.324 131.465 209.598 131.168 209.777C130.871 209.957 130.51 210.047 130.084 210.047C129.318 210.047 128.707 209.74 128.25 209.127C127.793 208.514 127.564 207.693 127.564 206.666C127.564 205.635 127.793 204.812 128.25 204.199C128.707 203.586 129.318 203.279 130.084 203.279C130.506 203.279 130.863 203.363 131.156 203.531C131.449 203.699 131.688 203.959 131.871 204.311V203.461H132.949V209.578Z" fill="black"/>
<line x1="159" y1="204.5" x2="186" y2="204.5" stroke="#CFCFCF"/>
<line x1="178" y1="163.5" x2="186" y2="163.5" stroke="#CFCFCF"/>
<defs>
<filter id="filter0_dd_257_1269" x="171" y="142" width="200" height="139" filterUnits="userSpaceOnUse" color-interpolation-filters="sRGB">
<feFlood flood-opacity="0" result="BackgroundImageFix"/>
<feColorMatrix in="SourceAlpha" type="matrix" values="0 0 0 0 0 0 0 0 0 0 0 0 0 0 0 0 0 0 127 0" result="hardAlpha"/>
<feOffset dy="4"/>
<feGaussianBlur stdDeviation="3"/>
<feColorMatrix type="matrix" values="0 0 0 0 0 0 0 0 0 0 0 0 0 0 0 0 0 0 0.05 0"/>
<feBlend mode="normal" in2="BackgroundImageFix" result="effect1_dropShadow_257_1269"/>
<feColorMatrix in="SourceAlpha" type="matrix" values="0 0 0 0 0 0 0 0 0 0 0 0 0 0 0 0 0 0 127 0" result="hardAlpha"/>
<feOffset dy="10"/>
<feGaussianBlur stdDeviation="7.5"/>
<feColorMatrix type="matrix" values="0 0 0 0 0 0 0 0 0 0 0 0 0 0 0 0 0 0 0.1 0"/>
<feBlend mode="normal" in2="effect1_dropShadow_257_1269" result="effect2_dropShadow_257_1269"/>
<feBlend mode="normal" in="SourceGraphic" in2="effect2_dropShadow_257_1269" result="shape"/>
</filter>
</defs>
</svg>
