<svg width="400" height="400" viewBox="0 0 400 400" fill="none" xmlns="http://www.w3.org/2000/svg">
<path d="M0 5.99999C0 2.68629 2.68629 0 6 0H394C397.314 0 400 2.68629 400 6V394C400 397.314 397.314 400 394 400H5.99999C2.68629 400 0 397.314 0 394V5.99999Z" fill="#FBFBFD"/>
<path d="M14 17C14 13.6863 16.6863 11 20 11H165C168.314 11 171 13.6863 171 17V35C171 38.3137 168.314 41 165 41H20C16.6863 41 14 38.3137 14 35V17Z" fill="#CFCFCF"/>
<path d="M43.7012 23.666V24.7207C43.3926 24.541 43.082 24.4062 42.7695 24.3164C42.457 24.2266 42.1387 24.1816 41.8145 24.1816C41.3262 24.1816 40.9609 24.2617 40.7188 24.4219C40.4805 24.5781 40.3613 24.8184 40.3613 25.1426C40.3613 25.4355 40.4512 25.6543 40.6309 25.7988C40.8105 25.9434 41.2578 26.084 41.9727 26.2207L42.4062 26.3027C42.9414 26.4043 43.3457 26.6074 43.6191 26.9121C43.8965 27.2168 44.0352 27.6133 44.0352 28.1016C44.0352 28.75 43.8047 29.2578 43.3438 29.625C42.8828 29.9883 42.2422 30.1699 41.4219 30.1699C41.0977 30.1699 40.7578 30.1348 40.4023 30.0645C40.0469 29.998 39.6621 29.8965 39.248 29.7598V28.6465C39.6504 28.8535 40.0352 29.0098 40.4023 29.1152C40.7695 29.2168 41.1172 29.2676 41.4453 29.2676C41.9219 29.2676 42.291 29.1719 42.5527 28.9805C42.8145 28.7852 42.9453 28.5137 42.9453 28.166C42.9453 27.666 42.4668 27.3203 41.5098 27.1289L41.4629 27.1172L41.0586 27.0352C40.4375 26.9141 39.9844 26.7109 39.6992 26.4258C39.4141 26.1367 39.2715 25.7441 39.2715 25.248C39.2715 24.6191 39.4844 24.1348 39.9102 23.7949C40.3359 23.4512 40.9434 23.2793 41.7324 23.2793C42.084 23.2793 42.4219 23.3125 42.7461 23.3789C43.0703 23.4414 43.3887 23.5371 43.7012 23.666ZM46.373 27.5156V23.4492H47.4512V27.5156C47.4512 28.1055 47.5547 28.5391 47.7617 28.8164C47.9727 29.0938 48.2969 29.2324 48.7344 29.2324C49.2422 29.2324 49.6309 29.0547 49.9004 28.6992C50.1699 28.3398 50.3047 27.8262 50.3047 27.1582V23.4492H51.3887V30H50.3047V29.0156C50.1133 29.3945 49.8516 29.6816 49.5195 29.877C49.1914 30.0723 48.8066 30.1699 48.3652 30.1699C47.6934 30.1699 47.1934 29.9512 46.8652 29.5137C46.5371 29.0723 46.373 28.4062 46.373 27.5156ZM59.2285 24.791C58.998 24.6113 58.7637 24.4805 58.5254 24.3984C58.2871 24.3164 58.0254 24.2754 57.7402 24.2754C57.0684 24.2754 56.5547 24.4863 56.1992 24.9082C55.8438 25.3301 55.666 25.9395 55.666 26.7363V30H54.582V23.4375H55.666V24.7207C55.8457 24.2559 56.1211 23.9004 56.4922 23.6543C56.8672 23.4043 57.3105 23.2793 57.8223 23.2793C58.0879 23.2793 58.3359 23.3125 58.5664 23.3789C58.7969 23.4453 59.0176 23.5488 59.2285 23.6895V24.791ZM65.9199 20.8828V21.7793H64.6953C64.3086 21.7793 64.0391 21.8594 63.8867 22.0195C63.7383 22.1758 63.6641 22.4551 63.6641 22.8574V23.4375H65.9199V24.2754H63.6641V30H62.5859V24.2754H60.834V23.4375H62.5859V22.9805C62.5859 22.2617 62.75 21.7324 63.0781 21.3926C63.4102 21.0527 63.9258 20.8828 64.625 20.8828H65.9199ZM71.0352 26.7012H70.6777C70.0488 26.7012 69.5742 26.8125 69.2539 27.0352C68.9375 27.2539 68.7793 27.582 68.7793 28.0195C68.7793 28.4141 68.8984 28.7207 69.1367 28.9395C69.375 29.1582 69.7051 29.2676 70.127 29.2676C70.7207 29.2676 71.1875 29.0625 71.5273 28.6523C71.8672 28.2383 72.0391 27.668 72.043 26.9414V26.7012H71.0352ZM73.127 26.2559V30H72.043V29.0273C71.8125 29.418 71.5215 29.707 71.1699 29.8945C70.8223 30.0781 70.3984 30.1699 69.8984 30.1699C69.2305 30.1699 68.6973 29.9824 68.2988 29.6074C67.9004 29.2285 67.7012 28.7227 67.7012 28.0898C67.7012 27.3594 67.9453 26.8047 68.4336 26.4258C68.9258 26.0469 69.6465 25.8574 70.5957 25.8574H72.043V25.6875C72.0391 25.1641 71.9062 24.7852 71.6445 24.5508C71.3828 24.3125 70.9648 24.1934 70.3906 24.1934C70.0234 24.1934 69.6523 24.2461 69.2773 24.3516C68.9023 24.457 68.5371 24.6113 68.1816 24.8145V23.7363C68.5801 23.584 68.9609 23.4707 69.3242 23.3965C69.6914 23.3184 70.0469 23.2793 70.3906 23.2793C70.9336 23.2793 71.3965 23.3594 71.7793 23.5195C72.166 23.6797 72.4785 23.9199 72.7168 24.2402C72.8652 24.4355 72.9707 24.6777 73.0332 24.9668C73.0957 25.252 73.127 25.6816 73.127 26.2559ZM80.3691 29.666C80.0801 29.834 79.7812 29.959 79.4727 30.041C79.168 30.127 78.8555 30.1699 78.5352 30.1699C77.5195 30.1699 76.7246 29.8652 76.1504 29.2559C75.5801 28.6465 75.2949 27.8027 75.2949 26.7246C75.2949 25.6465 75.5801 24.8027 76.1504 24.1934C76.7246 23.584 77.5195 23.2793 78.5352 23.2793C78.8516 23.2793 79.1602 23.3203 79.4609 23.4023C79.7617 23.4844 80.0645 23.6113 80.3691 23.7832V24.9141C80.084 24.6602 79.7969 24.4766 79.5078 24.3633C79.2227 24.25 78.8984 24.1934 78.5352 24.1934C77.8594 24.1934 77.3398 24.4121 76.9766 24.8496C76.6133 25.2871 76.4316 25.9121 76.4316 26.7246C76.4316 27.5332 76.6133 28.1582 76.9766 28.5996C77.3438 29.0371 77.8633 29.2559 78.5352 29.2559C78.9102 29.2559 79.2461 29.1992 79.543 29.0859C79.8398 28.9688 80.1152 28.7891 80.3691 28.5469V29.666ZM87.9453 26.1797V26.707H83.2754V26.7422C83.2441 27.6367 83.4141 28.2793 83.7852 28.6699C84.1602 29.0605 84.6875 29.2559 85.3672 29.2559C85.7109 29.2559 86.0703 29.2012 86.4453 29.0918C86.8203 28.9824 87.2207 28.8164 87.6465 28.5938V29.666C87.2363 29.834 86.8398 29.959 86.457 30.041C86.0781 30.127 85.7109 30.1699 85.3555 30.1699C84.3359 30.1699 83.5391 29.8652 82.9648 29.2559C82.3906 28.6426 82.1035 27.7988 82.1035 26.7246C82.1035 25.6777 82.3848 24.8418 82.9473 24.2168C83.5098 23.5918 84.2598 23.2793 85.1973 23.2793C86.0332 23.2793 86.6914 23.5625 87.1719 24.1289C87.6562 24.6953 87.9141 25.3789 87.9453 26.1797ZM86.8672 25.8633C86.8203 25.4102 86.6543 25.0195 86.3691 24.6914C86.0879 24.3594 85.6816 24.1934 85.1504 24.1934C84.6309 24.1934 84.2031 24.3652 83.8672 24.709C83.5312 25.0527 83.3477 25.4395 83.3164 25.8691L86.8672 25.8633ZM89.2109 25.7578H95.4219V26.748H89.2109V25.7578ZM98.041 29.1738V32.4961H96.957V23.4375H98.041V24.2754C98.2207 23.9512 98.459 23.7051 98.7559 23.5371C99.0566 23.3652 99.4023 23.2793 99.793 23.2793C100.586 23.2793 101.207 23.5859 101.656 24.1992C102.109 24.8125 102.336 25.6621 102.336 26.748C102.336 27.8145 102.109 28.6523 101.656 29.2617C101.203 29.8672 100.582 30.1699 99.793 30.1699C99.3945 30.1699 99.0449 30.0859 98.7441 29.918C98.4473 29.7461 98.2129 29.498 98.041 29.1738ZM101.205 26.7246C101.205 25.8887 101.072 25.2578 100.807 24.832C100.545 24.4062 100.154 24.1934 99.6348 24.1934C99.1113 24.1934 98.7148 24.4082 98.4453 24.8379C98.1758 25.2637 98.041 25.8926 98.041 26.7246C98.041 27.5527 98.1758 28.1816 98.4453 28.6113C98.7148 29.041 99.1113 29.2559 99.6348 29.2559C100.154 29.2559 100.545 29.043 100.807 28.6172C101.072 28.1914 101.205 27.5605 101.205 26.7246ZM109.842 24.791C109.611 24.6113 109.377 24.4805 109.139 24.3984C108.9 24.3164 108.639 24.2754 108.354 24.2754C107.682 24.2754 107.168 24.4863 106.812 24.9082C106.457 25.3301 106.279 25.9395 106.279 26.7363V30H105.195V23.4375H106.279V24.7207C106.459 24.2559 106.734 23.9004 107.105 23.6543C107.48 23.4043 107.924 23.2793 108.436 23.2793C108.701 23.2793 108.949 23.3125 109.18 23.3789C109.41 23.4453 109.631 23.5488 109.842 23.6895V24.791ZM112.156 23.4609H114.916V29.1621H117.055V30H111.699V29.1621H113.838V24.2988H112.156V23.4609ZM113.838 20.9121H114.916V22.2715H113.838V20.9121ZM121.496 24.1055C121.629 23.8242 121.797 23.6172 122 23.4844C122.207 23.3477 122.455 23.2793 122.744 23.2793C123.271 23.2793 123.643 23.4844 123.857 23.8945C124.076 24.3008 124.186 25.0684 124.186 26.1973V30H123.201V26.2441C123.201 25.3184 123.148 24.7441 123.043 24.5215C122.941 24.2949 122.754 24.1816 122.48 24.1816C122.168 24.1816 121.953 24.3027 121.836 24.5449C121.723 24.7832 121.666 25.3496 121.666 26.2441V30H120.682V26.2441C120.682 25.3066 120.625 24.7285 120.512 24.5098C120.402 24.291 120.203 24.1816 119.914 24.1816C119.629 24.1816 119.43 24.3027 119.316 24.5449C119.207 24.7832 119.152 25.3496 119.152 26.2441V30H118.174V23.4375H119.152V24C119.281 23.7656 119.441 23.5879 119.633 23.4668C119.828 23.3418 120.049 23.2793 120.295 23.2793C120.592 23.2793 120.838 23.3477 121.033 23.4844C121.232 23.6211 121.387 23.8281 121.496 24.1055ZM128.879 26.7012H128.521C127.893 26.7012 127.418 26.8125 127.098 27.0352C126.781 27.2539 126.623 27.582 126.623 28.0195C126.623 28.4141 126.742 28.7207 126.98 28.9395C127.219 29.1582 127.549 29.2676 127.971 29.2676C128.564 29.2676 129.031 29.0625 129.371 28.6523C129.711 28.2383 129.883 27.668 129.887 26.9414V26.7012H128.879ZM130.971 26.2559V30H129.887V29.0273C129.656 29.418 129.365 29.707 129.014 29.8945C128.666 30.0781 128.242 30.1699 127.742 30.1699C127.074 30.1699 126.541 29.9824 126.143 29.6074C125.744 29.2285 125.545 28.7227 125.545 28.0898C125.545 27.3594 125.789 26.8047 126.277 26.4258C126.77 26.0469 127.49 25.8574 128.439 25.8574H129.887V25.6875C129.883 25.1641 129.75 24.7852 129.488 24.5508C129.227 24.3125 128.809 24.1934 128.234 24.1934C127.867 24.1934 127.496 24.2461 127.121 24.3516C126.746 24.457 126.381 24.6113 126.025 24.8145V23.7363C126.424 23.584 126.805 23.4707 127.168 23.3965C127.535 23.3184 127.891 23.2793 128.234 23.2793C128.777 23.2793 129.24 23.3594 129.623 23.5195C130.01 23.6797 130.322 23.9199 130.561 24.2402C130.709 24.4355 130.814 24.6777 130.877 24.9668C130.939 25.252 130.971 25.6816 130.971 26.2559ZM138.764 24.791C138.533 24.6113 138.299 24.4805 138.061 24.3984C137.822 24.3164 137.561 24.2754 137.275 24.2754C136.604 24.2754 136.09 24.4863 135.734 24.9082C135.379 25.3301 135.201 25.9395 135.201 26.7363V30H134.117V23.4375H135.201V24.7207C135.381 24.2559 135.656 23.9004 136.027 23.6543C136.402 23.4043 136.846 23.2793 137.357 23.2793C137.623 23.2793 137.871 23.3125 138.102 23.3789C138.332 23.4453 138.553 23.5488 138.764 23.6895V24.791ZM144.254 27.8906C144.074 28.3477 143.846 28.9492 143.568 29.6953C143.182 30.7266 142.922 31.3555 142.789 31.582C142.609 31.8867 142.385 32.1152 142.115 32.2676C141.846 32.4199 141.531 32.4961 141.172 32.4961H140.305V31.5938H140.943C141.26 31.5938 141.508 31.502 141.688 31.3184C141.867 31.1348 142.096 30.6602 142.373 29.8945L139.836 23.4375H140.979L142.924 28.5703L144.84 23.4375H145.982L144.254 27.8906Z" fill="black"/>
<rect width="319" height="315" transform="translate(81 85)" fill="#EFEFF4"/>
<path d="M95 100C95 96.6863 97.6863 94 101 94H260C263.314 94 266 96.6863 266 100V118C266 121.314 263.314 124 260 124H101C97.6863 124 95 121.314 95 118V100Z" fill="#CFCFCF"/>
<path d="M124.701 106.666V107.721C124.393 107.541 124.082 107.406 123.77 107.316C123.457 107.227 123.139 107.182 122.814 107.182C122.326 107.182 121.961 107.262 121.719 107.422C121.48 107.578 121.361 107.818 121.361 108.143C121.361 108.436 121.451 108.654 121.631 108.799C121.811 108.943 122.258 109.084 122.973 109.221L123.406 109.303C123.941 109.404 124.346 109.607 124.619 109.912C124.896 110.217 125.035 110.613 125.035 111.102C125.035 111.75 124.805 112.258 124.344 112.625C123.883 112.988 123.242 113.17 122.422 113.17C122.098 113.17 121.758 113.135 121.402 113.064C121.047 112.998 120.662 112.896 120.248 112.76V111.646C120.65 111.854 121.035 112.01 121.402 112.115C121.77 112.217 122.117 112.268 122.445 112.268C122.922 112.268 123.291 112.172 123.553 111.98C123.814 111.785 123.945 111.514 123.945 111.166C123.945 110.666 123.467 110.32 122.51 110.129L122.463 110.117L122.059 110.035C121.438 109.914 120.984 109.711 120.699 109.426C120.414 109.137 120.271 108.744 120.271 108.248C120.271 107.619 120.484 107.135 120.91 106.795C121.336 106.451 121.943 106.279 122.732 106.279C123.084 106.279 123.422 106.312 123.746 106.379C124.07 106.441 124.389 106.537 124.701 106.666ZM127.373 110.516V106.449H128.451V110.516C128.451 111.105 128.555 111.539 128.762 111.816C128.973 112.094 129.297 112.232 129.734 112.232C130.242 112.232 130.631 112.055 130.9 111.699C131.17 111.34 131.305 110.826 131.305 110.158V106.449H132.389V113H131.305V112.016C131.113 112.395 130.852 112.682 130.52 112.877C130.191 113.072 129.807 113.17 129.365 113.17C128.693 113.17 128.193 112.951 127.865 112.514C127.537 112.072 127.373 111.406 127.373 110.516ZM140.229 107.791C139.998 107.611 139.764 107.48 139.525 107.398C139.287 107.316 139.025 107.275 138.74 107.275C138.068 107.275 137.555 107.486 137.199 107.908C136.844 108.33 136.666 108.939 136.666 109.736V113H135.582V106.438H136.666V107.721C136.846 107.256 137.121 106.9 137.492 106.654C137.867 106.404 138.311 106.279 138.822 106.279C139.088 106.279 139.336 106.312 139.566 106.379C139.797 106.445 140.018 106.549 140.229 106.689V107.791ZM146.92 103.883V104.779H145.695C145.309 104.779 145.039 104.859 144.887 105.02C144.738 105.176 144.664 105.455 144.664 105.857V106.438H146.92V107.275H144.664V113H143.586V107.275H141.834V106.438H143.586V105.98C143.586 105.262 143.75 104.732 144.078 104.393C144.41 104.053 144.926 103.883 145.625 103.883H146.92ZM152.035 109.701H151.678C151.049 109.701 150.574 109.812 150.254 110.035C149.938 110.254 149.779 110.582 149.779 111.02C149.779 111.414 149.898 111.721 150.137 111.939C150.375 112.158 150.705 112.268 151.127 112.268C151.721 112.268 152.188 112.062 152.527 111.652C152.867 111.238 153.039 110.668 153.043 109.941V109.701H152.035ZM154.127 109.256V113H153.043V112.027C152.812 112.418 152.521 112.707 152.17 112.895C151.822 113.078 151.398 113.17 150.898 113.17C150.23 113.17 149.697 112.982 149.299 112.607C148.9 112.229 148.701 111.723 148.701 111.09C148.701 110.359 148.945 109.805 149.434 109.426C149.926 109.047 150.646 108.857 151.596 108.857H153.043V108.688C153.039 108.164 152.906 107.785 152.645 107.551C152.383 107.312 151.965 107.193 151.391 107.193C151.023 107.193 150.652 107.246 150.277 107.352C149.902 107.457 149.537 107.611 149.182 107.814V106.736C149.58 106.584 149.961 106.471 150.324 106.396C150.691 106.318 151.047 106.279 151.391 106.279C151.934 106.279 152.396 106.359 152.779 106.52C153.166 106.68 153.479 106.92 153.717 107.24C153.865 107.436 153.971 107.678 154.033 107.967C154.096 108.252 154.127 108.682 154.127 109.256ZM161.369 112.666C161.08 112.834 160.781 112.959 160.473 113.041C160.168 113.127 159.855 113.17 159.535 113.17C158.52 113.17 157.725 112.865 157.15 112.256C156.58 111.646 156.295 110.803 156.295 109.725C156.295 108.646 156.58 107.803 157.15 107.193C157.725 106.584 158.52 106.279 159.535 106.279C159.852 106.279 160.16 106.32 160.461 106.402C160.762 106.484 161.064 106.611 161.369 106.783V107.914C161.084 107.66 160.797 107.477 160.508 107.363C160.223 107.25 159.898 107.193 159.535 107.193C158.859 107.193 158.34 107.412 157.977 107.85C157.613 108.287 157.432 108.912 157.432 109.725C157.432 110.533 157.613 111.158 157.977 111.6C158.344 112.037 158.863 112.256 159.535 112.256C159.91 112.256 160.246 112.199 160.543 112.086C160.84 111.969 161.115 111.789 161.369 111.547V112.666ZM168.945 109.18V109.707H164.275V109.742C164.244 110.637 164.414 111.279 164.785 111.67C165.16 112.061 165.688 112.256 166.367 112.256C166.711 112.256 167.07 112.201 167.445 112.092C167.82 111.982 168.221 111.816 168.646 111.594V112.666C168.236 112.834 167.84 112.959 167.457 113.041C167.078 113.127 166.711 113.17 166.355 113.17C165.336 113.17 164.539 112.865 163.965 112.256C163.391 111.643 163.104 110.799 163.104 109.725C163.104 108.678 163.385 107.842 163.947 107.217C164.51 106.592 165.26 106.279 166.197 106.279C167.033 106.279 167.691 106.562 168.172 107.129C168.656 107.695 168.914 108.379 168.945 109.18ZM167.867 108.863C167.82 108.41 167.654 108.02 167.369 107.691C167.088 107.359 166.682 107.193 166.15 107.193C165.631 107.193 165.203 107.365 164.867 107.709C164.531 108.053 164.348 108.439 164.316 108.869L167.867 108.863ZM170.211 108.758H176.422V109.748H170.211V108.758ZM182.545 106.666V107.721C182.236 107.541 181.926 107.406 181.613 107.316C181.301 107.227 180.982 107.182 180.658 107.182C180.17 107.182 179.805 107.262 179.562 107.422C179.324 107.578 179.205 107.818 179.205 108.143C179.205 108.436 179.295 108.654 179.475 108.799C179.654 108.943 180.102 109.084 180.816 109.221L181.25 109.303C181.785 109.404 182.189 109.607 182.463 109.912C182.74 110.217 182.879 110.613 182.879 111.102C182.879 111.75 182.648 112.258 182.188 112.625C181.727 112.988 181.086 113.17 180.266 113.17C179.941 113.17 179.602 113.135 179.246 113.064C178.891 112.998 178.506 112.896 178.092 112.76V111.646C178.494 111.854 178.879 112.01 179.246 112.115C179.613 112.217 179.961 112.268 180.289 112.268C180.766 112.268 181.135 112.172 181.396 111.98C181.658 111.785 181.789 111.514 181.789 111.166C181.789 110.666 181.311 110.32 180.354 110.129L180.307 110.117L179.902 110.035C179.281 109.914 178.828 109.711 178.543 109.426C178.258 109.137 178.115 108.744 178.115 108.248C178.115 107.619 178.328 107.135 178.754 106.795C179.18 106.451 179.787 106.279 180.576 106.279C180.928 106.279 181.266 106.312 181.59 106.379C181.914 106.441 182.232 106.537 182.545 106.666ZM190.637 109.18V109.707H185.967V109.742C185.936 110.637 186.105 111.279 186.477 111.67C186.852 112.061 187.379 112.256 188.059 112.256C188.402 112.256 188.762 112.201 189.137 112.092C189.512 111.982 189.912 111.816 190.338 111.594V112.666C189.928 112.834 189.531 112.959 189.148 113.041C188.77 113.127 188.402 113.17 188.047 113.17C187.027 113.17 186.23 112.865 185.656 112.256C185.082 111.643 184.795 110.799 184.795 109.725C184.795 108.678 185.076 107.842 185.639 107.217C186.201 106.592 186.951 106.279 187.889 106.279C188.725 106.279 189.383 106.562 189.863 107.129C190.348 107.695 190.605 108.379 190.637 109.18ZM189.559 108.863C189.512 108.41 189.346 108.02 189.061 107.691C188.779 107.359 188.373 107.193 187.842 107.193C187.322 107.193 186.895 107.365 186.559 107.709C186.223 108.053 186.039 108.439 186.008 108.869L189.559 108.863ZM197.521 112.666C197.232 112.834 196.934 112.959 196.625 113.041C196.32 113.127 196.008 113.17 195.688 113.17C194.672 113.17 193.877 112.865 193.303 112.256C192.732 111.646 192.447 110.803 192.447 109.725C192.447 108.646 192.732 107.803 193.303 107.193C193.877 106.584 194.672 106.279 195.688 106.279C196.004 106.279 196.312 106.32 196.613 106.402C196.914 106.484 197.217 106.611 197.521 106.783V107.914C197.236 107.66 196.949 107.477 196.66 107.363C196.375 107.25 196.051 107.193 195.688 107.193C195.012 107.193 194.492 107.412 194.129 107.85C193.766 108.287 193.584 108.912 193.584 109.725C193.584 110.533 193.766 111.158 194.129 111.6C194.496 112.037 195.016 112.256 195.688 112.256C196.062 112.256 196.398 112.199 196.695 112.086C196.992 111.969 197.268 111.789 197.521 111.547V112.666ZM202.145 107.193C201.598 107.193 201.184 107.406 200.902 107.832C200.621 108.258 200.48 108.889 200.48 109.725C200.48 110.557 200.621 111.188 200.902 111.617C201.184 112.043 201.598 112.256 202.145 112.256C202.695 112.256 203.111 112.043 203.393 111.617C203.674 111.188 203.814 110.557 203.814 109.725C203.814 108.889 203.674 108.258 203.393 107.832C203.111 107.406 202.695 107.193 202.145 107.193ZM202.145 106.279C203.055 106.279 203.75 106.574 204.23 107.164C204.715 107.754 204.957 108.607 204.957 109.725C204.957 110.846 204.717 111.701 204.236 112.291C203.756 112.877 203.059 113.17 202.145 113.17C201.234 113.17 200.539 112.877 200.059 112.291C199.578 111.701 199.338 110.846 199.338 109.725C199.338 108.607 199.578 107.754 200.059 107.164C200.539 106.574 201.234 106.279 202.145 106.279ZM211.924 108.934V113H210.84V108.934C210.84 108.344 210.736 107.91 210.529 107.633C210.322 107.355 209.998 107.217 209.557 107.217C209.053 107.217 208.664 107.396 208.391 107.756C208.121 108.111 207.986 108.623 207.986 109.291V113H206.908V106.438H207.986V107.422C208.178 107.047 208.438 106.764 208.766 106.572C209.094 106.377 209.482 106.279 209.932 106.279C210.6 106.279 211.098 106.5 211.426 106.941C211.758 107.379 211.924 108.043 211.924 108.934ZM218.023 107.275V103.883H219.102V113H218.023V112.174C217.844 112.498 217.604 112.746 217.303 112.918C217.006 113.086 216.662 113.17 216.271 113.17C215.479 113.17 214.854 112.863 214.396 112.25C213.943 111.633 213.717 110.783 213.717 109.701C213.717 108.635 213.945 107.799 214.402 107.193C214.859 106.584 215.482 106.279 216.271 106.279C216.666 106.279 217.014 106.365 217.314 106.537C217.615 106.705 217.852 106.951 218.023 107.275ZM214.854 109.725C214.854 110.561 214.986 111.191 215.252 111.617C215.518 112.043 215.91 112.256 216.43 112.256C216.949 112.256 217.344 112.041 217.613 111.611C217.887 111.182 218.023 110.553 218.023 109.725C218.023 108.893 217.887 108.264 217.613 107.838C217.344 107.408 216.949 107.193 216.43 107.193C215.91 107.193 215.518 107.406 215.252 107.832C214.986 108.258 214.854 108.889 214.854 109.725ZM224.34 109.701H223.982C223.354 109.701 222.879 109.812 222.559 110.035C222.242 110.254 222.084 110.582 222.084 111.02C222.084 111.414 222.203 111.721 222.441 111.939C222.68 112.158 223.01 112.268 223.432 112.268C224.025 112.268 224.492 112.062 224.832 111.652C225.172 111.238 225.344 110.668 225.348 109.941V109.701H224.34ZM226.432 109.256V113H225.348V112.027C225.117 112.418 224.826 112.707 224.475 112.895C224.127 113.078 223.703 113.17 223.203 113.17C222.535 113.17 222.002 112.982 221.604 112.607C221.205 112.229 221.006 111.723 221.006 111.09C221.006 110.359 221.25 109.805 221.738 109.426C222.23 109.047 222.951 108.857 223.9 108.857H225.348V108.688C225.344 108.164 225.211 107.785 224.949 107.551C224.688 107.312 224.27 107.193 223.695 107.193C223.328 107.193 222.957 107.246 222.582 107.352C222.207 107.457 221.842 107.611 221.486 107.814V106.736C221.885 106.584 222.266 106.471 222.629 106.396C222.996 106.318 223.352 106.279 223.695 106.279C224.238 106.279 224.701 106.359 225.084 106.52C225.471 106.68 225.783 106.92 226.021 107.24C226.17 107.436 226.275 107.678 226.338 107.967C226.4 108.252 226.432 108.682 226.432 109.256ZM234.225 107.791C233.994 107.611 233.76 107.48 233.521 107.398C233.283 107.316 233.021 107.275 232.736 107.275C232.064 107.275 231.551 107.486 231.195 107.908C230.84 108.33 230.662 108.939 230.662 109.736V113H229.578V106.438H230.662V107.721C230.842 107.256 231.117 106.9 231.488 106.654C231.863 106.404 232.307 106.279 232.818 106.279C233.084 106.279 233.332 106.312 233.562 106.379C233.793 106.445 234.014 106.549 234.225 106.689V107.791ZM239.715 110.891C239.535 111.348 239.307 111.949 239.029 112.695C238.643 113.727 238.383 114.355 238.25 114.582C238.07 114.887 237.846 115.115 237.576 115.268C237.307 115.42 236.992 115.496 236.633 115.496H235.766V114.594H236.404C236.721 114.594 236.969 114.502 237.148 114.318C237.328 114.135 237.557 113.66 237.834 112.895L235.297 106.438H236.439L238.385 111.57L240.301 106.438H241.443L239.715 110.891Z" fill="black"/>
<path d="M352 200.5C355.59 200.5 358.5 203.41 358.5 207V290C358.5 293.59 355.59 296.5 352 296.5H183C179.41 296.5 176.5 293.59 176.5 290V207C176.5 203.41 179.41 200.5 183 200.5H352Z" fill="#FBFBFD"/>
<path d="M352 200.5C355.59 200.5 358.5 203.41 358.5 207V290C358.5 293.59 355.59 296.5 352 296.5H183C179.41 296.5 176.5 293.59 176.5 290V207C176.5 203.41 179.41 200.5 183 200.5H352Z" stroke="#E5E7EB"/>
<path d="M204.982 241H203.294L206.366 232.273H208.318L211.395 241H209.707L207.376 234.062H207.308L204.982 241ZM205.037 237.578H209.639V238.848H205.037V237.578ZM218.308 241.128C217.654 241.128 217.093 240.984 216.625 240.697C216.159 240.411 215.799 240.014 215.547 239.509C215.297 239 215.172 238.415 215.172 237.753C215.172 237.088 215.299 236.501 215.555 235.993C215.811 235.482 216.172 235.084 216.637 234.8C217.106 234.513 217.66 234.369 218.299 234.369C218.831 234.369 219.301 234.467 219.71 234.663C220.122 234.857 220.45 235.131 220.694 235.486C220.939 235.838 221.078 236.25 221.112 236.722H219.637C219.578 236.406 219.436 236.143 219.211 235.933C218.99 235.72 218.693 235.614 218.321 235.614C218.005 235.614 217.728 235.699 217.49 235.869C217.251 236.037 217.065 236.278 216.931 236.594C216.801 236.909 216.735 237.287 216.735 237.727C216.735 238.173 216.801 238.557 216.931 238.878C217.062 239.196 217.245 239.442 217.481 239.615C217.72 239.786 218 239.871 218.321 239.871C218.548 239.871 218.751 239.828 218.93 239.743C219.112 239.655 219.264 239.528 219.386 239.364C219.508 239.199 219.592 238.999 219.637 238.763H221.112C221.075 239.226 220.939 239.636 220.703 239.994C220.467 240.349 220.146 240.628 219.74 240.83C219.333 241.028 218.856 241.128 218.308 241.128ZM224.262 241.132C223.847 241.132 223.474 241.058 223.141 240.911C222.812 240.76 222.55 240.538 222.357 240.246C222.167 239.953 222.072 239.592 222.072 239.163C222.072 238.794 222.14 238.489 222.276 238.247C222.413 238.006 222.599 237.812 222.835 237.668C223.07 237.523 223.336 237.413 223.631 237.339C223.93 237.263 224.238 237.207 224.556 237.173C224.94 237.134 225.251 237.098 225.489 237.067C225.728 237.033 225.901 236.982 226.009 236.913C226.12 236.842 226.175 236.733 226.175 236.585V236.56C226.175 236.239 226.08 235.99 225.89 235.814C225.7 235.638 225.425 235.55 225.067 235.55C224.69 235.55 224.39 235.632 224.168 235.797C223.95 235.962 223.802 236.156 223.725 236.381L222.285 236.176C222.398 235.778 222.586 235.446 222.847 235.179C223.109 234.909 223.428 234.707 223.806 234.574C224.184 234.438 224.602 234.369 225.059 234.369C225.374 234.369 225.688 234.406 226.001 234.48C226.313 234.554 226.599 234.676 226.857 234.847C227.116 235.014 227.323 235.243 227.479 235.533C227.638 235.822 227.718 236.185 227.718 236.619V241H226.235V240.101H226.184C226.09 240.283 225.958 240.453 225.788 240.612C225.62 240.768 225.408 240.895 225.153 240.991C224.9 241.085 224.603 241.132 224.262 241.132ZM224.663 239.999C224.972 239.999 225.241 239.937 225.468 239.815C225.695 239.69 225.87 239.526 225.992 239.321C226.117 239.116 226.18 238.893 226.18 238.652V237.881C226.131 237.92 226.049 237.957 225.933 237.991C225.819 238.026 225.691 238.055 225.549 238.081C225.407 238.107 225.266 238.129 225.127 238.149C224.988 238.169 224.867 238.186 224.765 238.2C224.535 238.232 224.329 238.283 224.147 238.354C223.965 238.425 223.822 238.524 223.717 238.652C223.612 238.777 223.559 238.939 223.559 239.138C223.559 239.422 223.663 239.636 223.87 239.781C224.077 239.926 224.342 239.999 224.663 239.999ZM229.269 241V234.455H230.765V235.545H230.833C230.952 235.168 231.157 234.876 231.447 234.672C231.739 234.464 232.073 234.361 232.448 234.361C232.533 234.361 232.629 234.365 232.734 234.374C232.842 234.379 232.931 234.389 233.002 234.403V235.822C232.937 235.8 232.833 235.78 232.691 235.763C232.552 235.743 232.417 235.733 232.286 235.733C232.005 235.733 231.752 235.794 231.528 235.916C231.306 236.036 231.131 236.202 231.004 236.415C230.876 236.628 230.812 236.874 230.812 237.152V241H229.269ZM236.186 241.115C235.672 241.115 235.212 240.983 234.806 240.719C234.4 240.455 234.078 240.071 233.843 239.568C233.607 239.065 233.489 238.455 233.489 237.736C233.489 237.009 233.608 236.395 233.847 235.895C234.088 235.392 234.414 235.013 234.823 234.757C235.232 234.499 235.688 234.369 236.191 234.369C236.574 234.369 236.89 234.435 237.137 234.565C237.384 234.693 237.58 234.848 237.725 235.03C237.87 235.209 237.982 235.378 238.061 235.537H238.125V232.273H239.672V241H238.155V239.969H238.061C237.982 240.128 237.867 240.297 237.716 240.476C237.566 240.652 237.367 240.803 237.12 240.928C236.873 241.053 236.561 241.115 236.186 241.115ZM236.617 239.849C236.944 239.849 237.222 239.761 237.452 239.585C237.682 239.406 237.857 239.158 237.976 238.839C238.096 238.521 238.155 238.151 238.155 237.727C238.155 237.304 238.096 236.936 237.976 236.624C237.86 236.311 237.686 236.068 237.456 235.895C237.229 235.722 236.949 235.635 236.617 235.635C236.273 235.635 235.986 235.724 235.756 235.903C235.526 236.082 235.353 236.33 235.236 236.645C235.12 236.96 235.061 237.321 235.061 237.727C235.061 238.136 235.12 238.501 235.236 238.822C235.355 239.141 235.53 239.392 235.76 239.577C235.993 239.759 236.279 239.849 236.617 239.849Z" fill="#2D3748"/>
<path d="M204.057 265V256.273H205.114V260.159H209.767V256.273H210.824V265H209.767V261.097H205.114V265H204.057ZM215.548 265.136C214.917 265.136 214.373 264.997 213.915 264.719C213.461 264.438 213.11 264.045 212.863 263.543C212.619 263.037 212.496 262.449 212.496 261.778C212.496 261.108 212.619 260.517 212.863 260.006C213.11 259.491 213.454 259.091 213.894 258.804C214.337 258.514 214.854 258.369 215.445 258.369C215.786 258.369 216.123 258.426 216.455 258.54C216.788 258.653 217.09 258.838 217.363 259.094C217.636 259.347 217.853 259.682 218.015 260.099C218.177 260.517 218.258 261.031 218.258 261.642V262.068H213.212V261.199H217.235C217.235 260.83 217.161 260.5 217.013 260.21C216.869 259.92 216.661 259.692 216.391 259.524C216.124 259.357 215.809 259.273 215.445 259.273C215.045 259.273 214.698 259.372 214.406 259.571C214.116 259.767 213.893 260.023 213.737 260.338C213.58 260.653 213.502 260.991 213.502 261.352V261.932C213.502 262.426 213.587 262.845 213.758 263.189C213.931 263.53 214.171 263.79 214.478 263.969C214.785 264.145 215.141 264.233 215.548 264.233C215.812 264.233 216.05 264.196 216.263 264.122C216.479 264.045 216.665 263.932 216.822 263.781C216.978 263.628 217.099 263.437 217.184 263.21L218.156 263.483C218.053 263.812 217.881 264.102 217.64 264.352C217.398 264.599 217.1 264.793 216.745 264.932C216.39 265.068 215.991 265.136 215.548 265.136ZM220.793 256.273V265H219.788V256.273H220.793ZM223.641 256.273V265H222.635V256.273H223.641ZM228.142 265.136C227.551 265.136 227.033 264.996 226.587 264.714C226.143 264.433 225.797 264.04 225.547 263.534C225.3 263.028 225.176 262.437 225.176 261.761C225.176 261.08 225.3 260.484 225.547 259.976C225.797 259.467 226.143 259.072 226.587 258.791C227.033 258.51 227.551 258.369 228.142 258.369C228.733 258.369 229.25 258.51 229.693 258.791C230.139 259.072 230.486 259.467 230.733 259.976C230.983 260.484 231.108 261.08 231.108 261.761C231.108 262.437 230.983 263.028 230.733 263.534C230.486 264.04 230.139 264.433 229.693 264.714C229.25 264.996 228.733 265.136 228.142 265.136ZM228.142 264.233C228.591 264.233 228.96 264.118 229.25 263.888C229.54 263.658 229.754 263.355 229.893 262.98C230.033 262.605 230.102 262.199 230.102 261.761C230.102 261.324 230.033 260.916 229.893 260.538C229.754 260.161 229.54 259.855 229.25 259.622C228.96 259.389 228.591 259.273 228.142 259.273C227.693 259.273 227.324 259.389 227.034 259.622C226.744 259.855 226.53 260.161 226.391 260.538C226.251 260.916 226.182 261.324 226.182 261.761C226.182 262.199 226.251 262.605 226.391 262.98C226.53 263.355 226.744 263.658 227.034 263.888C227.324 264.118 227.693 264.233 228.142 264.233ZM234.143 263.807L234.075 264.267C234.027 264.591 233.953 264.938 233.853 265.307C233.757 265.676 233.656 266.024 233.551 266.351C233.446 266.678 233.359 266.938 233.291 267.131H232.524C232.561 266.949 232.609 266.709 232.669 266.411C232.728 266.112 232.788 265.778 232.848 265.409C232.91 265.043 232.961 264.668 233.001 264.284L233.052 263.807H234.143ZM239.381 265V258.455H240.387V265H239.381ZM239.893 257.364C239.697 257.364 239.528 257.297 239.386 257.163C239.246 257.03 239.177 256.869 239.177 256.682C239.177 256.494 239.246 256.334 239.386 256.2C239.528 256.067 239.697 256 239.893 256C240.089 256 240.256 256.067 240.396 256.2C240.538 256.334 240.609 256.494 240.609 256.682C240.609 256.869 240.538 257.03 240.396 257.163C240.256 257.297 240.089 257.364 239.893 257.364ZM247.53 265.153C247.115 265.153 246.739 265.075 246.401 264.919C246.063 264.76 245.794 264.531 245.596 264.233C245.397 263.932 245.297 263.568 245.297 263.142C245.297 262.767 245.371 262.463 245.519 262.23C245.667 261.994 245.864 261.81 246.111 261.676C246.358 261.543 246.631 261.443 246.929 261.378C247.23 261.31 247.533 261.256 247.837 261.216C248.235 261.165 248.557 261.126 248.804 261.101C249.054 261.072 249.236 261.026 249.35 260.96C249.466 260.895 249.525 260.781 249.525 260.619V260.585C249.525 260.165 249.409 259.838 249.179 259.605C248.952 259.372 248.607 259.256 248.144 259.256C247.664 259.256 247.287 259.361 247.015 259.571C246.742 259.781 246.55 260.006 246.439 260.244L245.485 259.903C245.655 259.506 245.882 259.196 246.167 258.974C246.453 258.75 246.766 258.594 247.104 258.506C247.445 258.415 247.78 258.369 248.11 258.369C248.32 258.369 248.561 258.395 248.834 258.446C249.11 258.494 249.375 258.595 249.631 258.749C249.89 258.902 250.104 259.134 250.275 259.443C250.445 259.753 250.53 260.168 250.53 260.688V265H249.525V264.114H249.473C249.405 264.256 249.292 264.408 249.132 264.57C248.973 264.732 248.762 264.869 248.498 264.983C248.233 265.097 247.911 265.153 247.53 265.153ZM247.684 264.25C248.081 264.25 248.417 264.172 248.689 264.016C248.965 263.859 249.172 263.658 249.311 263.411C249.453 263.163 249.525 262.903 249.525 262.631V261.71C249.482 261.761 249.388 261.808 249.243 261.851C249.101 261.891 248.936 261.926 248.749 261.957C248.564 261.986 248.384 262.011 248.208 262.034C248.034 262.054 247.894 262.071 247.786 262.085C247.525 262.119 247.28 262.175 247.053 262.251C246.828 262.325 246.647 262.437 246.507 262.588C246.371 262.736 246.303 262.937 246.303 263.193C246.303 263.543 246.432 263.807 246.691 263.986C246.952 264.162 247.283 264.25 247.684 264.25ZM252.366 265V258.455H253.337V259.477H253.423C253.559 259.128 253.779 258.857 254.083 258.663C254.387 258.467 254.752 258.369 255.178 258.369C255.61 258.369 255.969 258.467 256.256 258.663C256.546 258.857 256.772 259.128 256.934 259.477H257.002C257.17 259.139 257.421 258.871 257.756 258.672C258.092 258.47 258.494 258.369 258.962 258.369C259.548 258.369 260.026 258.553 260.398 258.919C260.771 259.283 260.957 259.849 260.957 260.619V265H259.951V260.619C259.951 260.136 259.819 259.791 259.555 259.584C259.29 259.376 258.979 259.273 258.621 259.273C258.161 259.273 257.805 259.412 257.552 259.69C257.299 259.966 257.173 260.315 257.173 260.739V265H256.15V260.517C256.15 260.145 256.029 259.845 255.788 259.618C255.546 259.388 255.235 259.273 254.854 259.273C254.593 259.273 254.349 259.342 254.121 259.482C253.897 259.621 253.715 259.814 253.576 260.061C253.44 260.305 253.371 260.588 253.371 260.909V265H252.366ZM268.097 265.153C267.682 265.153 267.305 265.075 266.967 264.919C266.629 264.76 266.361 264.531 266.162 264.233C265.963 263.932 265.864 263.568 265.864 263.142C265.864 262.767 265.938 262.463 266.085 262.23C266.233 261.994 266.43 261.81 266.678 261.676C266.925 261.543 267.197 261.443 267.496 261.378C267.797 261.31 268.099 261.256 268.403 261.216C268.801 261.165 269.124 261.126 269.371 261.101C269.621 261.072 269.803 261.026 269.916 260.96C270.033 260.895 270.091 260.781 270.091 260.619V260.585C270.091 260.165 269.976 259.838 269.746 259.605C269.518 259.372 269.173 259.256 268.71 259.256C268.23 259.256 267.854 259.361 267.581 259.571C267.308 259.781 267.116 260.006 267.006 260.244L266.051 259.903C266.222 259.506 266.449 259.196 266.733 258.974C267.02 258.75 267.332 258.594 267.67 258.506C268.011 258.415 268.347 258.369 268.676 258.369C268.886 258.369 269.128 258.395 269.401 258.446C269.676 258.494 269.942 258.595 270.197 258.749C270.456 258.902 270.67 259.134 270.841 259.443C271.011 259.753 271.097 260.168 271.097 260.688V265H270.091V264.114H270.04C269.972 264.256 269.858 264.408 269.699 264.57C269.54 264.732 269.328 264.869 269.064 264.983C268.8 265.097 268.477 265.153 268.097 265.153ZM268.25 264.25C268.648 264.25 268.983 264.172 269.256 264.016C269.531 263.859 269.739 263.658 269.878 263.411C270.02 263.163 270.091 262.903 270.091 262.631V261.71C270.048 261.761 269.955 261.808 269.81 261.851C269.668 261.891 269.503 261.926 269.315 261.957C269.131 261.986 268.95 262.011 268.774 262.034C268.601 262.054 268.46 262.071 268.352 262.085C268.091 262.119 267.847 262.175 267.619 262.251C267.395 262.325 267.213 262.437 267.074 262.588C266.938 262.736 266.869 262.937 266.869 263.193C266.869 263.543 266.999 263.807 267.257 263.986C267.518 264.162 267.849 264.25 268.25 264.25ZM278.966 265.136C278.353 265.136 277.824 264.991 277.381 264.702C276.938 264.412 276.597 264.013 276.358 263.504C276.12 262.996 276 262.415 276 261.761C276 261.097 276.123 260.51 276.367 260.001C276.614 259.49 276.958 259.091 277.398 258.804C277.841 258.514 278.358 258.369 278.949 258.369C279.409 258.369 279.824 258.455 280.194 258.625C280.563 258.795 280.865 259.034 281.101 259.341C281.337 259.648 281.483 260.006 281.54 260.415H280.534C280.458 260.116 280.287 259.852 280.023 259.622C279.762 259.389 279.409 259.273 278.966 259.273C278.574 259.273 278.23 259.375 277.935 259.58C277.642 259.781 277.414 260.067 277.249 260.436C277.087 260.803 277.006 261.233 277.006 261.727C277.006 262.233 277.086 262.673 277.245 263.048C277.407 263.423 277.634 263.714 277.926 263.922C278.222 264.129 278.569 264.233 278.966 264.233C279.228 264.233 279.465 264.188 279.678 264.097C279.891 264.006 280.071 263.875 280.219 263.705C280.367 263.534 280.472 263.33 280.534 263.091H281.54C281.483 263.477 281.343 263.825 281.118 264.135C280.897 264.442 280.603 264.686 280.236 264.868C279.873 265.047 279.449 265.136 278.966 265.136ZM284.936 265.153C284.522 265.153 284.145 265.075 283.807 264.919C283.469 264.76 283.201 264.531 283.002 264.233C282.803 263.932 282.703 263.568 282.703 263.142C282.703 262.767 282.777 262.463 282.925 262.23C283.073 261.994 283.27 261.81 283.517 261.676C283.765 261.543 284.037 261.443 284.336 261.378C284.637 261.31 284.939 261.256 285.243 261.216C285.641 261.165 285.963 261.126 286.211 261.101C286.461 261.072 286.642 261.026 286.756 260.96C286.873 260.895 286.931 260.781 286.931 260.619V260.585C286.931 260.165 286.816 259.838 286.586 259.605C286.358 259.372 286.013 259.256 285.55 259.256C285.07 259.256 284.694 259.361 284.421 259.571C284.148 259.781 283.956 260.006 283.846 260.244L282.891 259.903C283.061 259.506 283.289 259.196 283.573 258.974C283.86 258.75 284.172 258.594 284.51 258.506C284.851 258.415 285.186 258.369 285.516 258.369C285.726 258.369 285.968 258.395 286.24 258.446C286.516 258.494 286.782 258.595 287.037 258.749C287.296 258.902 287.51 259.134 287.681 259.443C287.851 259.753 287.936 260.168 287.936 260.688V265H286.931V264.114H286.88C286.811 264.256 286.698 264.408 286.539 264.57C286.38 264.732 286.168 264.869 285.904 264.983C285.64 265.097 285.317 265.153 284.936 265.153ZM285.09 264.25C285.488 264.25 285.823 264.172 286.096 264.016C286.371 263.859 286.578 263.658 286.718 263.411C286.86 263.163 286.931 262.903 286.931 262.631V261.71C286.888 261.761 286.794 261.808 286.65 261.851C286.507 261.891 286.343 261.926 286.155 261.957C285.971 261.986 285.79 262.011 285.614 262.034C285.441 262.054 285.3 262.071 285.192 262.085C284.931 262.119 284.686 262.175 284.459 262.251C284.235 262.325 284.053 262.437 283.914 262.588C283.777 262.736 283.709 262.937 283.709 263.193C283.709 263.543 283.838 263.807 284.097 263.986C284.358 264.162 284.689 264.25 285.09 264.25ZM289.772 265V258.455H290.744V259.443H290.812C290.931 259.119 291.147 258.857 291.46 258.655C291.772 258.453 292.124 258.352 292.516 258.352C292.59 258.352 292.683 258.354 292.793 258.357C292.904 258.359 292.988 258.364 293.045 258.369V259.392C293.011 259.384 292.933 259.371 292.81 259.354C292.691 259.334 292.565 259.324 292.431 259.324C292.113 259.324 291.829 259.391 291.579 259.524C291.332 259.655 291.136 259.837 290.991 260.07C290.849 260.3 290.778 260.562 290.778 260.858V265H289.772ZM296.509 265.136C295.964 265.136 295.482 264.999 295.065 264.723C294.647 264.445 294.32 264.053 294.085 263.547C293.849 263.038 293.731 262.438 293.731 261.744C293.731 261.057 293.849 260.46 294.085 259.955C294.32 259.449 294.648 259.058 295.069 258.783C295.489 258.507 295.975 258.369 296.526 258.369C296.952 258.369 297.289 258.44 297.536 258.582C297.786 258.722 297.977 258.881 298.107 259.06C298.241 259.236 298.344 259.381 298.418 259.494H298.504V256.273H299.509V265H298.538V263.994H298.418C298.344 264.114 298.239 264.264 298.103 264.446C297.967 264.625 297.772 264.786 297.519 264.928C297.266 265.067 296.93 265.136 296.509 265.136ZM296.646 264.233C297.049 264.233 297.39 264.128 297.668 263.918C297.947 263.705 298.158 263.411 298.303 263.036C298.448 262.658 298.521 262.222 298.521 261.727C298.521 261.239 298.45 260.811 298.308 260.445C298.165 260.075 297.955 259.788 297.677 259.584C297.398 259.376 297.055 259.273 296.646 259.273C296.219 259.273 295.864 259.382 295.58 259.601C295.299 259.817 295.087 260.111 294.945 260.483C294.806 260.852 294.737 261.267 294.737 261.727C294.737 262.193 294.808 262.616 294.95 262.997C295.094 263.375 295.308 263.676 295.589 263.901C295.873 264.122 296.225 264.233 296.646 264.233Z" fill="#4A5568"/>
<line x1="81" y1="84.5" x2="400" y2="84.5" stroke="#E5E7EB"/>
<line x1="80.5" y1="400" x2="80.5" y2="85" stroke="#E5E7EB"/>
</svg>
