<?xml version="1.0" encoding="utf-8"?>
<!-- Generator: Adobe Illustrator 19.2.1, SVG Export Plug-In . SVG Version: 6.00 Build 0)  -->
<svg version="1.1" id="layer" xmlns="http://www.w3.org/2000/svg" xmlns:xlink="http://www.w3.org/1999/xlink" x="0px" y="0px"
	 viewBox="0 0 652 652" style="enable-background:new 0 0 652 652;" xml:space="preserve">
<style type="text/css">
	.st0{fill:#6ABA4F;}
	.st1{stroke:#FFFFFF;stroke-width:1.761;}
</style>
<path class="st0" d="M112.2,285L54,365.3l17.4,0l49.5-68.3l8.7,12l-51,70.3l-52.2,0L103.5,273L112.2,285z M96,379.4l52.2,0
	l10.2-14.1l6-8.3l-8.7-12L141,365.3l-17.4,0L147,333l-8.7-12L96,379.4z"/>
<path class="st1" d="M608.8,305c14.4,0,17.6,9.8,17.6,22.2v38.2h-14v-38.2c0-8.1-1.7-10.3-7.6-10.3c-2,0-6,0.6-9.8,2.6
	c0.3,2.3,0.4,5,0.4,7.6v38.2h-14v-38.2c0-8.1-1.4-10.3-7.3-10.3c-2.2,0-5.4,1.2-9.7,3.5v44.9h-14v-59.6h13.4v4.3
	c4.4-2.9,8.9-5.1,15.1-5.1c6,0,9.9,1.8,12.4,4.8C596.7,306.8,601.5,305,608.8,305 M395.7,305c17,0,25.3,10,25.3,26.5v7.1
	c0,16.5-8.2,26.5-25.3,26.5c-0.1,0-0.2,0-0.3,0v0h-23.8v-0.8v-4.8v-0.8v-16.2v-57.7h14v20.8C389.5,305.2,393.2,305,395.7,305
	 M407,331.5c0-8.7-2.2-15.1-11.3-15.1c-2.5,0-7.2,0.3-10.1,0.7v25.5v5.4v5v0.7h10.1c9.1,0,11.3-6.4,11.3-15.1V331.5z M213.8,305
	c16.3,0,25.2,11.1,25.2,26.9v4.8v1.1v2.6h-2.1h-1.5h-32.9v0.3c0,6.1,2.5,13.4,12.7,13.4c5.7,0,11.2-0.4,15.5-0.7l3.3-0.3
	c0.2,0,0.4,0,0.6-0.1h0l2.2-0.2v1.6c0,0,0,0.1,0,0.1v7c0,0.2,0,0.3,0,0.5v1.9l-2.1,0.4c0,0-0.1,0-0.1,0c-1.2,0.2-2.3,0.4-3.4,0.6
	l-0.1,0c-5,0.8-9.2,1.2-17,1.2c-10.6,0-25.6-5.7-25.6-26.5v-7.8C188.4,315.3,197.6,305,213.8,305 M224.9,330c0-8.2-4.5-13-11.1-13
	c-6.6,0-11.3,4.7-11.3,13v0.4h22.4V330z M456.2,305c16.3,0,25.2,11.1,25.2,26.9v4.8v1.1v2.6h-2.1h-1.5h-32.9v0.3
	c0,6.1,2.5,13.4,12.7,13.4c5.7,0,11.2-0.4,15.5-0.7l3.3-0.3c0.2,0,0.4,0,0.6-0.1h0l2.2-0.2v1.6c0,0,0,0.1,0,0.1v7c0,0.2,0,0.3,0,0.5
	v1.9l-2.1,0.4c0,0-0.1,0-0.1,0c-1.2,0.2-2.3,0.4-3.4,0.6l-0.1,0c-5,0.8-9.2,1.2-17,1.2c-10.6,0-25.6-5.7-25.6-26.5v-7.8
	C430.8,315.3,440,305,456.2,305 M467.3,330c0-8.2-4.5-13-11.1-13c-6.6,0-11.3,4.7-11.3,13v0.4h22.4V330z M333.6,305
	c15,0,23.3,6.7,23.3,20.2V362v1.2v2.1h-2.1h-9h-2.1v-2.1V362v-0.5c-4.9,3-9.8,4.7-14.9,4.7c-8.8,0-18.3-3.4-18.3-17.7v-0.4
	c0-12.1,7.4-18.3,25.8-18.3h6.7v-4.7c0-6.9-3.1-8.6-9.3-8.6c-6.1,0-12.3,0.3-16.1,0.7v0l-3.6,0.3v-1.8c0-0.1,0-0.2,0-0.3v-6.8
	c0-0.1,0-0.2,0-0.3V307l2-0.4c0,0,0,0,0,0c0.3-0.1,0.6-0.1,0.9-0.2l0.6-0.1v0C321.6,305.6,327.1,305,333.6,305 M342.9,339.1h-6.7
	c-9.6,0-11.7,3.1-11.7,9v0.4c0,5.2,2.3,6.6,7.6,6.6c3.8,0,7.7-1.3,10.8-3V339.1z M513.8,305c15,0,23.3,6.7,23.3,20.2V362v1.2v2.1
	h-2.1h-9h-2.1v-2.1V362v-0.5c-4.9,3-9.8,4.7-14.9,4.7c-8.8,0-18.3-3.4-18.3-17.7v-0.4c0-12.1,7.4-18.3,25.8-18.3h6.7v-4.7
	c0-6.9-3.1-8.6-9.3-8.6c-6.1,0-12.3,0.3-16.1,0.7v0l-3.6,0.3v-1.8c0-0.1,0-0.2,0-0.3v-6.8c0-0.1,0-0.2,0-0.3V307l2-0.4c0,0,0,0,0,0
	c0.3-0.1,0.6-0.1,0.9-0.2l0.6-0.1v0C501.9,305.6,507.4,305,513.8,305 M523.1,339.1h-6.7c-9.6,0-11.7,3.1-11.7,9v0.4
	c0,5.2,2.3,6.6,7.6,6.6c3.8,0,7.7-1.3,10.8-3V339.1z M288.8,305.7l-14.4,19.9l-14.4-19.9h-14.5l21.7,29.8l-21.7,29.8h14.5l14.4-19.9
	l14.4,19.9h14.5l-21.7-29.8l21.7-29.8H288.8z"/>
</svg>
